%TF.GenerationSoftware,KiCad,Pcbnew,9.0.0*%
%TF.CreationDate,2025-03-19T20:29:17+00:00*%
%TF.ProjectId,gloves dryer,676c6f76-6573-4206-9472-7965722e6b69,rev?*%
%TF.SameCoordinates,Original*%
%TF.FileFunction,Soldermask,Bot*%
%TF.FilePolarity,Negative*%
%FSLAX46Y46*%
G04 Gerber Fmt 4.6, Leading zero omitted, Abs format (unit mm)*
G04 Created by KiCad (PCBNEW 9.0.0) date 2025-03-19 20:29:17*
%MOMM*%
%LPD*%
G01*
G04 APERTURE LIST*
%ADD10C,1.600000*%
%ADD11R,1.350000X1.350000*%
%ADD12O,1.350000X1.350000*%
%ADD13C,1.400000*%
%ADD14O,1.400000X1.400000*%
%ADD15R,1.050000X1.500000*%
%ADD16O,1.050000X1.500000*%
%ADD17R,1.320800X1.320800*%
%ADD18C,1.320800*%
%ADD19C,1.800000*%
%ADD20R,2.200000X2.200000*%
%ADD21O,2.200000X2.200000*%
%ADD22C,2.000000*%
G04 APERTURE END LIST*
D10*
%TO.C,C1*%
X177500000Y-66000000D03*
X177500000Y-64000000D03*
%TD*%
%TO.C,C2*%
X175250000Y-74000000D03*
X177750000Y-74000000D03*
%TD*%
D11*
%TO.C,J1*%
X195500000Y-67000000D03*
D12*
X195500000Y-65000000D03*
X195500000Y-63000000D03*
%TD*%
D13*
%TO.C,R2*%
X194500000Y-52190000D03*
D14*
X194500000Y-59810000D03*
%TD*%
D13*
%TO.C,R5*%
X181850000Y-52190000D03*
D14*
X181850000Y-59810000D03*
%TD*%
D13*
%TO.C,R3*%
X188200000Y-59800000D03*
D14*
X188200000Y-52180000D03*
%TD*%
D11*
%TO.C,J7*%
X193000000Y-86000000D03*
D12*
X193000000Y-88000000D03*
%TD*%
D11*
%TO.C,J5*%
X186500000Y-86000000D03*
D12*
X186500000Y-88000000D03*
%TD*%
D15*
%TO.C,Q1*%
X192960000Y-81500000D03*
D16*
X194230000Y-81500000D03*
X195500000Y-81500000D03*
%TD*%
D17*
%TO.C,U1*%
X181880000Y-64500000D03*
D18*
X181880000Y-67040000D03*
X181880000Y-69580000D03*
X181880000Y-72120000D03*
X181880000Y-74660000D03*
X181880000Y-77200000D03*
X181880000Y-79740000D03*
X189500000Y-79740000D03*
X189500000Y-77200000D03*
X189500000Y-74660000D03*
X189500000Y-72120000D03*
X189500000Y-69580000D03*
X189500000Y-67040000D03*
X189500000Y-64500000D03*
%TD*%
D11*
%TO.C,J6*%
X192500000Y-63000000D03*
D12*
X192500000Y-65000000D03*
X192500000Y-67000000D03*
X192500000Y-69000000D03*
X192500000Y-71000000D03*
%TD*%
D13*
%TO.C,R6*%
X178700000Y-52190000D03*
D14*
X178700000Y-59810000D03*
%TD*%
D13*
%TO.C,R4*%
X185000000Y-52190000D03*
D14*
X185000000Y-59810000D03*
%TD*%
D19*
%TO.C,J4*%
X169000000Y-56700000D03*
D10*
X169000000Y-61200000D03*
%TD*%
%TO.C,C3*%
X175000000Y-79500000D03*
X177500000Y-79500000D03*
%TD*%
D20*
%TO.C,D1*%
X173660000Y-69000000D03*
D21*
X163500000Y-69000000D03*
%TD*%
D22*
%TO.C,SW1*%
X173750000Y-84000000D03*
X180250000Y-84000000D03*
X173750000Y-88500000D03*
X180250000Y-88500000D03*
%TD*%
D13*
%TO.C,R1*%
X191400000Y-59800000D03*
D14*
X191400000Y-52180000D03*
%TD*%
D15*
%TO.C,Q2*%
X193000000Y-76000000D03*
D16*
X194270000Y-76000000D03*
X195540000Y-76000000D03*
%TD*%
D22*
%TO.C,SW2*%
X163750000Y-84000000D03*
X170250000Y-84000000D03*
X163750000Y-88500000D03*
X170250000Y-88500000D03*
%TD*%
M02*
