%TF.GenerationSoftware,KiCad,Pcbnew,9.0.0*%
%TF.CreationDate,2025-04-02T21:34:46+01:00*%
%TF.ProjectId,gloves dryer,676c6f76-6573-4206-9472-7965722e6b69,rev?*%
%TF.SameCoordinates,Original*%
%TF.FileFunction,Copper,L1,Top*%
%TF.FilePolarity,Positive*%
%FSLAX46Y46*%
G04 Gerber Fmt 4.6, Leading zero omitted, Abs format (unit mm)*
G04 Created by KiCad (PCBNEW 9.0.0) date 2025-04-02 21:34:46*
%MOMM*%
%LPD*%
G01*
G04 APERTURE LIST*
G04 Aperture macros list*
%AMRoundRect*
0 Rectangle with rounded corners*
0 $1 Rounding radius*
0 $2 $3 $4 $5 $6 $7 $8 $9 X,Y pos of 4 corners*
0 Add a 4 corners polygon primitive as box body*
4,1,4,$2,$3,$4,$5,$6,$7,$8,$9,$2,$3,0*
0 Add four circle primitives for the rounded corners*
1,1,$1+$1,$2,$3*
1,1,$1+$1,$4,$5*
1,1,$1+$1,$6,$7*
1,1,$1+$1,$8,$9*
0 Add four rect primitives between the rounded corners*
20,1,$1+$1,$2,$3,$4,$5,0*
20,1,$1+$1,$4,$5,$6,$7,0*
20,1,$1+$1,$6,$7,$8,$9,0*
20,1,$1+$1,$8,$9,$2,$3,0*%
G04 Aperture macros list end*
%TA.AperFunction,ComponentPad*%
%ADD10R,1.600000X1.600000*%
%TD*%
%TA.AperFunction,ComponentPad*%
%ADD11C,1.600000*%
%TD*%
%TA.AperFunction,ComponentPad*%
%ADD12C,1.400000*%
%TD*%
%TA.AperFunction,ComponentPad*%
%ADD13O,1.400000X1.400000*%
%TD*%
%TA.AperFunction,ComponentPad*%
%ADD14R,1.350000X1.350000*%
%TD*%
%TA.AperFunction,ComponentPad*%
%ADD15O,1.350000X1.350000*%
%TD*%
%TA.AperFunction,ComponentPad*%
%ADD16R,1.500000X1.500000*%
%TD*%
%TA.AperFunction,ComponentPad*%
%ADD17C,1.500000*%
%TD*%
%TA.AperFunction,ComponentPad*%
%ADD18R,1.320800X1.320800*%
%TD*%
%TA.AperFunction,ComponentPad*%
%ADD19C,1.320800*%
%TD*%
%TA.AperFunction,SMDPad,CuDef*%
%ADD20R,2.000000X2.000000*%
%TD*%
%TA.AperFunction,ComponentPad*%
%ADD21R,2.200000X2.200000*%
%TD*%
%TA.AperFunction,ComponentPad*%
%ADD22O,2.200000X2.200000*%
%TD*%
%TA.AperFunction,ComponentPad*%
%ADD23R,1.295400X1.295400*%
%TD*%
%TA.AperFunction,ComponentPad*%
%ADD24C,1.295400*%
%TD*%
%TA.AperFunction,ComponentPad*%
%ADD25C,1.498600*%
%TD*%
%TA.AperFunction,ComponentPad*%
%ADD26C,2.000000*%
%TD*%
%TA.AperFunction,SMDPad,CuDef*%
%ADD27RoundRect,0.375000X0.625000X0.375000X-0.625000X0.375000X-0.625000X-0.375000X0.625000X-0.375000X0*%
%TD*%
%TA.AperFunction,SMDPad,CuDef*%
%ADD28RoundRect,0.500000X0.500000X1.400000X-0.500000X1.400000X-0.500000X-1.400000X0.500000X-1.400000X0*%
%TD*%
%TA.AperFunction,Conductor*%
%ADD29C,0.200000*%
%TD*%
%TA.AperFunction,Conductor*%
%ADD30C,1.000000*%
%TD*%
G04 APERTURE END LIST*
D10*
%TO.P,C1,1*%
%TO.N,/VDDG_12V*%
X175000000Y-72800000D03*
D11*
%TO.P,C1,2*%
%TO.N,GND*%
X177000000Y-72800000D03*
%TD*%
D12*
%TO.P,R8,1*%
%TO.N,GND*%
X171700000Y-79100000D03*
D13*
%TO.P,R8,2*%
%TO.N,/SW1*%
X164080000Y-79100000D03*
%TD*%
D10*
%TO.P,C2,1*%
%TO.N,/VDD_5V*%
X180650000Y-55300000D03*
D11*
%TO.P,C2,2*%
%TO.N,GND*%
X178150000Y-55300000D03*
%TD*%
D14*
%TO.P,J1,1,Pin_1*%
%TO.N,/IO_SENS*%
X196850000Y-52750000D03*
D15*
%TO.P,J1,2,Pin_2*%
%TO.N,/VDD_5V*%
X196850000Y-54750000D03*
%TO.P,J1,3,Pin_3*%
%TO.N,GND*%
X196850000Y-56750000D03*
%TD*%
D12*
%TO.P,R2,1*%
%TO.N,Net-(R1-Pad2)*%
X197300000Y-59590000D03*
D13*
%TO.P,R2,2*%
%TO.N,Net-(Q1-B)*%
X197300000Y-67210000D03*
%TD*%
D12*
%TO.P,R5,1*%
%TO.N,Net-(C3-Pad1)*%
X180700000Y-67920000D03*
D13*
%TO.P,R5,2*%
%TO.N,/MCLR*%
X180700000Y-60300000D03*
%TD*%
D12*
%TO.P,R3,1*%
%TO.N,/IF1*%
X194700000Y-69590000D03*
D13*
%TO.P,R3,2*%
%TO.N,Net-(R3-Pad2)*%
X194700000Y-77210000D03*
%TD*%
D14*
%TO.P,J7,1,Pin_1*%
%TO.N,/VDDG_12V*%
X193100000Y-85800000D03*
D15*
%TO.P,J7,2,Pin_2*%
%TO.N,/F2-*%
X193100000Y-87800000D03*
%TD*%
D14*
%TO.P,J5,1,Pin_1*%
%TO.N,/VDDG_12V*%
X186700000Y-85800000D03*
D15*
%TO.P,J5,2,Pin_2*%
%TO.N,/F1-*%
X186700000Y-87800000D03*
%TD*%
D16*
%TO.P,Q1,1,E*%
%TO.N,GND*%
X191830000Y-81560000D03*
D17*
%TO.P,Q1,2,B*%
%TO.N,Net-(Q1-B)*%
X194370000Y-81560000D03*
%TO.P,Q1,3,C*%
%TO.N,/F2-*%
X196910000Y-81560000D03*
%TD*%
D18*
%TO.P,U1,1,VDD*%
%TO.N,/VDD_5V*%
X184680000Y-57100000D03*
D19*
%TO.P,U1,2,RA5*%
%TO.N,unconnected-(U1-RA5-Pad2)*%
X184680000Y-59640000D03*
%TO.P,U1,3,RA4*%
%TO.N,unconnected-(U1-RA4-Pad3)*%
X184680000Y-62180000D03*
%TO.P,U1,4,RA3/\u002AMCLR/VPP*%
%TO.N,/MCLR*%
X184680000Y-64720000D03*
%TO.P,U1,5,RC5*%
%TO.N,/BT1*%
X184680000Y-67260000D03*
%TO.P,U1,6,RC4*%
%TO.N,/SW1*%
X184680000Y-69800000D03*
%TO.P,U1,7,RC3*%
%TO.N,/SW2*%
X184680000Y-72340000D03*
%TO.P,U1,8,RC2*%
%TO.N,/IO_SENS*%
X192300000Y-72340000D03*
%TO.P,U1,9,RC1*%
%TO.N,/IF2*%
X192300000Y-69800000D03*
%TO.P,U1,10,RC0*%
%TO.N,/IF1*%
X192300000Y-67260000D03*
%TO.P,U1,11,RA2*%
%TO.N,unconnected-(U1-RA2-Pad11)*%
X192300000Y-64720000D03*
%TO.P,U1,12,RA1/ICSPCLK*%
%TO.N,/CLK*%
X192300000Y-62180000D03*
%TO.P,U1,13,RA0/ICSPDAT*%
%TO.N,/DAT*%
X192300000Y-59640000D03*
%TO.P,U1,14,VSS*%
%TO.N,GND*%
X192300000Y-57100000D03*
%TD*%
D14*
%TO.P,J6,1,Pin_1*%
%TO.N,/MCLR*%
X184490000Y-52750000D03*
D15*
%TO.P,J6,2,Pin_2*%
%TO.N,/VDD_5V*%
X186490000Y-52750000D03*
%TO.P,J6,3,Pin_3*%
%TO.N,GND*%
X188490000Y-52750000D03*
%TO.P,J6,4,Pin_4*%
%TO.N,/DAT*%
X190490000Y-52750000D03*
%TO.P,J6,5,Pin_5*%
%TO.N,/CLK*%
X192490000Y-52750000D03*
%TD*%
D12*
%TO.P,R7,1*%
%TO.N,GND*%
X173790000Y-79100000D03*
D13*
%TO.P,R7,2*%
%TO.N,/BT1*%
X181410000Y-79100000D03*
%TD*%
D12*
%TO.P,R6,1*%
%TO.N,Net-(C3-Pad1)*%
X178100000Y-67920000D03*
D13*
%TO.P,R6,2*%
%TO.N,/VDD_5V*%
X178100000Y-60300000D03*
%TD*%
D12*
%TO.P,R4,1*%
%TO.N,Net-(R3-Pad2)*%
X197300000Y-69590000D03*
D13*
%TO.P,R4,2*%
%TO.N,Net-(Q2-B)*%
X197300000Y-77210000D03*
%TD*%
D20*
%TO.P,J4,1_1*%
%TO.N,/VDD_12V*%
X174500000Y-56150000D03*
%TO.P,J4,1_2*%
X174500000Y-62350000D03*
%TO.P,J4,2*%
%TO.N,GND*%
X163500000Y-56150000D03*
%TO.P,J4,3*%
X163500000Y-62350000D03*
%TD*%
D11*
%TO.P,C3,1*%
%TO.N,Net-(C3-Pad1)*%
X180700000Y-71100000D03*
%TO.P,C3,2*%
%TO.N,GND*%
X180700000Y-73600000D03*
%TD*%
D21*
%TO.P,D1,1,K*%
%TO.N,/VDDG_12V*%
X174080000Y-68300000D03*
D22*
%TO.P,D1,2,A*%
%TO.N,/VDD_12V*%
X163920000Y-68300000D03*
%TD*%
D23*
%TO.P,SW3,1,1*%
%TO.N,/SW2*%
X165699200Y-83200000D03*
D24*
%TO.P,SW3,2,2*%
%TO.N,/VDD_5V*%
X165699200Y-85200000D03*
%TO.P,SW3,3,3*%
X165699200Y-87200001D03*
D25*
%TO.P,SW3,4*%
%TO.N,N/C*%
X165699200Y-81099999D03*
%TO.P,SW3,5*%
X165699200Y-89300000D03*
%TD*%
D26*
%TO.P,SW1,1,1*%
%TO.N,/VDD_5V*%
X180649200Y-81950000D03*
X180649200Y-88450000D03*
%TO.P,SW1,2,2*%
%TO.N,/BT1*%
X176149200Y-81950000D03*
X176149200Y-88450000D03*
%TD*%
D12*
%TO.P,R1,1*%
%TO.N,/IF2*%
X194700000Y-59590000D03*
D13*
%TO.P,R1,2*%
%TO.N,Net-(R1-Pad2)*%
X194700000Y-67210000D03*
%TD*%
D16*
%TO.P,Q2,1,E*%
%TO.N,GND*%
X183920000Y-81560000D03*
D17*
%TO.P,Q2,2,B*%
%TO.N,Net-(Q2-B)*%
X186460000Y-81560000D03*
%TO.P,Q2,3,C*%
%TO.N,/F1-*%
X189000000Y-81560000D03*
%TD*%
D23*
%TO.P,SW2,1,1*%
%TO.N,/SW1*%
X171400000Y-83200000D03*
D24*
%TO.P,SW2,2,2*%
%TO.N,/VDD_5V*%
X171400000Y-85200000D03*
%TO.P,SW2,3,3*%
X171400000Y-87200001D03*
D25*
%TO.P,SW2,4*%
%TO.N,N/C*%
X171400000Y-81099999D03*
%TO.P,SW2,5*%
X171400000Y-89300000D03*
%TD*%
D27*
%TO.P,U2,1,GND*%
%TO.N,GND*%
X171250000Y-76400000D03*
%TO.P,U2,2,VO*%
%TO.N,/VDD_5V*%
X171250000Y-74100000D03*
D28*
X164950000Y-74100000D03*
D27*
%TO.P,U2,3,VI*%
%TO.N,/VDDG_12V*%
X171250000Y-71800000D03*
%TD*%
D12*
%TO.P,R10,1*%
%TO.N,GND*%
X173790000Y-76800000D03*
D13*
%TO.P,R10,2*%
%TO.N,/SW2*%
X181410000Y-76800000D03*
%TD*%
D29*
%TO.N,/MCLR*%
X179450000Y-54300000D02*
X179450000Y-55916116D01*
X180075000Y-57425000D02*
G75*
G02*
X180700007Y-58933883I-1508900J-1508900D01*
G01*
X181000000Y-52750000D02*
X179450000Y-54300000D01*
X179450000Y-55916116D02*
G75*
G03*
X180075005Y-57424995I2133900J16D01*
G01*
X184490000Y-52750000D02*
X181000000Y-52750000D01*
X180700000Y-58933883D02*
X180700000Y-60300000D01*
D30*
%TO.N,/F1-*%
X189000000Y-86454594D02*
X187654594Y-87800000D01*
X187654594Y-87800000D02*
X186700000Y-87800000D01*
X189000000Y-81560000D02*
X189000000Y-86454594D01*
D29*
%TO.N,Net-(Q1-B)*%
X198002664Y-77927334D02*
X194370000Y-81560000D01*
X197750500Y-67660500D02*
X197300000Y-67210000D01*
X198201000Y-68748103D02*
X198201000Y-77448509D01*
X198201000Y-77448509D02*
G75*
G02*
X198002668Y-77927338I-677200J9D01*
G01*
X197750500Y-67660500D02*
G75*
G02*
X198200999Y-68748103I-1087600J-1087600D01*
G01*
D30*
%TO.N,/F2-*%
X194200000Y-87800000D02*
X193100000Y-87800000D01*
X196910000Y-85090000D02*
X194200000Y-87800000D01*
X196910000Y-81560000D02*
X196910000Y-85090000D01*
D29*
%TO.N,Net-(Q2-B)*%
X188254169Y-80509000D02*
X191747036Y-80509000D01*
X186985500Y-81034500D02*
X186460000Y-81560000D01*
X195594792Y-78915207D02*
X197300000Y-77210000D01*
X188254169Y-80509000D02*
G75*
G03*
X186985509Y-81034509I31J-1794200D01*
G01*
X195594792Y-78915207D02*
G75*
G02*
X191747036Y-80509010I-3847792J3847807D01*
G01*
%TO.N,Net-(R1-Pad2)*%
X196000000Y-65910000D02*
X194700000Y-67210000D01*
X197300000Y-62771522D02*
X197300000Y-59590000D01*
X197300000Y-62771522D02*
G75*
G02*
X195999993Y-65909993I-4438500J22D01*
G01*
%TO.N,/IF2*%
X194700000Y-60294102D02*
X194700000Y-59590000D01*
X191438600Y-68329498D02*
X191438600Y-64337522D01*
X191493701Y-64204502D02*
X194202124Y-61496079D01*
X192300000Y-69800000D02*
X191869300Y-69369300D01*
X191493699Y-64204502D02*
X191493701Y-64204502D01*
X191869300Y-69369300D02*
G75*
G02*
X191438601Y-68329498I1039800J1039800D01*
G01*
X191438600Y-64337522D02*
G75*
G02*
X191493692Y-64204495I188100J22D01*
G01*
X194202124Y-61496079D02*
G75*
G03*
X194699987Y-60294102I-1202024J1201979D01*
G01*
%TO.N,/IF1*%
X192394748Y-67284748D02*
X194700000Y-69590000D01*
X192335000Y-67260000D02*
X192300000Y-67260000D01*
X192394748Y-67284748D02*
G75*
G03*
X192335000Y-67260001I-59748J-59752D01*
G01*
%TO.N,Net-(R3-Pad2)*%
X197300000Y-72771522D02*
X197300000Y-69590000D01*
X196000000Y-75910000D02*
X194700000Y-77210000D01*
X197300000Y-72771522D02*
G75*
G02*
X195999993Y-75909993I-4438500J22D01*
G01*
D30*
%TO.N,/VDD_12V*%
X174500000Y-62350000D02*
X174500000Y-56150000D01*
X163500000Y-67880000D02*
X163920000Y-68300000D01*
X174500000Y-62350000D02*
X169870000Y-62350000D01*
X169870000Y-62350000D02*
X163920000Y-68300000D01*
%TO.N,/VDD_5V*%
X162650000Y-82848200D02*
X165001800Y-85200000D01*
X178100000Y-62152000D02*
X173753000Y-66499000D01*
X184894594Y-55300000D02*
X186490000Y-53704594D01*
X180649200Y-88450000D02*
X177399200Y-85200000D01*
X165001800Y-85200000D02*
X165699200Y-85200000D01*
X196850000Y-54750000D02*
X196100000Y-55500000D01*
X184680000Y-55514594D02*
X184894594Y-55300000D01*
X186490000Y-53890000D02*
X186490000Y-53704594D01*
X173753000Y-66499000D02*
X172551000Y-66499000D01*
X162650000Y-76400000D02*
X162650000Y-82848200D01*
X171250000Y-74100000D02*
X164950000Y-74100000D01*
X172551000Y-66499000D02*
X164950000Y-74100000D01*
X180649200Y-81950000D02*
X177399200Y-85200000D01*
X184680000Y-57100000D02*
X184680000Y-55514594D01*
X177399200Y-85200000D02*
X165699200Y-85200000D01*
X178100000Y-60300000D02*
X178100000Y-62152000D01*
X164950000Y-74100000D02*
X162650000Y-76400000D01*
X180650000Y-55300000D02*
X184894594Y-55300000D01*
X196100000Y-55500000D02*
X188100000Y-55500000D01*
X188100000Y-55500000D02*
X186490000Y-53890000D01*
X186490000Y-53704594D02*
X186490000Y-52750000D01*
%TO.N,/VDDG_12V*%
X174080000Y-68300000D02*
X174080000Y-68970000D01*
X172625000Y-70425000D02*
X171250000Y-71800000D01*
X175000000Y-72800000D02*
X172625000Y-70425000D01*
X174080000Y-68970000D02*
X172625000Y-70425000D01*
D29*
%TO.N,/BT1*%
X180204600Y-79100000D02*
X181410000Y-79100000D01*
X178146853Y-79952346D02*
X176149200Y-81950000D01*
X180204600Y-79100000D02*
G75*
G03*
X178146852Y-79952345I0J-2910100D01*
G01*
%TO.N,Net-(C3-Pad1)*%
X180700000Y-67920000D02*
X178100000Y-67920000D01*
X180700000Y-67920000D02*
X180700000Y-71100000D01*
%TO.N,/MCLR*%
X184680000Y-64500000D02*
X184680000Y-64720000D01*
X180700000Y-60300000D02*
X184524436Y-64124436D01*
X184524436Y-64124436D02*
G75*
G02*
X184680008Y-64500000I-375536J-375564D01*
G01*
%TO.N,/SW1*%
X172000898Y-83200000D02*
X171707326Y-83200000D01*
X184680000Y-70460898D02*
X184680000Y-69800000D01*
X165997326Y-79100000D02*
X164080000Y-79100000D01*
X169270406Y-80455754D02*
X171182687Y-82368035D01*
X184212674Y-71589121D02*
X173026695Y-82775100D01*
X171400000Y-82892674D02*
G75*
G03*
X171707326Y-83200000I307300J-26D01*
G01*
X173026695Y-82775100D02*
G75*
G02*
X172000898Y-83199997I-1025795J1025800D01*
G01*
X169270406Y-80455754D02*
G75*
G03*
X165997326Y-79099972I-3273106J-3273046D01*
G01*
X171182687Y-82368035D02*
G75*
G02*
X171400004Y-82892674I-524687J-524665D01*
G01*
X184680000Y-70460898D02*
G75*
G02*
X184212686Y-71589133I-1595600J-2D01*
G01*
%TO.N,/SW2*%
X166123550Y-83624350D02*
X165699200Y-83200000D01*
X172423521Y-83873878D02*
X178821193Y-77476206D01*
X180453700Y-76800000D02*
X181410000Y-76800000D01*
X167148021Y-84048700D02*
X172001463Y-84048700D01*
X166123550Y-83624350D02*
G75*
G03*
X167148021Y-84048691I1024450J1024450D01*
G01*
X180453700Y-76800000D02*
G75*
G03*
X178821196Y-77476209I0J-2308700D01*
G01*
X172423521Y-83873878D02*
G75*
G02*
X172001463Y-84048668I-422021J422078D01*
G01*
%TD*%
%TA.AperFunction,Conductor*%
%TO.N,GND*%
G36*
X198642539Y-50795185D02*
G01*
X198688294Y-50847989D01*
X198699500Y-50899500D01*
X198699500Y-59229411D01*
X198679815Y-59296450D01*
X198627011Y-59342205D01*
X198557853Y-59352149D01*
X198494297Y-59323124D01*
X198457569Y-59267730D01*
X198412545Y-59129163D01*
X198339215Y-58985246D01*
X198326760Y-58960801D01*
X198215690Y-58807927D01*
X198082073Y-58674310D01*
X197929199Y-58563240D01*
X197760836Y-58477454D01*
X197581118Y-58419059D01*
X197394486Y-58389500D01*
X197394481Y-58389500D01*
X197205519Y-58389500D01*
X197205514Y-58389500D01*
X197018881Y-58419059D01*
X196839163Y-58477454D01*
X196670800Y-58563240D01*
X196583579Y-58626610D01*
X196517927Y-58674310D01*
X196517925Y-58674312D01*
X196517924Y-58674312D01*
X196384312Y-58807924D01*
X196384312Y-58807925D01*
X196384310Y-58807927D01*
X196336610Y-58873579D01*
X196273240Y-58960800D01*
X196187454Y-59129163D01*
X196129059Y-59308881D01*
X196122473Y-59350469D01*
X196092544Y-59413604D01*
X196033232Y-59450535D01*
X195963369Y-59449537D01*
X195905137Y-59410927D01*
X195877527Y-59350469D01*
X195870940Y-59308881D01*
X195812545Y-59129163D01*
X195739215Y-58985246D01*
X195726760Y-58960801D01*
X195615690Y-58807927D01*
X195482073Y-58674310D01*
X195329199Y-58563240D01*
X195160836Y-58477454D01*
X194981118Y-58419059D01*
X194794486Y-58389500D01*
X194794481Y-58389500D01*
X194605519Y-58389500D01*
X194605514Y-58389500D01*
X194418881Y-58419059D01*
X194239163Y-58477454D01*
X194070800Y-58563240D01*
X193983579Y-58626610D01*
X193917927Y-58674310D01*
X193917925Y-58674312D01*
X193917924Y-58674312D01*
X193784312Y-58807924D01*
X193784312Y-58807925D01*
X193784310Y-58807927D01*
X193736610Y-58873579D01*
X193673240Y-58960800D01*
X193587452Y-59129167D01*
X193584626Y-59137866D01*
X193545184Y-59195538D01*
X193480824Y-59222732D01*
X193411978Y-59210812D01*
X193360506Y-59163564D01*
X193356213Y-59155833D01*
X193292892Y-59031557D01*
X193259230Y-58985225D01*
X193185485Y-58883724D01*
X193056276Y-58754515D01*
X192908444Y-58647109D01*
X192745631Y-58564152D01*
X192571845Y-58507685D01*
X192571843Y-58507684D01*
X192571841Y-58507684D01*
X192391370Y-58479100D01*
X192391365Y-58479100D01*
X192208635Y-58479100D01*
X192208630Y-58479100D01*
X192028158Y-58507684D01*
X191854366Y-58564153D01*
X191691555Y-58647109D01*
X191543721Y-58754517D01*
X191414517Y-58883721D01*
X191307109Y-59031555D01*
X191224153Y-59194366D01*
X191167684Y-59368158D01*
X191139100Y-59548629D01*
X191139100Y-59731370D01*
X191163679Y-59886555D01*
X191167685Y-59911845D01*
X191224152Y-60085631D01*
X191307109Y-60248444D01*
X191414515Y-60396276D01*
X191543724Y-60525485D01*
X191691556Y-60632891D01*
X191854369Y-60715848D01*
X192028155Y-60772315D01*
X192072212Y-60779293D01*
X192124197Y-60787527D01*
X192187332Y-60817456D01*
X192224263Y-60876768D01*
X192223265Y-60946631D01*
X192184655Y-61004863D01*
X192124197Y-61032473D01*
X192028158Y-61047684D01*
X192028155Y-61047685D01*
X191922318Y-61082074D01*
X191854366Y-61104153D01*
X191691555Y-61187109D01*
X191543721Y-61294517D01*
X191414517Y-61423721D01*
X191307109Y-61571555D01*
X191224153Y-61734366D01*
X191167684Y-61908158D01*
X191139100Y-62088629D01*
X191139100Y-62271370D01*
X191167684Y-62451841D01*
X191167685Y-62451845D01*
X191224152Y-62625631D01*
X191307109Y-62788444D01*
X191414515Y-62936276D01*
X191543724Y-63065485D01*
X191565133Y-63081040D01*
X191607798Y-63136369D01*
X191613777Y-63205983D01*
X191581171Y-63267778D01*
X191579928Y-63269038D01*
X191128619Y-63720347D01*
X191128616Y-63720351D01*
X191124990Y-63723977D01*
X191124983Y-63723982D01*
X191103442Y-63745523D01*
X191103408Y-63745541D01*
X191016818Y-63832135D01*
X191016815Y-63832138D01*
X191014142Y-63834812D01*
X191014119Y-63834845D01*
X191013179Y-63835786D01*
X191011193Y-63839225D01*
X191007367Y-63844950D01*
X191007340Y-63844988D01*
X190927833Y-63963990D01*
X190927830Y-63963997D01*
X190868387Y-64107531D01*
X190868386Y-64107535D01*
X190840494Y-64247819D01*
X190840487Y-64247858D01*
X190839183Y-64254422D01*
X190838100Y-64258465D01*
X190838100Y-64259870D01*
X190838092Y-64259911D01*
X190838092Y-64263400D01*
X190838092Y-64263403D01*
X190838100Y-64337452D01*
X190838100Y-68418544D01*
X190838101Y-68418557D01*
X190838101Y-68445808D01*
X190864143Y-68676942D01*
X190864143Y-68676943D01*
X190915904Y-68903727D01*
X190915908Y-68903739D01*
X190992732Y-69123287D01*
X191093655Y-69332856D01*
X191153415Y-69427964D01*
X191172415Y-69495201D01*
X191167857Y-69523180D01*
X191168823Y-69523412D01*
X191167685Y-69528151D01*
X191139100Y-69708629D01*
X191139100Y-69891370D01*
X191167684Y-70071841D01*
X191167685Y-70071845D01*
X191224152Y-70245631D01*
X191307109Y-70408444D01*
X191414515Y-70556276D01*
X191543724Y-70685485D01*
X191691556Y-70792891D01*
X191854369Y-70875848D01*
X192028155Y-70932315D01*
X192072212Y-70939293D01*
X192124197Y-70947527D01*
X192187332Y-70977456D01*
X192224263Y-71036768D01*
X192223265Y-71106631D01*
X192184655Y-71164863D01*
X192124197Y-71192473D01*
X192028158Y-71207684D01*
X191854366Y-71264153D01*
X191691555Y-71347109D01*
X191543721Y-71454517D01*
X191414517Y-71583721D01*
X191307109Y-71731555D01*
X191224153Y-71894366D01*
X191224152Y-71894368D01*
X191224152Y-71894369D01*
X191217836Y-71913807D01*
X191167684Y-72068158D01*
X191139100Y-72248629D01*
X191139100Y-72431370D01*
X191164598Y-72592356D01*
X191167685Y-72611845D01*
X191224152Y-72785631D01*
X191307109Y-72948444D01*
X191414515Y-73096276D01*
X191543724Y-73225485D01*
X191691556Y-73332891D01*
X191854369Y-73415848D01*
X192028155Y-73472315D01*
X192095835Y-73483034D01*
X192208630Y-73500900D01*
X192208635Y-73500900D01*
X192391370Y-73500900D01*
X192491631Y-73485019D01*
X192571845Y-73472315D01*
X192745631Y-73415848D01*
X192908444Y-73332891D01*
X193056276Y-73225485D01*
X193185485Y-73096276D01*
X193292891Y-72948444D01*
X193375848Y-72785631D01*
X193432315Y-72611845D01*
X193453210Y-72479920D01*
X193460900Y-72431370D01*
X193460900Y-72248629D01*
X193432315Y-72068158D01*
X193432315Y-72068155D01*
X193375848Y-71894369D01*
X193292891Y-71731556D01*
X193185485Y-71583724D01*
X193056276Y-71454515D01*
X192908444Y-71347109D01*
X192745631Y-71264152D01*
X192571845Y-71207685D01*
X192571843Y-71207684D01*
X192571841Y-71207684D01*
X192475802Y-71192473D01*
X192412667Y-71162544D01*
X192375736Y-71103232D01*
X192376734Y-71033370D01*
X192415344Y-70975137D01*
X192475802Y-70947527D01*
X192513101Y-70941619D01*
X192571845Y-70932315D01*
X192745631Y-70875848D01*
X192908444Y-70792891D01*
X193056276Y-70685485D01*
X193185485Y-70556276D01*
X193292891Y-70408444D01*
X193375848Y-70245631D01*
X193404384Y-70157804D01*
X193443820Y-70100132D01*
X193508179Y-70072933D01*
X193577025Y-70084847D01*
X193628501Y-70132091D01*
X193632798Y-70139830D01*
X193673236Y-70219194D01*
X193698099Y-70253415D01*
X193784310Y-70372073D01*
X193917927Y-70505690D01*
X194070801Y-70616760D01*
X194145271Y-70654704D01*
X194239163Y-70702545D01*
X194239165Y-70702545D01*
X194239168Y-70702547D01*
X194324558Y-70730292D01*
X194418881Y-70760940D01*
X194605514Y-70790500D01*
X194605519Y-70790500D01*
X194794486Y-70790500D01*
X194981118Y-70760940D01*
X194991262Y-70757644D01*
X195160832Y-70702547D01*
X195329199Y-70616760D01*
X195482073Y-70505690D01*
X195615690Y-70372073D01*
X195726760Y-70219199D01*
X195812547Y-70050832D01*
X195870940Y-69871118D01*
X195877527Y-69829530D01*
X195907456Y-69766395D01*
X195966768Y-69729464D01*
X196036630Y-69730462D01*
X196094863Y-69769072D01*
X196122473Y-69829530D01*
X196129059Y-69871118D01*
X196187454Y-70050836D01*
X196241959Y-70157807D01*
X196273240Y-70219199D01*
X196384310Y-70372073D01*
X196517927Y-70505690D01*
X196648386Y-70600474D01*
X196691051Y-70655803D01*
X196699500Y-70700791D01*
X196699500Y-72768812D01*
X196699382Y-72774221D01*
X196685130Y-73100612D01*
X196684187Y-73111389D01*
X196641897Y-73432603D01*
X196640019Y-73443256D01*
X196569891Y-73759576D01*
X196567091Y-73770025D01*
X196469664Y-74079021D01*
X196465964Y-74089186D01*
X196341976Y-74388517D01*
X196337404Y-74398321D01*
X196187804Y-74685697D01*
X196182396Y-74695065D01*
X196008313Y-74968321D01*
X196002108Y-74977183D01*
X195804871Y-75234226D01*
X195797918Y-75242512D01*
X195577060Y-75483537D01*
X195573318Y-75487445D01*
X195060830Y-75999933D01*
X194999507Y-76033418D01*
X194953751Y-76034725D01*
X194794486Y-76009500D01*
X194794481Y-76009500D01*
X194605519Y-76009500D01*
X194605514Y-76009500D01*
X194418881Y-76039059D01*
X194239163Y-76097454D01*
X194070800Y-76183240D01*
X193983579Y-76246610D01*
X193917927Y-76294310D01*
X193917925Y-76294312D01*
X193917924Y-76294312D01*
X193784312Y-76427924D01*
X193784312Y-76427925D01*
X193784310Y-76427927D01*
X193749889Y-76475303D01*
X193673240Y-76580800D01*
X193587454Y-76749163D01*
X193529059Y-76928881D01*
X193499500Y-77115513D01*
X193499500Y-77304486D01*
X193529059Y-77491118D01*
X193587454Y-77670836D01*
X193673240Y-77839199D01*
X193784310Y-77992073D01*
X193917927Y-78125690D01*
X194070801Y-78236760D01*
X194150347Y-78277290D01*
X194239163Y-78322545D01*
X194239165Y-78322545D01*
X194239168Y-78322547D01*
X194329624Y-78351938D01*
X194418881Y-78380940D01*
X194605514Y-78410500D01*
X194605519Y-78410500D01*
X194794485Y-78410500D01*
X194861553Y-78399876D01*
X194948668Y-78386079D01*
X194982249Y-78390418D01*
X195015926Y-78394161D01*
X195016818Y-78394885D01*
X195017960Y-78395033D01*
X195043885Y-78416856D01*
X195070173Y-78438196D01*
X195070532Y-78439288D01*
X195071412Y-78440029D01*
X195081417Y-78472388D01*
X195092001Y-78504569D01*
X195091712Y-78505682D01*
X195092052Y-78506780D01*
X195082975Y-78539412D01*
X195074480Y-78572206D01*
X195073526Y-78573380D01*
X195073328Y-78574094D01*
X195052236Y-78599608D01*
X194894624Y-78745303D01*
X194887221Y-78751626D01*
X194596358Y-78980924D01*
X194588481Y-78986647D01*
X194280531Y-79192412D01*
X194272229Y-79197499D01*
X193949073Y-79378476D01*
X193940398Y-79382897D01*
X193604048Y-79537957D01*
X193595053Y-79541683D01*
X193247561Y-79669881D01*
X193238301Y-79672889D01*
X192881844Y-79773422D01*
X192872377Y-79775695D01*
X192509115Y-79847954D01*
X192499498Y-79849477D01*
X192131695Y-79893011D01*
X192121989Y-79893775D01*
X191749729Y-79908404D01*
X191744860Y-79908500D01*
X188334679Y-79908500D01*
X188327074Y-79908499D01*
X188327072Y-79908499D01*
X188311681Y-79908499D01*
X188305528Y-79908499D01*
X188305487Y-79908487D01*
X188119673Y-79908489D01*
X187852405Y-79938609D01*
X187590192Y-79998461D01*
X187336321Y-80087296D01*
X187336319Y-80087297D01*
X187093996Y-80203996D01*
X186883851Y-80336040D01*
X186816614Y-80355040D01*
X186779562Y-80348977D01*
X186752829Y-80340291D01*
X186558422Y-80309500D01*
X186558417Y-80309500D01*
X186361583Y-80309500D01*
X186361578Y-80309500D01*
X186167173Y-80340290D01*
X185979970Y-80401117D01*
X185804594Y-80490476D01*
X185721385Y-80550932D01*
X185645354Y-80606172D01*
X185645352Y-80606174D01*
X185645351Y-80606174D01*
X185506174Y-80745351D01*
X185506174Y-80745352D01*
X185506172Y-80745354D01*
X185456485Y-80813741D01*
X185390476Y-80904594D01*
X185301117Y-81079970D01*
X185240290Y-81267173D01*
X185209500Y-81461577D01*
X185209500Y-81658422D01*
X185240290Y-81852826D01*
X185301117Y-82040029D01*
X185379954Y-82194754D01*
X185390476Y-82215405D01*
X185506172Y-82374646D01*
X185645354Y-82513828D01*
X185804595Y-82629524D01*
X185887455Y-82671743D01*
X185979970Y-82718882D01*
X185979972Y-82718882D01*
X185979975Y-82718884D01*
X186033985Y-82736433D01*
X186167173Y-82779709D01*
X186361578Y-82810500D01*
X186361583Y-82810500D01*
X186558422Y-82810500D01*
X186752826Y-82779709D01*
X186940025Y-82718884D01*
X187115405Y-82629524D01*
X187274646Y-82513828D01*
X187413828Y-82374646D01*
X187529524Y-82215405D01*
X187575173Y-82125813D01*
X187619515Y-82038787D01*
X187667489Y-81987990D01*
X187735310Y-81971195D01*
X187801445Y-81993732D01*
X187840485Y-82038787D01*
X187876007Y-82108504D01*
X187930476Y-82215405D01*
X187975818Y-82277812D01*
X187999298Y-82343618D01*
X187999500Y-82350697D01*
X187999500Y-84751501D01*
X187979815Y-84818540D01*
X187927011Y-84864295D01*
X187857853Y-84874239D01*
X187794297Y-84845214D01*
X187776234Y-84825813D01*
X187756175Y-84799019D01*
X187732546Y-84767454D01*
X187732544Y-84767453D01*
X187732544Y-84767452D01*
X187617335Y-84681206D01*
X187617328Y-84681202D01*
X187482482Y-84630908D01*
X187482483Y-84630908D01*
X187422883Y-84624501D01*
X187422881Y-84624500D01*
X187422873Y-84624500D01*
X187422864Y-84624500D01*
X185977129Y-84624500D01*
X185977123Y-84624501D01*
X185917516Y-84630908D01*
X185782671Y-84681202D01*
X185782664Y-84681206D01*
X185667455Y-84767452D01*
X185667452Y-84767455D01*
X185581206Y-84882664D01*
X185581202Y-84882671D01*
X185530908Y-85017517D01*
X185524501Y-85077116D01*
X185524501Y-85077123D01*
X185524500Y-85077135D01*
X185524500Y-86522870D01*
X185524501Y-86522876D01*
X185530908Y-86582483D01*
X185581202Y-86717328D01*
X185581206Y-86717335D01*
X185667452Y-86832544D01*
X185667453Y-86832544D01*
X185667454Y-86832546D01*
X185718740Y-86870939D01*
X185752539Y-86896241D01*
X185794409Y-86952175D01*
X185799393Y-87021867D01*
X185778545Y-87068392D01*
X185694624Y-87183900D01*
X185610620Y-87348764D01*
X185610619Y-87348767D01*
X185553445Y-87524734D01*
X185524500Y-87707486D01*
X185524500Y-87892513D01*
X185553445Y-88075265D01*
X185610619Y-88251232D01*
X185610620Y-88251235D01*
X185681032Y-88389424D01*
X185694622Y-88416096D01*
X185803379Y-88565787D01*
X185934213Y-88696621D01*
X186083904Y-88805378D01*
X186164763Y-88846577D01*
X186248764Y-88889379D01*
X186248767Y-88889380D01*
X186336750Y-88917967D01*
X186424736Y-88946555D01*
X186607486Y-88975500D01*
X186607487Y-88975500D01*
X186792513Y-88975500D01*
X186792514Y-88975500D01*
X186975264Y-88946555D01*
X187151235Y-88889379D01*
X187299145Y-88814015D01*
X187355440Y-88800500D01*
X187753136Y-88800500D01*
X187784160Y-88794328D01*
X187849782Y-88781275D01*
X187946430Y-88762051D01*
X187999759Y-88739961D01*
X188128508Y-88686632D01*
X188292376Y-88577139D01*
X188431733Y-88437782D01*
X188431733Y-88437780D01*
X188441941Y-88427573D01*
X188441942Y-88427570D01*
X189777139Y-87092376D01*
X189855233Y-86975500D01*
X189886632Y-86928508D01*
X189930811Y-86821849D01*
X189962051Y-86746430D01*
X190000500Y-86553135D01*
X190000500Y-86356054D01*
X190000500Y-82350697D01*
X190020185Y-82283658D01*
X190024170Y-82277827D01*
X190069524Y-82215405D01*
X190158884Y-82040025D01*
X190219709Y-81852826D01*
X190227188Y-81805606D01*
X190237700Y-81739240D01*
X190250500Y-81658422D01*
X190250500Y-81461577D01*
X190219709Y-81267175D01*
X190218574Y-81262446D01*
X190222065Y-81192664D01*
X190262730Y-81135846D01*
X190327656Y-81110034D01*
X190339148Y-81109500D01*
X190756000Y-81109500D01*
X190823039Y-81129185D01*
X190868794Y-81181989D01*
X190880000Y-81233500D01*
X190880000Y-81310000D01*
X191514314Y-81310000D01*
X191509920Y-81314394D01*
X191457259Y-81405606D01*
X191430000Y-81507339D01*
X191430000Y-81612661D01*
X191457259Y-81714394D01*
X191509920Y-81805606D01*
X191514314Y-81810000D01*
X190880000Y-81810000D01*
X190880000Y-82329702D01*
X190891602Y-82388033D01*
X190891603Y-82388034D01*
X190935808Y-82454191D01*
X191001965Y-82498396D01*
X191001966Y-82498397D01*
X191060297Y-82509999D01*
X191060301Y-82510000D01*
X191580000Y-82510000D01*
X191580000Y-81875686D01*
X191584394Y-81880080D01*
X191675606Y-81932741D01*
X191777339Y-81960000D01*
X191882661Y-81960000D01*
X191984394Y-81932741D01*
X192075606Y-81880080D01*
X192080000Y-81875686D01*
X192080000Y-82510000D01*
X192599699Y-82510000D01*
X192599702Y-82509999D01*
X192658033Y-82498397D01*
X192658034Y-82498396D01*
X192724191Y-82454191D01*
X192768396Y-82388034D01*
X192768397Y-82388033D01*
X192779999Y-82329702D01*
X192780000Y-82329699D01*
X192780000Y-81810000D01*
X192145686Y-81810000D01*
X192150080Y-81805606D01*
X192202741Y-81714394D01*
X192230000Y-81612661D01*
X192230000Y-81507339D01*
X192202741Y-81405606D01*
X192150080Y-81314394D01*
X192145686Y-81310000D01*
X192780000Y-81310000D01*
X192780000Y-81126031D01*
X192788643Y-81096594D01*
X192795167Y-81066605D01*
X192798398Y-81063373D01*
X192799685Y-81058992D01*
X192822865Y-81038906D01*
X192844572Y-81017199D01*
X192850444Y-81015008D01*
X192852489Y-81013237D01*
X192877639Y-81004865D01*
X193051717Y-80966996D01*
X193121407Y-80971980D01*
X193177340Y-81013851D01*
X193201758Y-81079315D01*
X193196005Y-81126480D01*
X193150291Y-81267169D01*
X193150291Y-81267172D01*
X193119500Y-81461577D01*
X193119500Y-81658422D01*
X193150290Y-81852826D01*
X193211117Y-82040029D01*
X193289954Y-82194754D01*
X193300476Y-82215405D01*
X193416172Y-82374646D01*
X193555354Y-82513828D01*
X193714595Y-82629524D01*
X193797455Y-82671743D01*
X193889970Y-82718882D01*
X193889972Y-82718882D01*
X193889975Y-82718884D01*
X193943985Y-82736433D01*
X194077173Y-82779709D01*
X194271578Y-82810500D01*
X194271583Y-82810500D01*
X194468422Y-82810500D01*
X194662826Y-82779709D01*
X194850025Y-82718884D01*
X195025405Y-82629524D01*
X195184646Y-82513828D01*
X195323828Y-82374646D01*
X195439524Y-82215405D01*
X195485173Y-82125813D01*
X195529515Y-82038787D01*
X195577489Y-81987990D01*
X195645310Y-81971195D01*
X195711445Y-81993732D01*
X195750485Y-82038787D01*
X195786007Y-82108504D01*
X195840476Y-82215405D01*
X195885818Y-82277812D01*
X195909298Y-82343618D01*
X195909500Y-82350697D01*
X195909500Y-84624216D01*
X195889815Y-84691255D01*
X195873181Y-84711897D01*
X194487180Y-86097898D01*
X194425857Y-86131383D01*
X194356165Y-86126399D01*
X194300232Y-86084527D01*
X194275815Y-86019063D01*
X194275499Y-86010217D01*
X194275499Y-85077129D01*
X194275498Y-85077123D01*
X194275497Y-85077116D01*
X194269091Y-85017517D01*
X194218796Y-84882669D01*
X194218795Y-84882668D01*
X194218793Y-84882664D01*
X194132547Y-84767455D01*
X194132544Y-84767452D01*
X194017335Y-84681206D01*
X194017328Y-84681202D01*
X193882482Y-84630908D01*
X193882483Y-84630908D01*
X193822883Y-84624501D01*
X193822881Y-84624500D01*
X193822873Y-84624500D01*
X193822864Y-84624500D01*
X192377129Y-84624500D01*
X192377123Y-84624501D01*
X192317516Y-84630908D01*
X192182671Y-84681202D01*
X192182664Y-84681206D01*
X192067455Y-84767452D01*
X192067452Y-84767455D01*
X191981206Y-84882664D01*
X191981202Y-84882671D01*
X191930908Y-85017517D01*
X191924501Y-85077116D01*
X191924501Y-85077123D01*
X191924500Y-85077135D01*
X191924500Y-86522870D01*
X191924501Y-86522876D01*
X191930908Y-86582483D01*
X191981202Y-86717328D01*
X191981206Y-86717335D01*
X192067452Y-86832544D01*
X192067453Y-86832544D01*
X192067454Y-86832546D01*
X192118740Y-86870939D01*
X192152539Y-86896241D01*
X192194409Y-86952175D01*
X192199393Y-87021867D01*
X192178545Y-87068392D01*
X192094624Y-87183900D01*
X192010620Y-87348764D01*
X192010619Y-87348767D01*
X191953445Y-87524734D01*
X191924500Y-87707486D01*
X191924500Y-87892513D01*
X191953445Y-88075265D01*
X192010619Y-88251232D01*
X192010620Y-88251235D01*
X192081032Y-88389424D01*
X192094622Y-88416096D01*
X192203379Y-88565787D01*
X192334213Y-88696621D01*
X192483904Y-88805378D01*
X192564763Y-88846577D01*
X192648764Y-88889379D01*
X192648767Y-88889380D01*
X192736750Y-88917967D01*
X192824736Y-88946555D01*
X193007486Y-88975500D01*
X193007487Y-88975500D01*
X193192513Y-88975500D01*
X193192514Y-88975500D01*
X193375264Y-88946555D01*
X193551235Y-88889379D01*
X193699145Y-88814015D01*
X193755440Y-88800500D01*
X194298542Y-88800500D01*
X194329566Y-88794328D01*
X194395188Y-88781275D01*
X194491836Y-88762051D01*
X194545165Y-88739961D01*
X194673914Y-88686632D01*
X194837782Y-88577139D01*
X194977139Y-88437782D01*
X194977139Y-88437780D01*
X194987347Y-88427573D01*
X194987348Y-88427570D01*
X197687140Y-85727781D01*
X197723132Y-85673914D01*
X197796632Y-85563914D01*
X197872051Y-85381835D01*
X197910500Y-85188541D01*
X197910500Y-82350697D01*
X197930185Y-82283658D01*
X197934170Y-82277827D01*
X197979524Y-82215405D01*
X198068884Y-82040025D01*
X198129709Y-81852826D01*
X198137188Y-81805606D01*
X198160500Y-81658422D01*
X198160500Y-81461577D01*
X198129709Y-81267173D01*
X198096045Y-81163567D01*
X198068884Y-81079975D01*
X198068882Y-81079972D01*
X198068882Y-81079970D01*
X197993450Y-80931927D01*
X197979524Y-80904595D01*
X197863828Y-80745354D01*
X197724646Y-80606172D01*
X197565405Y-80490476D01*
X197543420Y-80479274D01*
X197390029Y-80401117D01*
X197202826Y-80340290D01*
X197008422Y-80309500D01*
X197008417Y-80309500D01*
X196811583Y-80309500D01*
X196811580Y-80309500D01*
X196782331Y-80314132D01*
X196713038Y-80305175D01*
X196659587Y-80260178D01*
X196638949Y-80193426D01*
X196657675Y-80126113D01*
X196675251Y-80103981D01*
X198375733Y-78403499D01*
X198375738Y-78403497D01*
X198390982Y-78388251D01*
X198390999Y-78388242D01*
X198427298Y-78351941D01*
X198427299Y-78351942D01*
X198487817Y-78291420D01*
X198549139Y-78257934D01*
X198618831Y-78262917D01*
X198674765Y-78304787D01*
X198699184Y-78370251D01*
X198699500Y-78379100D01*
X198699500Y-90650500D01*
X198679815Y-90717539D01*
X198627011Y-90763294D01*
X198575500Y-90774500D01*
X171655232Y-90774500D01*
X171588193Y-90754815D01*
X171542438Y-90702011D01*
X171532494Y-90632853D01*
X171561519Y-90569297D01*
X171620297Y-90531523D01*
X171635834Y-90528027D01*
X171692662Y-90519026D01*
X171879757Y-90458235D01*
X172055038Y-90368925D01*
X172214190Y-90253294D01*
X172353294Y-90114190D01*
X172468925Y-89955038D01*
X172558235Y-89779757D01*
X172619026Y-89592662D01*
X172649800Y-89398366D01*
X172649800Y-89201633D01*
X172619026Y-89007337D01*
X172558233Y-88820238D01*
X172511120Y-88727774D01*
X172468925Y-88644962D01*
X172353294Y-88485810D01*
X172214190Y-88346706D01*
X172193814Y-88331902D01*
X174648700Y-88331902D01*
X174648700Y-88568097D01*
X174685646Y-88801368D01*
X174758633Y-89025996D01*
X174865857Y-89236433D01*
X175004683Y-89427510D01*
X175171690Y-89594517D01*
X175362767Y-89733343D01*
X175462191Y-89784002D01*
X175573203Y-89840566D01*
X175573205Y-89840566D01*
X175573208Y-89840568D01*
X175693612Y-89879689D01*
X175797831Y-89913553D01*
X176031103Y-89950500D01*
X176031108Y-89950500D01*
X176267297Y-89950500D01*
X176500568Y-89913553D01*
X176725192Y-89840568D01*
X176935633Y-89733343D01*
X177126710Y-89594517D01*
X177293717Y-89427510D01*
X177432543Y-89236433D01*
X177539768Y-89025992D01*
X177612753Y-88801368D01*
X177622932Y-88737099D01*
X177649700Y-88568097D01*
X177649700Y-88331902D01*
X177612753Y-88098631D01*
X177578889Y-87994412D01*
X177539768Y-87874008D01*
X177539766Y-87874005D01*
X177539766Y-87874003D01*
X177432542Y-87663566D01*
X177415972Y-87640759D01*
X177293717Y-87472490D01*
X177126710Y-87305483D01*
X176935633Y-87166657D01*
X176725196Y-87059433D01*
X176500568Y-86986446D01*
X176267297Y-86949500D01*
X176267292Y-86949500D01*
X176031108Y-86949500D01*
X176031103Y-86949500D01*
X175797831Y-86986446D01*
X175573203Y-87059433D01*
X175362766Y-87166657D01*
X175253750Y-87245862D01*
X175171690Y-87305483D01*
X175171688Y-87305485D01*
X175171687Y-87305485D01*
X175004685Y-87472487D01*
X175004685Y-87472488D01*
X175004683Y-87472490D01*
X174966724Y-87524736D01*
X174865857Y-87663566D01*
X174758633Y-87874003D01*
X174685646Y-88098631D01*
X174648700Y-88331902D01*
X172193814Y-88331902D01*
X172128881Y-88284725D01*
X172125245Y-88281630D01*
X172108608Y-88256235D01*
X172090071Y-88232195D01*
X172089650Y-88227297D01*
X172086956Y-88223185D01*
X172086689Y-88192826D01*
X172084092Y-88162582D01*
X172086386Y-88158234D01*
X172086343Y-88153318D01*
X172102531Y-88127635D01*
X172116698Y-88100787D01*
X172122772Y-88095523D01*
X172123600Y-88094211D01*
X172125092Y-88093513D01*
X172132739Y-88086888D01*
X172148002Y-88075799D01*
X172275798Y-87948003D01*
X172275800Y-87947999D01*
X172275803Y-87947997D01*
X172329562Y-87874003D01*
X172382028Y-87801789D01*
X172464078Y-87640757D01*
X172519927Y-87468872D01*
X172548200Y-87290366D01*
X172548200Y-87109636D01*
X172519927Y-86931130D01*
X172464078Y-86759245D01*
X172382028Y-86598213D01*
X172327293Y-86522876D01*
X172275803Y-86452004D01*
X172235980Y-86412181D01*
X172202495Y-86350858D01*
X172207479Y-86281166D01*
X172249351Y-86225233D01*
X172314815Y-86200816D01*
X172323661Y-86200500D01*
X176933418Y-86200500D01*
X177000457Y-86220185D01*
X177021099Y-86236819D01*
X179112381Y-88328101D01*
X179145866Y-88389424D01*
X179148700Y-88415782D01*
X179148700Y-88568097D01*
X179185646Y-88801368D01*
X179258633Y-89025996D01*
X179365857Y-89236433D01*
X179504683Y-89427510D01*
X179671690Y-89594517D01*
X179862767Y-89733343D01*
X179962191Y-89784002D01*
X180073203Y-89840566D01*
X180073205Y-89840566D01*
X180073208Y-89840568D01*
X180193612Y-89879689D01*
X180297831Y-89913553D01*
X180531103Y-89950500D01*
X180531108Y-89950500D01*
X180767297Y-89950500D01*
X181000568Y-89913553D01*
X181225192Y-89840568D01*
X181435633Y-89733343D01*
X181626710Y-89594517D01*
X181793717Y-89427510D01*
X181932543Y-89236433D01*
X182039768Y-89025992D01*
X182112753Y-88801368D01*
X182122932Y-88737099D01*
X182149700Y-88568097D01*
X182149700Y-88331902D01*
X182112753Y-88098631D01*
X182078889Y-87994412D01*
X182039768Y-87874008D01*
X182039766Y-87874005D01*
X182039766Y-87874003D01*
X181932542Y-87663566D01*
X181915972Y-87640759D01*
X181793717Y-87472490D01*
X181626710Y-87305483D01*
X181435633Y-87166657D01*
X181225196Y-87059433D01*
X181000568Y-86986446D01*
X180767297Y-86949500D01*
X180767292Y-86949500D01*
X180614982Y-86949500D01*
X180547943Y-86929815D01*
X180527301Y-86913181D01*
X178901801Y-85287681D01*
X178868316Y-85226358D01*
X178873300Y-85156666D01*
X178901801Y-85112319D01*
X180527301Y-83486819D01*
X180588624Y-83453334D01*
X180614982Y-83450500D01*
X180767297Y-83450500D01*
X181000568Y-83413553D01*
X181225192Y-83340568D01*
X181435633Y-83233343D01*
X181626710Y-83094517D01*
X181793717Y-82927510D01*
X181932543Y-82736433D01*
X182039768Y-82525992D01*
X182112753Y-82301368D01*
X182126368Y-82215405D01*
X182149700Y-82068097D01*
X182149700Y-81831903D01*
X182141168Y-81778037D01*
X182141168Y-81778036D01*
X182112753Y-81598631D01*
X182049056Y-81402593D01*
X182039768Y-81374008D01*
X182039766Y-81374005D01*
X182039766Y-81374003D01*
X181971283Y-81239599D01*
X181932543Y-81163567D01*
X181793717Y-80972490D01*
X181626710Y-80805483D01*
X181605808Y-80790297D01*
X182970000Y-80790297D01*
X182970000Y-81310000D01*
X183604314Y-81310000D01*
X183599920Y-81314394D01*
X183547259Y-81405606D01*
X183520000Y-81507339D01*
X183520000Y-81612661D01*
X183547259Y-81714394D01*
X183599920Y-81805606D01*
X183604314Y-81810000D01*
X182970000Y-81810000D01*
X182970000Y-82329702D01*
X182981602Y-82388033D01*
X182981603Y-82388034D01*
X183025808Y-82454191D01*
X183091965Y-82498396D01*
X183091966Y-82498397D01*
X183150297Y-82509999D01*
X183150301Y-82510000D01*
X183670000Y-82510000D01*
X183670000Y-81875686D01*
X183674394Y-81880080D01*
X183765606Y-81932741D01*
X183867339Y-81960000D01*
X183972661Y-81960000D01*
X184074394Y-81932741D01*
X184165606Y-81880080D01*
X184170000Y-81875686D01*
X184170000Y-82510000D01*
X184689699Y-82510000D01*
X184689702Y-82509999D01*
X184748033Y-82498397D01*
X184748034Y-82498396D01*
X184814191Y-82454191D01*
X184858396Y-82388034D01*
X184858397Y-82388033D01*
X184869999Y-82329702D01*
X184870000Y-82329699D01*
X184870000Y-81810000D01*
X184235686Y-81810000D01*
X184240080Y-81805606D01*
X184292741Y-81714394D01*
X184320000Y-81612661D01*
X184320000Y-81507339D01*
X184292741Y-81405606D01*
X184240080Y-81314394D01*
X184235686Y-81310000D01*
X184870000Y-81310000D01*
X184870000Y-80790301D01*
X184869999Y-80790297D01*
X184858397Y-80731966D01*
X184858396Y-80731965D01*
X184814191Y-80665808D01*
X184748034Y-80621603D01*
X184748033Y-80621602D01*
X184689702Y-80610000D01*
X184170000Y-80610000D01*
X184170000Y-81244314D01*
X184165606Y-81239920D01*
X184074394Y-81187259D01*
X183972661Y-81160000D01*
X183867339Y-81160000D01*
X183765606Y-81187259D01*
X183674394Y-81239920D01*
X183670000Y-81244314D01*
X183670000Y-80610000D01*
X183150297Y-80610000D01*
X183091966Y-80621602D01*
X183091965Y-80621603D01*
X183025808Y-80665808D01*
X182981603Y-80731965D01*
X182981602Y-80731966D01*
X182970000Y-80790297D01*
X181605808Y-80790297D01*
X181435633Y-80666657D01*
X181433967Y-80665808D01*
X181225196Y-80559433D01*
X181084614Y-80513754D01*
X181084573Y-80513742D01*
X181000568Y-80486447D01*
X180980942Y-80483338D01*
X180980937Y-80483337D01*
X180767297Y-80449500D01*
X180767292Y-80449500D01*
X180531108Y-80449500D01*
X180531103Y-80449500D01*
X180297831Y-80486446D01*
X180073203Y-80559433D01*
X179862766Y-80666657D01*
X179772877Y-80731966D01*
X179671690Y-80805483D01*
X179671688Y-80805485D01*
X179671687Y-80805485D01*
X179504685Y-80972487D01*
X179504685Y-80972488D01*
X179504683Y-80972490D01*
X179473792Y-81015008D01*
X179365857Y-81163566D01*
X179258633Y-81374003D01*
X179185646Y-81598631D01*
X179148700Y-81831902D01*
X179148700Y-81984218D01*
X179129015Y-82051257D01*
X179112381Y-82071899D01*
X177021099Y-84163181D01*
X176959776Y-84196666D01*
X176933418Y-84199500D01*
X173246496Y-84199500D01*
X173179457Y-84179815D01*
X173133702Y-84127011D01*
X173123758Y-84057853D01*
X173152783Y-83994297D01*
X173158815Y-83987819D01*
X173514226Y-83632408D01*
X174591373Y-82555259D01*
X174652694Y-82521776D01*
X174722385Y-82526760D01*
X174778319Y-82568632D01*
X174789537Y-82586647D01*
X174811384Y-82629524D01*
X174865857Y-82736433D01*
X175004683Y-82927510D01*
X175171690Y-83094517D01*
X175362767Y-83233343D01*
X175462191Y-83284002D01*
X175573203Y-83340566D01*
X175573205Y-83340566D01*
X175573208Y-83340568D01*
X175693612Y-83379689D01*
X175797831Y-83413553D01*
X176031103Y-83450500D01*
X176031108Y-83450500D01*
X176267297Y-83450500D01*
X176500568Y-83413553D01*
X176725192Y-83340568D01*
X176935633Y-83233343D01*
X177126710Y-83094517D01*
X177293717Y-82927510D01*
X177432543Y-82736433D01*
X177539768Y-82525992D01*
X177612753Y-82301368D01*
X177626368Y-82215405D01*
X177649700Y-82068097D01*
X177649700Y-81831902D01*
X177612753Y-81598635D01*
X177612753Y-81598632D01*
X177571747Y-81472433D01*
X177569753Y-81402593D01*
X177601996Y-81346437D01*
X178569019Y-80379415D01*
X178574037Y-80374670D01*
X178759408Y-80209012D01*
X178770262Y-80200357D01*
X178970148Y-80058531D01*
X178981911Y-80051140D01*
X179196425Y-79932583D01*
X179208932Y-79926560D01*
X179435354Y-79832774D01*
X179448474Y-79828182D01*
X179683982Y-79760333D01*
X179697529Y-79757241D01*
X179939154Y-79716188D01*
X179952949Y-79714634D01*
X180124049Y-79705025D01*
X180201168Y-79700695D01*
X180208120Y-79700500D01*
X180277514Y-79700500D01*
X180299208Y-79700500D01*
X180366247Y-79720185D01*
X180399524Y-79751612D01*
X180494310Y-79882073D01*
X180627927Y-80015690D01*
X180780801Y-80126760D01*
X180860347Y-80167290D01*
X180949163Y-80212545D01*
X180949165Y-80212545D01*
X180949168Y-80212547D01*
X181128882Y-80270940D01*
X181243232Y-80289051D01*
X181315515Y-80300500D01*
X181315519Y-80300500D01*
X181504486Y-80300500D01*
X181691118Y-80270940D01*
X181694408Y-80269871D01*
X181870832Y-80212547D01*
X182039199Y-80126760D01*
X182192073Y-80015690D01*
X182325690Y-79882073D01*
X182436760Y-79729199D01*
X182522547Y-79560832D01*
X182580940Y-79381118D01*
X182591427Y-79314905D01*
X182610500Y-79194486D01*
X182610500Y-79005513D01*
X182580940Y-78818881D01*
X182539700Y-78691959D01*
X182522547Y-78639168D01*
X182522545Y-78639165D01*
X182522545Y-78639163D01*
X182455092Y-78506780D01*
X182436760Y-78470801D01*
X182325690Y-78317927D01*
X182192073Y-78184310D01*
X182101000Y-78118141D01*
X182039197Y-78073238D01*
X182014166Y-78060485D01*
X181963370Y-78012511D01*
X181946574Y-77944691D01*
X181969111Y-77878555D01*
X182014166Y-77839515D01*
X182039197Y-77826761D01*
X182039196Y-77826761D01*
X182039199Y-77826760D01*
X182192073Y-77715690D01*
X182325690Y-77582073D01*
X182436760Y-77429199D01*
X182522547Y-77260832D01*
X182580940Y-77081118D01*
X182591427Y-77014905D01*
X182610500Y-76894486D01*
X182610500Y-76705513D01*
X182580940Y-76518881D01*
X182533764Y-76373691D01*
X182522547Y-76339168D01*
X182522545Y-76339165D01*
X182522545Y-76339163D01*
X182457298Y-76211109D01*
X182436760Y-76170801D01*
X182325690Y-76017927D01*
X182192073Y-75884310D01*
X182039199Y-75773240D01*
X182017567Y-75762218D01*
X181870836Y-75687454D01*
X181691118Y-75629059D01*
X181504486Y-75599500D01*
X181504481Y-75599500D01*
X181350891Y-75599500D01*
X181283852Y-75579815D01*
X181238097Y-75527011D01*
X181228153Y-75457853D01*
X181257178Y-75394297D01*
X181263210Y-75387819D01*
X182262512Y-74388517D01*
X183590961Y-73060067D01*
X183652282Y-73026584D01*
X183721974Y-73031568D01*
X183777907Y-73073440D01*
X183778956Y-73074862D01*
X183791185Y-73091693D01*
X183794515Y-73096276D01*
X183923724Y-73225485D01*
X184071556Y-73332891D01*
X184234369Y-73415848D01*
X184408155Y-73472315D01*
X184475835Y-73483034D01*
X184588630Y-73500900D01*
X184588635Y-73500900D01*
X184771370Y-73500900D01*
X184871631Y-73485019D01*
X184951845Y-73472315D01*
X185125631Y-73415848D01*
X185288444Y-73332891D01*
X185436276Y-73225485D01*
X185565485Y-73096276D01*
X185672891Y-72948444D01*
X185755848Y-72785631D01*
X185812315Y-72611845D01*
X185833210Y-72479920D01*
X185840900Y-72431370D01*
X185840900Y-72248629D01*
X185812315Y-72068158D01*
X185812315Y-72068155D01*
X185755848Y-71894369D01*
X185672891Y-71731556D01*
X185565485Y-71583724D01*
X185436276Y-71454515D01*
X185362360Y-71400812D01*
X185288442Y-71347107D01*
X185225860Y-71315220D01*
X185175065Y-71267246D01*
X185158270Y-71199425D01*
X185165114Y-71163784D01*
X185198001Y-71069797D01*
X185245430Y-70861989D01*
X185279538Y-70801011D01*
X185293418Y-70789276D01*
X185436276Y-70685485D01*
X185565485Y-70556276D01*
X185672891Y-70408444D01*
X185755848Y-70245631D01*
X185812315Y-70071845D01*
X185825640Y-69987712D01*
X185840900Y-69891370D01*
X185840900Y-69708629D01*
X185812315Y-69528158D01*
X185812315Y-69528155D01*
X185755848Y-69354369D01*
X185672891Y-69191556D01*
X185565485Y-69043724D01*
X185436276Y-68914515D01*
X185288444Y-68807109D01*
X185125631Y-68724152D01*
X184951845Y-68667685D01*
X184951843Y-68667684D01*
X184951841Y-68667684D01*
X184855802Y-68652473D01*
X184792667Y-68622544D01*
X184755736Y-68563232D01*
X184756734Y-68493370D01*
X184795344Y-68435137D01*
X184855802Y-68407527D01*
X184903323Y-68400000D01*
X184951845Y-68392315D01*
X185125631Y-68335848D01*
X185288444Y-68252891D01*
X185436276Y-68145485D01*
X185565485Y-68016276D01*
X185672891Y-67868444D01*
X185755848Y-67705631D01*
X185812315Y-67531845D01*
X185835352Y-67386395D01*
X185840900Y-67351370D01*
X185840900Y-67168629D01*
X185814874Y-67004312D01*
X185812315Y-66988155D01*
X185755848Y-66814369D01*
X185672891Y-66651556D01*
X185565485Y-66503724D01*
X185436276Y-66374515D01*
X185288444Y-66267109D01*
X185125631Y-66184152D01*
X184951845Y-66127685D01*
X184951843Y-66127684D01*
X184951841Y-66127684D01*
X184855802Y-66112473D01*
X184792667Y-66082544D01*
X184755736Y-66023232D01*
X184756734Y-65953370D01*
X184795344Y-65895137D01*
X184855802Y-65867527D01*
X184893101Y-65861619D01*
X184951845Y-65852315D01*
X185125631Y-65795848D01*
X185288444Y-65712891D01*
X185436276Y-65605485D01*
X185565485Y-65476276D01*
X185672891Y-65328444D01*
X185755848Y-65165631D01*
X185812315Y-64991845D01*
X185829594Y-64882750D01*
X185840900Y-64811370D01*
X185840900Y-64628629D01*
X185812315Y-64448158D01*
X185812315Y-64448155D01*
X185755848Y-64274369D01*
X185672891Y-64111556D01*
X185565485Y-63963724D01*
X185436276Y-63834515D01*
X185288444Y-63727109D01*
X185125631Y-63644152D01*
X184951845Y-63587685D01*
X184951843Y-63587684D01*
X184951841Y-63587684D01*
X184855801Y-63572473D01*
X184792666Y-63542544D01*
X184755735Y-63483232D01*
X184756733Y-63413370D01*
X184795343Y-63355137D01*
X184855801Y-63327527D01*
X184882497Y-63323298D01*
X184951845Y-63312315D01*
X185125631Y-63255848D01*
X185288444Y-63172891D01*
X185436276Y-63065485D01*
X185565485Y-62936276D01*
X185672891Y-62788444D01*
X185755848Y-62625631D01*
X185812315Y-62451845D01*
X185825019Y-62371631D01*
X185840900Y-62271370D01*
X185840900Y-62088629D01*
X185817658Y-61941888D01*
X185812315Y-61908155D01*
X185755848Y-61734369D01*
X185672891Y-61571556D01*
X185565485Y-61423724D01*
X185436276Y-61294515D01*
X185288444Y-61187109D01*
X185125631Y-61104152D01*
X184951845Y-61047685D01*
X184951843Y-61047684D01*
X184951841Y-61047684D01*
X184855802Y-61032473D01*
X184792667Y-61002544D01*
X184755736Y-60943232D01*
X184756734Y-60873370D01*
X184795344Y-60815137D01*
X184855802Y-60787527D01*
X184893101Y-60781619D01*
X184951845Y-60772315D01*
X185125631Y-60715848D01*
X185288444Y-60632891D01*
X185436276Y-60525485D01*
X185565485Y-60396276D01*
X185672891Y-60248444D01*
X185755848Y-60085631D01*
X185812315Y-59911845D01*
X185825690Y-59827396D01*
X185840900Y-59731370D01*
X185840900Y-59548629D01*
X185814874Y-59384312D01*
X185812315Y-59368155D01*
X185755848Y-59194369D01*
X185672891Y-59031556D01*
X185565485Y-58883724D01*
X185436276Y-58754515D01*
X185288444Y-58647109D01*
X185125631Y-58564152D01*
X184951845Y-58507685D01*
X184949867Y-58507371D01*
X184949177Y-58507044D01*
X184947105Y-58506547D01*
X184947209Y-58506111D01*
X184886734Y-58477440D01*
X184849804Y-58418128D01*
X184850804Y-58348265D01*
X184889415Y-58290034D01*
X184953380Y-58261921D01*
X184969264Y-58260899D01*
X185388272Y-58260899D01*
X185447883Y-58254491D01*
X185582731Y-58204196D01*
X185697946Y-58117946D01*
X185784196Y-58002731D01*
X185834491Y-57867883D01*
X185840900Y-57808273D01*
X185840899Y-56391728D01*
X185834491Y-56332117D01*
X185813984Y-56277136D01*
X185784197Y-56197271D01*
X185784195Y-56197268D01*
X185705233Y-56091787D01*
X185697494Y-56071039D01*
X185685523Y-56052411D01*
X185682371Y-56030492D01*
X185680816Y-56026322D01*
X185680500Y-56017476D01*
X185680500Y-55980376D01*
X185700185Y-55913337D01*
X185716819Y-55892695D01*
X186309616Y-55299898D01*
X186370939Y-55266413D01*
X186440631Y-55271397D01*
X186484978Y-55299898D01*
X187319735Y-56134655D01*
X187319764Y-56134686D01*
X187462214Y-56277136D01*
X187462218Y-56277139D01*
X187626079Y-56386628D01*
X187626092Y-56386635D01*
X187754833Y-56439961D01*
X187797288Y-56457546D01*
X187808164Y-56462051D01*
X187876747Y-56475693D01*
X187907925Y-56481894D01*
X188001456Y-56500500D01*
X191433792Y-56500500D01*
X191500831Y-56520185D01*
X191546586Y-56572989D01*
X191556530Y-56642147D01*
X191539496Y-56686598D01*
X191540394Y-56687078D01*
X191537524Y-56692445D01*
X191472665Y-56849030D01*
X191472663Y-56849036D01*
X191439600Y-57015255D01*
X191439600Y-57184744D01*
X191439599Y-57184744D01*
X191472663Y-57350963D01*
X191472665Y-57350969D01*
X191537522Y-57507549D01*
X191537526Y-57507556D01*
X191538072Y-57508372D01*
X191538073Y-57508372D01*
X191893600Y-57152845D01*
X191893600Y-57153504D01*
X191921295Y-57256865D01*
X191974799Y-57349536D01*
X192050464Y-57425201D01*
X192143135Y-57478705D01*
X192246496Y-57506400D01*
X192247153Y-57506400D01*
X191891626Y-57861925D01*
X191891626Y-57861927D01*
X191892444Y-57862473D01*
X191892444Y-57862474D01*
X192049030Y-57927334D01*
X192049036Y-57927336D01*
X192215255Y-57960400D01*
X192384744Y-57960400D01*
X192550963Y-57927336D01*
X192550969Y-57927334D01*
X192707550Y-57862476D01*
X192708373Y-57861925D01*
X192352848Y-57506400D01*
X192353504Y-57506400D01*
X192456865Y-57478705D01*
X192549536Y-57425201D01*
X192625201Y-57349536D01*
X192678705Y-57256865D01*
X192706400Y-57153504D01*
X192706400Y-57152847D01*
X193061925Y-57508372D01*
X193062476Y-57507550D01*
X193127334Y-57350969D01*
X193127336Y-57350963D01*
X193160400Y-57184744D01*
X193160400Y-57015255D01*
X193155548Y-56990864D01*
X193155548Y-56990863D01*
X193127336Y-56849038D01*
X193127334Y-56849030D01*
X193062475Y-56692445D01*
X193059606Y-56687078D01*
X193060911Y-56686380D01*
X193042228Y-56626715D01*
X193060712Y-56559335D01*
X193112690Y-56512644D01*
X193166208Y-56500500D01*
X196199531Y-56500500D01*
X196209709Y-56500000D01*
X196534314Y-56500000D01*
X196529920Y-56504394D01*
X196477259Y-56595606D01*
X196450000Y-56697339D01*
X196450000Y-56802661D01*
X196477259Y-56904394D01*
X196529920Y-56995606D01*
X196534314Y-57000000D01*
X196007586Y-57000000D01*
X196008624Y-57005223D01*
X196008626Y-57005230D01*
X196074581Y-57164461D01*
X196074588Y-57164474D01*
X196170342Y-57307779D01*
X196170345Y-57307783D01*
X196292216Y-57429654D01*
X196292220Y-57429657D01*
X196435525Y-57525411D01*
X196435538Y-57525418D01*
X196594768Y-57591372D01*
X196594770Y-57591373D01*
X196600000Y-57592412D01*
X196600000Y-57065686D01*
X196604394Y-57070080D01*
X196695606Y-57122741D01*
X196797339Y-57150000D01*
X196902661Y-57150000D01*
X197004394Y-57122741D01*
X197095606Y-57070080D01*
X197100000Y-57065686D01*
X197100000Y-57592412D01*
X197105229Y-57591373D01*
X197105231Y-57591372D01*
X197264461Y-57525418D01*
X197264474Y-57525411D01*
X197407779Y-57429657D01*
X197407783Y-57429654D01*
X197529654Y-57307783D01*
X197529657Y-57307779D01*
X197625411Y-57164474D01*
X197625418Y-57164461D01*
X197691373Y-57005230D01*
X197691375Y-57005223D01*
X197692414Y-57000000D01*
X197165686Y-57000000D01*
X197170080Y-56995606D01*
X197222741Y-56904394D01*
X197250000Y-56802661D01*
X197250000Y-56697339D01*
X197222741Y-56595606D01*
X197170080Y-56504394D01*
X197165686Y-56500000D01*
X197692414Y-56500000D01*
X197692414Y-56499999D01*
X197691375Y-56494776D01*
X197691373Y-56494769D01*
X197625418Y-56335538D01*
X197625411Y-56335525D01*
X197529657Y-56192220D01*
X197529654Y-56192216D01*
X197407783Y-56070345D01*
X197407775Y-56070339D01*
X197341480Y-56026042D01*
X197296674Y-55972430D01*
X197287967Y-55903105D01*
X197318121Y-55840078D01*
X197354072Y-55812456D01*
X197466096Y-55755378D01*
X197615787Y-55646621D01*
X197746621Y-55515787D01*
X197855378Y-55366096D01*
X197939379Y-55201235D01*
X197996555Y-55025264D01*
X198025500Y-54842514D01*
X198025500Y-54657486D01*
X197996555Y-54474736D01*
X197950409Y-54332711D01*
X197939380Y-54298767D01*
X197939379Y-54298764D01*
X197855377Y-54133903D01*
X197853051Y-54130702D01*
X197771453Y-54018392D01*
X197747974Y-53952586D01*
X197763799Y-53884532D01*
X197797459Y-53846241D01*
X197882546Y-53782546D01*
X197968796Y-53667331D01*
X198019091Y-53532483D01*
X198025500Y-53472873D01*
X198025499Y-52027128D01*
X198019091Y-51967517D01*
X198005775Y-51931816D01*
X197968797Y-51832671D01*
X197968793Y-51832664D01*
X197882547Y-51717455D01*
X197882544Y-51717452D01*
X197767335Y-51631206D01*
X197767328Y-51631202D01*
X197632482Y-51580908D01*
X197632483Y-51580908D01*
X197572883Y-51574501D01*
X197572881Y-51574500D01*
X197572873Y-51574500D01*
X197572864Y-51574500D01*
X196127129Y-51574500D01*
X196127123Y-51574501D01*
X196067516Y-51580908D01*
X195932671Y-51631202D01*
X195932664Y-51631206D01*
X195817455Y-51717452D01*
X195817452Y-51717455D01*
X195731206Y-51832664D01*
X195731202Y-51832671D01*
X195680908Y-51967517D01*
X195678660Y-51988432D01*
X195674501Y-52027123D01*
X195674500Y-52027135D01*
X195674500Y-53472870D01*
X195674501Y-53472876D01*
X195680908Y-53532483D01*
X195731202Y-53667328D01*
X195731206Y-53667335D01*
X195817452Y-53782544D01*
X195817453Y-53782544D01*
X195817454Y-53782546D01*
X195866789Y-53819478D01*
X195902539Y-53846241D01*
X195944409Y-53902175D01*
X195949393Y-53971867D01*
X195928545Y-54018392D01*
X195844624Y-54133900D01*
X195760620Y-54298764D01*
X195760619Y-54298767D01*
X195723238Y-54413818D01*
X195683801Y-54471493D01*
X195619442Y-54498692D01*
X195605307Y-54499500D01*
X188565782Y-54499500D01*
X188498743Y-54479815D01*
X188478101Y-54463181D01*
X187526819Y-53511899D01*
X187512115Y-53484971D01*
X187495523Y-53459153D01*
X187494631Y-53452952D01*
X187493334Y-53450576D01*
X187490500Y-53424218D01*
X187490500Y-53405439D01*
X187504015Y-53349144D01*
X187552456Y-53254073D01*
X187600429Y-53203279D01*
X187668250Y-53186484D01*
X187734385Y-53209021D01*
X187766042Y-53241480D01*
X187810339Y-53307775D01*
X187810345Y-53307783D01*
X187932216Y-53429654D01*
X187932220Y-53429657D01*
X188075525Y-53525411D01*
X188075538Y-53525418D01*
X188234768Y-53591372D01*
X188234770Y-53591373D01*
X188240000Y-53592412D01*
X188240000Y-53065686D01*
X188244394Y-53070080D01*
X188335606Y-53122741D01*
X188437339Y-53150000D01*
X188542661Y-53150000D01*
X188644394Y-53122741D01*
X188735606Y-53070080D01*
X188740000Y-53065686D01*
X188740000Y-53592412D01*
X188745229Y-53591373D01*
X188745231Y-53591372D01*
X188904461Y-53525418D01*
X188904474Y-53525411D01*
X189047779Y-53429657D01*
X189047783Y-53429654D01*
X189169654Y-53307783D01*
X189169658Y-53307778D01*
X189213956Y-53241481D01*
X189267568Y-53196675D01*
X189336893Y-53187966D01*
X189399920Y-53218120D01*
X189427544Y-53254075D01*
X189476675Y-53350500D01*
X189484622Y-53366096D01*
X189593379Y-53515787D01*
X189724213Y-53646621D01*
X189873904Y-53755378D01*
X189927224Y-53782546D01*
X190038764Y-53839379D01*
X190038767Y-53839380D01*
X190126750Y-53867967D01*
X190214736Y-53896555D01*
X190397486Y-53925500D01*
X190397487Y-53925500D01*
X190582513Y-53925500D01*
X190582514Y-53925500D01*
X190765264Y-53896555D01*
X190941235Y-53839379D01*
X191106096Y-53755378D01*
X191255787Y-53646621D01*
X191386621Y-53515787D01*
X191389680Y-53511576D01*
X191445006Y-53468909D01*
X191514619Y-53462926D01*
X191576415Y-53495529D01*
X191590315Y-53511570D01*
X191593379Y-53515787D01*
X191724213Y-53646621D01*
X191873904Y-53755378D01*
X191927224Y-53782546D01*
X192038764Y-53839379D01*
X192038767Y-53839380D01*
X192126750Y-53867967D01*
X192214736Y-53896555D01*
X192397486Y-53925500D01*
X192397487Y-53925500D01*
X192582513Y-53925500D01*
X192582514Y-53925500D01*
X192765264Y-53896555D01*
X192941235Y-53839379D01*
X193106096Y-53755378D01*
X193255787Y-53646621D01*
X193386621Y-53515787D01*
X193495378Y-53366096D01*
X193579379Y-53201235D01*
X193636555Y-53025264D01*
X193665500Y-52842514D01*
X193665500Y-52657486D01*
X193636555Y-52474736D01*
X193607967Y-52386750D01*
X193579380Y-52298767D01*
X193579379Y-52298764D01*
X193536577Y-52214763D01*
X193495378Y-52133904D01*
X193386621Y-51984213D01*
X193255787Y-51853379D01*
X193106096Y-51744622D01*
X193052778Y-51717455D01*
X192941235Y-51660620D01*
X192941232Y-51660619D01*
X192765265Y-51603445D01*
X192622972Y-51580908D01*
X192582514Y-51574500D01*
X192397486Y-51574500D01*
X192357028Y-51580908D01*
X192214734Y-51603445D01*
X192038767Y-51660619D01*
X192038764Y-51660620D01*
X191873903Y-51744622D01*
X191794188Y-51802539D01*
X191724213Y-51853379D01*
X191724211Y-51853381D01*
X191724210Y-51853381D01*
X191593381Y-51984210D01*
X191590314Y-51988432D01*
X191534981Y-52031094D01*
X191465367Y-52037069D01*
X191403574Y-52004459D01*
X191389686Y-51988432D01*
X191386621Y-51984213D01*
X191255787Y-51853379D01*
X191106096Y-51744622D01*
X191052778Y-51717455D01*
X190941235Y-51660620D01*
X190941232Y-51660619D01*
X190765265Y-51603445D01*
X190622972Y-51580908D01*
X190582514Y-51574500D01*
X190397486Y-51574500D01*
X190357028Y-51580908D01*
X190214734Y-51603445D01*
X190038767Y-51660619D01*
X190038764Y-51660620D01*
X189873903Y-51744622D01*
X189794188Y-51802539D01*
X189724213Y-51853379D01*
X189724211Y-51853381D01*
X189724210Y-51853381D01*
X189593381Y-51984210D01*
X189593381Y-51984211D01*
X189593379Y-51984213D01*
X189562208Y-52027116D01*
X189484620Y-52133905D01*
X189427543Y-52245925D01*
X189379569Y-52296720D01*
X189311748Y-52313515D01*
X189245613Y-52290977D01*
X189213956Y-52258519D01*
X189169655Y-52192217D01*
X189047783Y-52070345D01*
X189047779Y-52070342D01*
X188904474Y-51974588D01*
X188904461Y-51974581D01*
X188745230Y-51908626D01*
X188745223Y-51908624D01*
X188740000Y-51907585D01*
X188740000Y-52434314D01*
X188735606Y-52429920D01*
X188644394Y-52377259D01*
X188542661Y-52350000D01*
X188437339Y-52350000D01*
X188335606Y-52377259D01*
X188244394Y-52429920D01*
X188240000Y-52434314D01*
X188240000Y-51907586D01*
X188239999Y-51907585D01*
X188234776Y-51908624D01*
X188234769Y-51908626D01*
X188075538Y-51974581D01*
X188075525Y-51974588D01*
X187932220Y-52070342D01*
X187932216Y-52070345D01*
X187810345Y-52192216D01*
X187810342Y-52192220D01*
X187766042Y-52258520D01*
X187712430Y-52303325D01*
X187643105Y-52312032D01*
X187580077Y-52281877D01*
X187552455Y-52245924D01*
X187495378Y-52133904D01*
X187386621Y-51984213D01*
X187255787Y-51853379D01*
X187106096Y-51744622D01*
X187052778Y-51717455D01*
X186941235Y-51660620D01*
X186941232Y-51660619D01*
X186765265Y-51603445D01*
X186622972Y-51580908D01*
X186582514Y-51574500D01*
X186397486Y-51574500D01*
X186357028Y-51580908D01*
X186214734Y-51603445D01*
X186038767Y-51660619D01*
X186038764Y-51660620D01*
X185873902Y-51744623D01*
X185758392Y-51828545D01*
X185692586Y-51852025D01*
X185624532Y-51836199D01*
X185586241Y-51802539D01*
X185560939Y-51768740D01*
X185522546Y-51717454D01*
X185522544Y-51717453D01*
X185522544Y-51717452D01*
X185407335Y-51631206D01*
X185407328Y-51631202D01*
X185272482Y-51580908D01*
X185272483Y-51580908D01*
X185212883Y-51574501D01*
X185212881Y-51574500D01*
X185212873Y-51574500D01*
X185212864Y-51574500D01*
X183767129Y-51574500D01*
X183767123Y-51574501D01*
X183707516Y-51580908D01*
X183572671Y-51631202D01*
X183572664Y-51631206D01*
X183457455Y-51717452D01*
X183457452Y-51717455D01*
X183371206Y-51832664D01*
X183371202Y-51832671D01*
X183320908Y-51967517D01*
X183318660Y-51988432D01*
X183314501Y-52027123D01*
X183314322Y-52030452D01*
X183313065Y-52030384D01*
X183294815Y-52092539D01*
X183242011Y-52138294D01*
X183190500Y-52149500D01*
X181086669Y-52149500D01*
X181086653Y-52149499D01*
X181079057Y-52149499D01*
X180920943Y-52149499D01*
X180813587Y-52178265D01*
X180768210Y-52190424D01*
X180768209Y-52190425D01*
X180718096Y-52219359D01*
X180718095Y-52219360D01*
X180674689Y-52244420D01*
X180631285Y-52269479D01*
X180631282Y-52269481D01*
X178969479Y-53931284D01*
X178957181Y-53952586D01*
X178930096Y-53999500D01*
X178890423Y-54068215D01*
X178849499Y-54220943D01*
X178849499Y-54220945D01*
X178849499Y-54332711D01*
X178829814Y-54399750D01*
X178777010Y-54445505D01*
X178707852Y-54455449D01*
X178656609Y-54435814D01*
X178623682Y-54413813D01*
X178623671Y-54413807D01*
X178441693Y-54338430D01*
X178441681Y-54338427D01*
X178248495Y-54300000D01*
X178051504Y-54300000D01*
X177858318Y-54338427D01*
X177858310Y-54338429D01*
X177676325Y-54413809D01*
X177676318Y-54413813D01*
X177640979Y-54437426D01*
X177640978Y-54437426D01*
X178103553Y-54900000D01*
X178097339Y-54900000D01*
X177995606Y-54927259D01*
X177904394Y-54979920D01*
X177829920Y-55054394D01*
X177777259Y-55145606D01*
X177750000Y-55247339D01*
X177750000Y-55253552D01*
X177287426Y-54790978D01*
X177287426Y-54790979D01*
X177263813Y-54826318D01*
X177263809Y-54826325D01*
X177188429Y-55008310D01*
X177188427Y-55008318D01*
X177150000Y-55201504D01*
X177150000Y-55398495D01*
X177188427Y-55591681D01*
X177188430Y-55591693D01*
X177263808Y-55773673D01*
X177263809Y-55773675D01*
X177287425Y-55809019D01*
X177750000Y-55346445D01*
X177750000Y-55352661D01*
X177777259Y-55454394D01*
X177829920Y-55545606D01*
X177904394Y-55620080D01*
X177995606Y-55672741D01*
X178097339Y-55700000D01*
X178103552Y-55700000D01*
X177640979Y-56162572D01*
X177676328Y-56186192D01*
X177858306Y-56261569D01*
X177858318Y-56261572D01*
X178051504Y-56299999D01*
X178051508Y-56300000D01*
X178248492Y-56300000D01*
X178248495Y-56299999D01*
X178441681Y-56261572D01*
X178441693Y-56261569D01*
X178623671Y-56186192D01*
X178623686Y-56186184D01*
X178676580Y-56150841D01*
X178743257Y-56129962D01*
X178810638Y-56148446D01*
X178857328Y-56200424D01*
X178868692Y-56240057D01*
X178883881Y-56374857D01*
X178883882Y-56374865D01*
X178883883Y-56374868D01*
X178906896Y-56475692D01*
X178952223Y-56674278D01*
X178952225Y-56674287D01*
X179053658Y-56964163D01*
X179053664Y-56964177D01*
X179186921Y-57240885D01*
X179350311Y-57500915D01*
X179350314Y-57500919D01*
X179424379Y-57593793D01*
X179531240Y-57727793D01*
X179541800Y-57741034D01*
X179598825Y-57798059D01*
X179609036Y-57808270D01*
X179647517Y-57846753D01*
X179647518Y-57846755D01*
X179653061Y-57852673D01*
X179777273Y-57994309D01*
X179787147Y-58007177D01*
X179889551Y-58160435D01*
X179897661Y-58174482D01*
X179979185Y-58339796D01*
X179985392Y-58354781D01*
X180044641Y-58529321D01*
X180048839Y-58544988D01*
X180084800Y-58725770D01*
X180086917Y-58741851D01*
X180099234Y-58929738D01*
X180099500Y-58937849D01*
X180099500Y-59189207D01*
X180079815Y-59256246D01*
X180048386Y-59289525D01*
X179917925Y-59384311D01*
X179784312Y-59517924D01*
X179784312Y-59517925D01*
X179784310Y-59517927D01*
X179761371Y-59549500D01*
X179673240Y-59670800D01*
X179587454Y-59839163D01*
X179529059Y-60018881D01*
X179522473Y-60060469D01*
X179492544Y-60123604D01*
X179433232Y-60160535D01*
X179363369Y-60159537D01*
X179305137Y-60120927D01*
X179277527Y-60060469D01*
X179270940Y-60018881D01*
X179212545Y-59839163D01*
X179126759Y-59670800D01*
X179097208Y-59630127D01*
X179015690Y-59517927D01*
X178882073Y-59384310D01*
X178729199Y-59273240D01*
X178700500Y-59258617D01*
X178560836Y-59187454D01*
X178381118Y-59129059D01*
X178194486Y-59099500D01*
X178194481Y-59099500D01*
X178005519Y-59099500D01*
X178005514Y-59099500D01*
X177818881Y-59129059D01*
X177639163Y-59187454D01*
X177470800Y-59273240D01*
X177421744Y-59308882D01*
X177317927Y-59384310D01*
X177317925Y-59384312D01*
X177317924Y-59384312D01*
X177184312Y-59517924D01*
X177184312Y-59517925D01*
X177184310Y-59517927D01*
X177161371Y-59549500D01*
X177073240Y-59670800D01*
X176987454Y-59839163D01*
X176929059Y-60018881D01*
X176899500Y-60205513D01*
X176899500Y-60394486D01*
X176929059Y-60581118D01*
X176987454Y-60760836D01*
X177062284Y-60907697D01*
X177073240Y-60929199D01*
X177075814Y-60932742D01*
X177099297Y-60998546D01*
X177099500Y-61005632D01*
X177099500Y-61686216D01*
X177079815Y-61753255D01*
X177063181Y-61773897D01*
X176212180Y-62624898D01*
X176150857Y-62658383D01*
X176081165Y-62653399D01*
X176025232Y-62611527D01*
X176000815Y-62546063D01*
X176000499Y-62537217D01*
X176000499Y-61302129D01*
X176000498Y-61302123D01*
X175999680Y-61294517D01*
X175994091Y-61242517D01*
X175988224Y-61226788D01*
X175943797Y-61107671D01*
X175943793Y-61107664D01*
X175857547Y-60992455D01*
X175857544Y-60992452D01*
X175742335Y-60906206D01*
X175742328Y-60906202D01*
X175607482Y-60855908D01*
X175599938Y-60854126D01*
X175600474Y-60851853D01*
X175546688Y-60829571D01*
X175506843Y-60772177D01*
X175500500Y-60733024D01*
X175500500Y-57766976D01*
X175520185Y-57699937D01*
X175572989Y-57654182D01*
X175600135Y-57646736D01*
X175599932Y-57645876D01*
X175607479Y-57644092D01*
X175607481Y-57644091D01*
X175607483Y-57644091D01*
X175742331Y-57593796D01*
X175857546Y-57507546D01*
X175943796Y-57392331D01*
X175994091Y-57257483D01*
X176000500Y-57197873D01*
X176000499Y-55102128D01*
X175994091Y-55042517D01*
X175991489Y-55035542D01*
X175943797Y-54907671D01*
X175943793Y-54907664D01*
X175857547Y-54792455D01*
X175857544Y-54792452D01*
X175742335Y-54706206D01*
X175742328Y-54706202D01*
X175607482Y-54655908D01*
X175607483Y-54655908D01*
X175547883Y-54649501D01*
X175547881Y-54649500D01*
X175547873Y-54649500D01*
X175547864Y-54649500D01*
X173452129Y-54649500D01*
X173452123Y-54649501D01*
X173392516Y-54655908D01*
X173257671Y-54706202D01*
X173257664Y-54706206D01*
X173142455Y-54792452D01*
X173142452Y-54792455D01*
X173056206Y-54907664D01*
X173056202Y-54907671D01*
X173005908Y-55042517D01*
X172999501Y-55102116D01*
X172999501Y-55102123D01*
X172999500Y-55102135D01*
X172999500Y-57197870D01*
X172999501Y-57197876D01*
X173005908Y-57257483D01*
X173056202Y-57392328D01*
X173056206Y-57392335D01*
X173142452Y-57507544D01*
X173142455Y-57507547D01*
X173257664Y-57593793D01*
X173257671Y-57593797D01*
X173392517Y-57644091D01*
X173400062Y-57645874D01*
X173399523Y-57648151D01*
X173453287Y-57670408D01*
X173493147Y-57727793D01*
X173499500Y-57766975D01*
X173499500Y-60733023D01*
X173479815Y-60800062D01*
X173427011Y-60845817D01*
X173399865Y-60853266D01*
X173400068Y-60854124D01*
X173392520Y-60855907D01*
X173257671Y-60906202D01*
X173257664Y-60906206D01*
X173142455Y-60992452D01*
X173142452Y-60992455D01*
X173056206Y-61107664D01*
X173056202Y-61107671D01*
X173005908Y-61242517D01*
X173004126Y-61250062D01*
X173001853Y-61249525D01*
X172979571Y-61303312D01*
X172922177Y-61343157D01*
X172883024Y-61349500D01*
X170081057Y-61349500D01*
X170014018Y-61329815D01*
X169968263Y-61277011D01*
X169958319Y-61207853D01*
X169970572Y-61169206D01*
X170014966Y-61082075D01*
X170019873Y-61072445D01*
X170073402Y-60907701D01*
X170100500Y-60736611D01*
X170100500Y-60563389D01*
X170073402Y-60392299D01*
X170019873Y-60227555D01*
X169941232Y-60073212D01*
X169839414Y-59933072D01*
X169716928Y-59810586D01*
X169576788Y-59708768D01*
X169422445Y-59630127D01*
X169257701Y-59576598D01*
X169257699Y-59576597D01*
X169257698Y-59576597D01*
X169126271Y-59555781D01*
X169086611Y-59549500D01*
X168913389Y-59549500D01*
X168873728Y-59555781D01*
X168742302Y-59576597D01*
X168577552Y-59630128D01*
X168423211Y-59708768D01*
X168392103Y-59731370D01*
X168283072Y-59810586D01*
X168283070Y-59810588D01*
X168283069Y-59810588D01*
X168160588Y-59933069D01*
X168160588Y-59933070D01*
X168160586Y-59933072D01*
X168147860Y-59950588D01*
X168058768Y-60073211D01*
X167980128Y-60227552D01*
X167926597Y-60392302D01*
X167899500Y-60563389D01*
X167899500Y-60736610D01*
X167926360Y-60906202D01*
X167926598Y-60907701D01*
X167980127Y-61072445D01*
X168058768Y-61226788D01*
X168160586Y-61366928D01*
X168283072Y-61489414D01*
X168423212Y-61591232D01*
X168577555Y-61669873D01*
X168742299Y-61723402D01*
X168794906Y-61731734D01*
X168858041Y-61761663D01*
X168894973Y-61820974D01*
X168893975Y-61890836D01*
X168863190Y-61941888D01*
X164141651Y-66663427D01*
X164080328Y-66696912D01*
X164050834Y-66698919D01*
X164050834Y-66699500D01*
X164045962Y-66699500D01*
X163794038Y-66699500D01*
X163669626Y-66719205D01*
X163545214Y-66738910D01*
X163305616Y-66816760D01*
X163081151Y-66931132D01*
X162877350Y-67079201D01*
X162877345Y-67079205D01*
X162699205Y-67257345D01*
X162699201Y-67257350D01*
X162551132Y-67461151D01*
X162436760Y-67685616D01*
X162358910Y-67925214D01*
X162344771Y-68014486D01*
X162319500Y-68174038D01*
X162319500Y-68425962D01*
X162335812Y-68528949D01*
X162358910Y-68674785D01*
X162436760Y-68914383D01*
X162502662Y-69043721D01*
X162546199Y-69129168D01*
X162551132Y-69138848D01*
X162699201Y-69342649D01*
X162699205Y-69342654D01*
X162877345Y-69520794D01*
X162877350Y-69520798D01*
X163044623Y-69642328D01*
X163081155Y-69668870D01*
X163224184Y-69741747D01*
X163305616Y-69783239D01*
X163305618Y-69783239D01*
X163305621Y-69783241D01*
X163545215Y-69861090D01*
X163794038Y-69900500D01*
X163794039Y-69900500D01*
X164045961Y-69900500D01*
X164045962Y-69900500D01*
X164294785Y-69861090D01*
X164534379Y-69783241D01*
X164758845Y-69668870D01*
X164962656Y-69520793D01*
X165140793Y-69342656D01*
X165288870Y-69138845D01*
X165403241Y-68914379D01*
X165481090Y-68674785D01*
X165520500Y-68425962D01*
X165520500Y-68174038D01*
X165520500Y-68169166D01*
X165522028Y-68169166D01*
X165534979Y-68107415D01*
X165556568Y-68078350D01*
X170248102Y-63386819D01*
X170309425Y-63353334D01*
X170335783Y-63350500D01*
X172883023Y-63350500D01*
X172950062Y-63370185D01*
X172995817Y-63422989D01*
X173003266Y-63450134D01*
X173004124Y-63449932D01*
X173005907Y-63457479D01*
X173056202Y-63592328D01*
X173056206Y-63592335D01*
X173142452Y-63707544D01*
X173142455Y-63707547D01*
X173257664Y-63793793D01*
X173257671Y-63793797D01*
X173392517Y-63844091D01*
X173392516Y-63844091D01*
X173399444Y-63844835D01*
X173452127Y-63850500D01*
X174687217Y-63850499D01*
X174754256Y-63870184D01*
X174800011Y-63922987D01*
X174809955Y-63992146D01*
X174780930Y-64055702D01*
X174774898Y-64062180D01*
X173374899Y-65462181D01*
X173313576Y-65495666D01*
X173287218Y-65498500D01*
X172452455Y-65498500D01*
X172355812Y-65517724D01*
X172259167Y-65536947D01*
X172259161Y-65536949D01*
X172205834Y-65559037D01*
X172205834Y-65559038D01*
X172172205Y-65572967D01*
X172077088Y-65612366D01*
X171926643Y-65712891D01*
X171926639Y-65712894D01*
X171913218Y-65721860D01*
X165910382Y-71724696D01*
X165849059Y-71758181D01*
X165788590Y-71756231D01*
X165702354Y-71731556D01*
X165627418Y-71710114D01*
X165627415Y-71710113D01*
X165627413Y-71710113D01*
X165561102Y-71704217D01*
X165508037Y-71699500D01*
X165508032Y-71699500D01*
X164391971Y-71699500D01*
X164391965Y-71699500D01*
X164391964Y-71699501D01*
X164380316Y-71700536D01*
X164272584Y-71710113D01*
X164076954Y-71766089D01*
X164046774Y-71781854D01*
X163896593Y-71860302D01*
X163896591Y-71860303D01*
X163896590Y-71860304D01*
X163738890Y-71988890D01*
X163610304Y-72146590D01*
X163610302Y-72146593D01*
X163575988Y-72212284D01*
X163516089Y-72326954D01*
X163475190Y-72469892D01*
X163464196Y-72508318D01*
X163460114Y-72522583D01*
X163460113Y-72522586D01*
X163455019Y-72579889D01*
X163449815Y-72638427D01*
X163449500Y-72641966D01*
X163449500Y-74134217D01*
X163429815Y-74201256D01*
X163413181Y-74221898D01*
X162012220Y-75622858D01*
X162012219Y-75622860D01*
X162012218Y-75622861D01*
X161957666Y-75677413D01*
X161912181Y-75722898D01*
X161850857Y-75756382D01*
X161781166Y-75751398D01*
X161725233Y-75709526D01*
X161700816Y-75644061D01*
X161700500Y-75635216D01*
X161700500Y-63369702D01*
X162300000Y-63369702D01*
X162311602Y-63428033D01*
X162311603Y-63428034D01*
X162355808Y-63494191D01*
X162421965Y-63538396D01*
X162421966Y-63538397D01*
X162480297Y-63549999D01*
X162480301Y-63550000D01*
X163250000Y-63550000D01*
X163750000Y-63550000D01*
X164519699Y-63550000D01*
X164519702Y-63549999D01*
X164578033Y-63538397D01*
X164578034Y-63538396D01*
X164644191Y-63494191D01*
X164688396Y-63428034D01*
X164688397Y-63428033D01*
X164699999Y-63369702D01*
X164700000Y-63369699D01*
X164700000Y-62600000D01*
X163750000Y-62600000D01*
X163750000Y-63550000D01*
X163250000Y-63550000D01*
X163250000Y-62600000D01*
X162300000Y-62600000D01*
X162300000Y-63369702D01*
X161700500Y-63369702D01*
X161700500Y-61330297D01*
X162300000Y-61330297D01*
X162300000Y-62100000D01*
X163250000Y-62100000D01*
X163750000Y-62100000D01*
X164700000Y-62100000D01*
X164700000Y-61330301D01*
X164699999Y-61330297D01*
X164688397Y-61271966D01*
X164688396Y-61271965D01*
X164644191Y-61205808D01*
X164578034Y-61161603D01*
X164578033Y-61161602D01*
X164519702Y-61150000D01*
X163750000Y-61150000D01*
X163750000Y-62100000D01*
X163250000Y-62100000D01*
X163250000Y-61150000D01*
X162480297Y-61150000D01*
X162421966Y-61161602D01*
X162421965Y-61161603D01*
X162355808Y-61205808D01*
X162311603Y-61271965D01*
X162311602Y-61271966D01*
X162300000Y-61330297D01*
X161700500Y-61330297D01*
X161700500Y-57169702D01*
X162300000Y-57169702D01*
X162311602Y-57228033D01*
X162311603Y-57228034D01*
X162355808Y-57294191D01*
X162421965Y-57338396D01*
X162421966Y-57338397D01*
X162480297Y-57349999D01*
X162480301Y-57350000D01*
X163250000Y-57350000D01*
X163750000Y-57350000D01*
X164519699Y-57350000D01*
X164519702Y-57349999D01*
X164578033Y-57338397D01*
X164578034Y-57338396D01*
X164644191Y-57294191D01*
X164688396Y-57228034D01*
X164688397Y-57228033D01*
X164699999Y-57169702D01*
X164700000Y-57169699D01*
X164700000Y-56400000D01*
X163750000Y-56400000D01*
X163750000Y-57350000D01*
X163250000Y-57350000D01*
X163250000Y-56400000D01*
X162300000Y-56400000D01*
X162300000Y-57169702D01*
X161700500Y-57169702D01*
X161700500Y-56248543D01*
X167999499Y-56248543D01*
X168037947Y-56441829D01*
X168037950Y-56441839D01*
X168113364Y-56623907D01*
X168113371Y-56623920D01*
X168222860Y-56787781D01*
X168222863Y-56787785D01*
X168362214Y-56927136D01*
X168362218Y-56927139D01*
X168526079Y-57036628D01*
X168526092Y-57036635D01*
X168708160Y-57112049D01*
X168708165Y-57112051D01*
X168708169Y-57112051D01*
X168708170Y-57112052D01*
X168901456Y-57150500D01*
X168901459Y-57150500D01*
X169098543Y-57150500D01*
X169238093Y-57122741D01*
X169291835Y-57112051D01*
X169473914Y-57036632D01*
X169637782Y-56927139D01*
X169777139Y-56787782D01*
X169886632Y-56623914D01*
X169962051Y-56441835D01*
X169986249Y-56320185D01*
X170000500Y-56248543D01*
X170000500Y-56051456D01*
X169962052Y-55858170D01*
X169962051Y-55858169D01*
X169962051Y-55858165D01*
X169954270Y-55839379D01*
X169886635Y-55676092D01*
X169886628Y-55676079D01*
X169777139Y-55512218D01*
X169777136Y-55512214D01*
X169637785Y-55372863D01*
X169637781Y-55372860D01*
X169473920Y-55263371D01*
X169473907Y-55263364D01*
X169291839Y-55187950D01*
X169291829Y-55187947D01*
X169098543Y-55149500D01*
X169098541Y-55149500D01*
X168901459Y-55149500D01*
X168901457Y-55149500D01*
X168708170Y-55187947D01*
X168708160Y-55187950D01*
X168526092Y-55263364D01*
X168526079Y-55263371D01*
X168362218Y-55372860D01*
X168362214Y-55372863D01*
X168222863Y-55512214D01*
X168222860Y-55512218D01*
X168113371Y-55676079D01*
X168113364Y-55676092D01*
X168037950Y-55858160D01*
X168037947Y-55858170D01*
X167999500Y-56051456D01*
X167999500Y-56051459D01*
X167999500Y-56248541D01*
X167999500Y-56248543D01*
X167999499Y-56248543D01*
X161700500Y-56248543D01*
X161700500Y-55130297D01*
X162300000Y-55130297D01*
X162300000Y-55900000D01*
X163250000Y-55900000D01*
X163750000Y-55900000D01*
X164700000Y-55900000D01*
X164700000Y-55130301D01*
X164699999Y-55130297D01*
X164688397Y-55071966D01*
X164688396Y-55071965D01*
X164644191Y-55005808D01*
X164578034Y-54961603D01*
X164578033Y-54961602D01*
X164519702Y-54950000D01*
X163750000Y-54950000D01*
X163750000Y-55900000D01*
X163250000Y-55900000D01*
X163250000Y-54950000D01*
X162480297Y-54950000D01*
X162421966Y-54961602D01*
X162421965Y-54961603D01*
X162355808Y-55005808D01*
X162311603Y-55071965D01*
X162311602Y-55071966D01*
X162300000Y-55130297D01*
X161700500Y-55130297D01*
X161700500Y-50899500D01*
X161720185Y-50832461D01*
X161772989Y-50786706D01*
X161824500Y-50775500D01*
X198575500Y-50775500D01*
X198642539Y-50795185D01*
G37*
%TD.AperFunction*%
%TA.AperFunction,Conductor*%
G36*
X179417071Y-60440182D02*
G01*
X179436630Y-60440462D01*
X179450040Y-60449353D01*
X179465543Y-60453666D01*
X179478561Y-60468263D01*
X179494863Y-60479072D01*
X179501855Y-60494382D01*
X179512047Y-60505811D01*
X179522473Y-60539530D01*
X179529059Y-60581118D01*
X179587454Y-60760836D01*
X179662284Y-60907697D01*
X179673240Y-60929199D01*
X179784310Y-61082073D01*
X179917927Y-61215690D01*
X180070801Y-61326760D01*
X180115431Y-61349500D01*
X180239163Y-61412545D01*
X180239165Y-61412545D01*
X180239168Y-61412547D01*
X180273586Y-61423730D01*
X180418881Y-61470940D01*
X180605514Y-61500500D01*
X180605519Y-61500500D01*
X180794486Y-61500500D01*
X180911017Y-61482042D01*
X180953753Y-61475274D01*
X181023045Y-61484228D01*
X181060831Y-61510066D01*
X183615037Y-64064272D01*
X183648522Y-64125595D01*
X183643538Y-64195287D01*
X183637842Y-64208246D01*
X183604153Y-64274366D01*
X183547684Y-64448158D01*
X183519100Y-64628629D01*
X183519100Y-64811370D01*
X183547684Y-64991841D01*
X183547685Y-64991845D01*
X183604152Y-65165631D01*
X183687109Y-65328444D01*
X183794515Y-65476276D01*
X183923724Y-65605485D01*
X184071556Y-65712891D01*
X184234369Y-65795848D01*
X184408155Y-65852315D01*
X184451146Y-65859124D01*
X184504197Y-65867527D01*
X184567332Y-65897456D01*
X184604263Y-65956768D01*
X184603265Y-66026631D01*
X184564655Y-66084863D01*
X184504197Y-66112473D01*
X184408158Y-66127684D01*
X184234366Y-66184153D01*
X184071555Y-66267109D01*
X183923721Y-66374517D01*
X183794517Y-66503721D01*
X183687109Y-66651555D01*
X183604153Y-66814366D01*
X183547684Y-66988158D01*
X183519100Y-67168629D01*
X183519100Y-67351370D01*
X183547684Y-67531841D01*
X183547685Y-67531845D01*
X183604152Y-67705631D01*
X183687109Y-67868444D01*
X183794515Y-68016276D01*
X183923724Y-68145485D01*
X184071556Y-68252891D01*
X184234369Y-68335848D01*
X184408155Y-68392315D01*
X184452212Y-68399293D01*
X184504197Y-68407527D01*
X184567332Y-68437456D01*
X184604263Y-68496768D01*
X184603265Y-68566631D01*
X184564655Y-68624863D01*
X184504197Y-68652473D01*
X184408158Y-68667684D01*
X184321262Y-68695918D01*
X184302318Y-68702074D01*
X184234366Y-68724153D01*
X184071555Y-68807109D01*
X183923721Y-68914517D01*
X183794517Y-69043721D01*
X183687109Y-69191555D01*
X183604153Y-69354366D01*
X183547684Y-69528158D01*
X183519100Y-69708629D01*
X183519100Y-69891370D01*
X183547684Y-70071841D01*
X183547685Y-70071845D01*
X183604152Y-70245631D01*
X183687109Y-70408444D01*
X183794515Y-70556276D01*
X183794517Y-70556278D01*
X183923727Y-70685488D01*
X183953342Y-70707004D01*
X183971300Y-70730292D01*
X183991341Y-70751817D01*
X183992392Y-70757644D01*
X183996009Y-70762334D01*
X183998525Y-70791632D01*
X184003748Y-70820576D01*
X184001700Y-70828598D01*
X184001988Y-70831947D01*
X183995020Y-70854774D01*
X183974782Y-70903635D01*
X183965949Y-70920972D01*
X183894560Y-71037473D01*
X183883122Y-71053216D01*
X183791362Y-71160655D01*
X183784761Y-71167796D01*
X183775162Y-71177397D01*
X183775153Y-71177406D01*
X181787721Y-73164837D01*
X181726398Y-73198322D01*
X181656706Y-73193338D01*
X181600773Y-73151466D01*
X181589412Y-73131513D01*
X181589064Y-73131700D01*
X181586193Y-73126330D01*
X181562572Y-73090979D01*
X181100000Y-73553553D01*
X181100000Y-73547339D01*
X181072741Y-73445606D01*
X181020080Y-73354394D01*
X180945606Y-73279920D01*
X180854394Y-73227259D01*
X180752661Y-73200000D01*
X180746447Y-73200000D01*
X181209020Y-72737426D01*
X181173675Y-72713809D01*
X181173673Y-72713808D01*
X180991693Y-72638430D01*
X180991681Y-72638427D01*
X180922877Y-72624741D01*
X180860966Y-72592356D01*
X180826392Y-72531641D01*
X180830131Y-72461871D01*
X180870998Y-72405199D01*
X180927669Y-72380651D01*
X181004534Y-72368477D01*
X181199219Y-72305220D01*
X181381610Y-72212287D01*
X181477089Y-72142918D01*
X181547213Y-72091971D01*
X181547215Y-72091968D01*
X181547219Y-72091966D01*
X181691966Y-71947219D01*
X181691968Y-71947215D01*
X181691971Y-71947213D01*
X181771007Y-71838427D01*
X181812287Y-71781610D01*
X181905220Y-71599219D01*
X181968477Y-71404534D01*
X182000500Y-71202352D01*
X182000500Y-70997648D01*
X181994680Y-70960900D01*
X181968477Y-70795465D01*
X181931925Y-70682970D01*
X181905220Y-70600781D01*
X181905218Y-70600778D01*
X181905218Y-70600776D01*
X181871503Y-70534607D01*
X181812287Y-70418390D01*
X181785606Y-70381666D01*
X181691971Y-70252786D01*
X181547213Y-70108028D01*
X181381610Y-69987712D01*
X181368200Y-69980879D01*
X181317406Y-69932903D01*
X181300500Y-69870397D01*
X181300500Y-69030791D01*
X181320185Y-68963752D01*
X181351612Y-68930475D01*
X181482073Y-68835690D01*
X181615690Y-68702073D01*
X181726760Y-68549199D01*
X181812547Y-68380832D01*
X181870940Y-68201118D01*
X181876880Y-68163616D01*
X181900500Y-68014486D01*
X181900500Y-67825513D01*
X181870940Y-67638881D01*
X181822928Y-67491118D01*
X181812547Y-67459168D01*
X181812545Y-67459165D01*
X181812545Y-67459163D01*
X181741383Y-67319500D01*
X181726760Y-67290801D01*
X181615690Y-67137927D01*
X181482073Y-67004310D01*
X181329199Y-66893240D01*
X181318385Y-66887730D01*
X181160836Y-66807454D01*
X180981118Y-66749059D01*
X180794486Y-66719500D01*
X180794481Y-66719500D01*
X180605519Y-66719500D01*
X180605514Y-66719500D01*
X180418881Y-66749059D01*
X180239163Y-66807454D01*
X180070800Y-66893240D01*
X180038855Y-66916450D01*
X179917927Y-67004310D01*
X179917925Y-67004312D01*
X179917924Y-67004312D01*
X179784312Y-67137924D01*
X179784312Y-67137925D01*
X179784310Y-67137927D01*
X179697544Y-67257350D01*
X179689526Y-67268386D01*
X179634196Y-67311051D01*
X179589208Y-67319500D01*
X179210792Y-67319500D01*
X179143753Y-67299815D01*
X179110474Y-67268386D01*
X179102456Y-67257350D01*
X179015690Y-67137927D01*
X178882073Y-67004310D01*
X178729199Y-66893240D01*
X178718385Y-66887730D01*
X178560836Y-66807454D01*
X178381118Y-66749059D01*
X178194486Y-66719500D01*
X178194481Y-66719500D01*
X178005519Y-66719500D01*
X178005514Y-66719500D01*
X177818881Y-66749059D01*
X177639163Y-66807454D01*
X177470800Y-66893240D01*
X177438855Y-66916450D01*
X177317927Y-67004310D01*
X177317925Y-67004312D01*
X177317924Y-67004312D01*
X177184312Y-67137924D01*
X177184312Y-67137925D01*
X177184310Y-67137927D01*
X177136610Y-67203579D01*
X177073240Y-67290800D01*
X176987454Y-67459163D01*
X176929059Y-67638881D01*
X176899500Y-67825513D01*
X176899500Y-68014486D01*
X176929059Y-68201118D01*
X176987454Y-68380836D01*
X177046525Y-68496768D01*
X177073240Y-68549199D01*
X177184310Y-68702073D01*
X177317927Y-68835690D01*
X177470801Y-68946760D01*
X177504150Y-68963752D01*
X177639163Y-69032545D01*
X177639165Y-69032545D01*
X177639168Y-69032547D01*
X177735497Y-69063846D01*
X177818881Y-69090940D01*
X178005514Y-69120500D01*
X178005519Y-69120500D01*
X178194486Y-69120500D01*
X178381118Y-69090940D01*
X178560832Y-69032547D01*
X178729199Y-68946760D01*
X178882073Y-68835690D01*
X179015690Y-68702073D01*
X179110475Y-68571613D01*
X179165804Y-68528949D01*
X179210792Y-68520500D01*
X179589208Y-68520500D01*
X179656247Y-68540185D01*
X179689524Y-68571612D01*
X179784310Y-68702073D01*
X179917927Y-68835690D01*
X180048386Y-68930474D01*
X180091051Y-68985803D01*
X180099500Y-69030791D01*
X180099500Y-69870397D01*
X180079815Y-69937436D01*
X180031800Y-69980879D01*
X180018389Y-69987712D01*
X179852786Y-70108028D01*
X179708028Y-70252786D01*
X179587715Y-70418386D01*
X179494781Y-70600776D01*
X179431522Y-70795465D01*
X179399500Y-70997648D01*
X179399500Y-71202351D01*
X179431522Y-71404534D01*
X179494781Y-71599223D01*
X179545876Y-71699500D01*
X179575775Y-71758181D01*
X179587715Y-71781613D01*
X179708028Y-71947213D01*
X179852786Y-72091971D01*
X180007749Y-72204556D01*
X180018390Y-72212287D01*
X180134607Y-72271503D01*
X180200776Y-72305218D01*
X180200778Y-72305218D01*
X180200781Y-72305220D01*
X180395466Y-72368477D01*
X180472329Y-72380651D01*
X180535464Y-72410580D01*
X180572395Y-72469892D01*
X180571397Y-72539754D01*
X180532787Y-72597987D01*
X180477122Y-72624741D01*
X180408318Y-72638427D01*
X180408310Y-72638429D01*
X180226325Y-72713809D01*
X180226318Y-72713813D01*
X180190979Y-72737426D01*
X180190978Y-72737426D01*
X180653554Y-73200000D01*
X180647339Y-73200000D01*
X180545606Y-73227259D01*
X180454394Y-73279920D01*
X180379920Y-73354394D01*
X180327259Y-73445606D01*
X180300000Y-73547339D01*
X180300000Y-73553552D01*
X179837426Y-73090978D01*
X179837426Y-73090979D01*
X179813813Y-73126318D01*
X179813809Y-73126325D01*
X179738429Y-73308310D01*
X179738427Y-73308318D01*
X179700000Y-73501504D01*
X179700000Y-73698495D01*
X179738427Y-73891681D01*
X179738430Y-73891693D01*
X179813808Y-74073673D01*
X179813809Y-74073675D01*
X179837425Y-74109019D01*
X180300000Y-73646445D01*
X180300000Y-73652661D01*
X180327259Y-73754394D01*
X180379920Y-73845606D01*
X180454394Y-73920080D01*
X180545606Y-73972741D01*
X180647339Y-74000000D01*
X180653553Y-74000000D01*
X180190979Y-74462572D01*
X180226330Y-74486193D01*
X180231700Y-74489064D01*
X180230902Y-74490555D01*
X180279002Y-74529306D01*
X180301076Y-74595597D01*
X180283807Y-74663298D01*
X180264837Y-74687721D01*
X172657370Y-82295189D01*
X172648954Y-82299784D01*
X172643141Y-82307412D01*
X172618784Y-82316258D01*
X172596047Y-82328674D01*
X172586483Y-82327990D01*
X172577469Y-82331264D01*
X172552198Y-82325538D01*
X172526355Y-82323690D01*
X172516862Y-82317531D01*
X172509326Y-82315824D01*
X172495201Y-82303478D01*
X172481255Y-82294430D01*
X172475417Y-82288491D01*
X172405246Y-82194754D01*
X172322112Y-82132520D01*
X172315520Y-82125813D01*
X172303298Y-82102965D01*
X172287772Y-82082224D01*
X172287088Y-82072659D01*
X172282565Y-82064204D01*
X172284636Y-82038375D01*
X172282788Y-82012532D01*
X172287383Y-82004116D01*
X172288150Y-81994558D01*
X172303855Y-81973950D01*
X172316273Y-81951210D01*
X172334742Y-81932741D01*
X172353294Y-81914189D01*
X172468925Y-81755037D01*
X172558235Y-81579756D01*
X172619026Y-81392661D01*
X172621981Y-81374003D01*
X172649800Y-81198365D01*
X172649800Y-81001632D01*
X172619026Y-80807336D01*
X172558233Y-80620237D01*
X172490063Y-80486447D01*
X172468925Y-80444961D01*
X172353294Y-80285809D01*
X172214190Y-80146705D01*
X172137395Y-80090910D01*
X172094731Y-80035581D01*
X172088752Y-79965967D01*
X172094418Y-79946418D01*
X172115746Y-79890476D01*
X173353075Y-79890476D01*
X173353075Y-79890477D01*
X173363684Y-79897567D01*
X173363689Y-79897569D01*
X173527479Y-79965413D01*
X173527487Y-79965415D01*
X173701353Y-79999999D01*
X173701357Y-80000000D01*
X173878643Y-80000000D01*
X173878646Y-79999999D01*
X174052512Y-79965415D01*
X174052524Y-79965412D01*
X174216306Y-79897572D01*
X174226922Y-79890476D01*
X174226923Y-79890476D01*
X173790001Y-79453554D01*
X173790000Y-79453554D01*
X173353075Y-79890476D01*
X172115746Y-79890476D01*
X172121591Y-79875144D01*
X171700000Y-79453554D01*
X171332168Y-79821385D01*
X171270845Y-79854870D01*
X171263886Y-79856177D01*
X171107336Y-79880973D01*
X170920238Y-79941765D01*
X170744961Y-80031074D01*
X170680466Y-80077933D01*
X170585810Y-80146705D01*
X170585808Y-80146707D01*
X170585807Y-80146707D01*
X170446708Y-80285806D01*
X170446708Y-80285807D01*
X170446706Y-80285809D01*
X170426128Y-80314132D01*
X170331072Y-80444964D01*
X170328820Y-80448640D01*
X170277007Y-80495513D01*
X170208076Y-80506933D01*
X170143915Y-80479274D01*
X170135414Y-80471527D01*
X169715024Y-80051137D01*
X169695028Y-80031140D01*
X169695027Y-80031140D01*
X169639122Y-79975235D01*
X169633679Y-79969792D01*
X169633369Y-79969519D01*
X169549734Y-79885884D01*
X169549733Y-79885883D01*
X169549726Y-79885876D01*
X169545273Y-79882073D01*
X169350633Y-79715831D01*
X169237262Y-79619001D01*
X168904821Y-79377465D01*
X168606233Y-79194486D01*
X168554457Y-79162757D01*
X168554444Y-79162750D01*
X168462203Y-79115750D01*
X168257316Y-79011353D01*
X170800000Y-79011353D01*
X170800000Y-79188646D01*
X170834584Y-79362512D01*
X170834586Y-79362520D01*
X170902430Y-79526311D01*
X170909522Y-79536923D01*
X171346446Y-79100000D01*
X171300368Y-79053922D01*
X171350000Y-79053922D01*
X171350000Y-79146078D01*
X171373852Y-79235095D01*
X171419930Y-79314905D01*
X171485095Y-79380070D01*
X171564905Y-79426148D01*
X171653922Y-79450000D01*
X171746078Y-79450000D01*
X171835095Y-79426148D01*
X171914905Y-79380070D01*
X171980070Y-79314905D01*
X172026148Y-79235095D01*
X172050000Y-79146078D01*
X172050000Y-79099999D01*
X172053554Y-79099999D01*
X172053554Y-79100001D01*
X172490476Y-79536923D01*
X172490476Y-79536922D01*
X172497572Y-79526306D01*
X172565412Y-79362524D01*
X172565415Y-79362512D01*
X172599999Y-79188646D01*
X172600000Y-79188643D01*
X172600000Y-79011357D01*
X172599999Y-79011353D01*
X172890000Y-79011353D01*
X172890000Y-79188646D01*
X172924584Y-79362512D01*
X172924586Y-79362520D01*
X172992430Y-79526311D01*
X172999522Y-79536923D01*
X173436446Y-79100000D01*
X173390368Y-79053922D01*
X173440000Y-79053922D01*
X173440000Y-79146078D01*
X173463852Y-79235095D01*
X173509930Y-79314905D01*
X173575095Y-79380070D01*
X173654905Y-79426148D01*
X173743922Y-79450000D01*
X173836078Y-79450000D01*
X173925095Y-79426148D01*
X174004905Y-79380070D01*
X174070070Y-79314905D01*
X174116148Y-79235095D01*
X174140000Y-79146078D01*
X174140000Y-79099999D01*
X174143554Y-79099999D01*
X174143554Y-79100001D01*
X174580476Y-79536923D01*
X174580476Y-79536922D01*
X174587572Y-79526306D01*
X174655412Y-79362524D01*
X174655415Y-79362512D01*
X174689999Y-79188646D01*
X174690000Y-79188643D01*
X174690000Y-79011357D01*
X174689999Y-79011353D01*
X174655415Y-78837487D01*
X174655413Y-78837479D01*
X174587569Y-78673689D01*
X174587567Y-78673684D01*
X174580477Y-78663075D01*
X174143554Y-79099999D01*
X174140000Y-79099999D01*
X174140000Y-79053922D01*
X174116148Y-78964905D01*
X174070070Y-78885095D01*
X174004905Y-78819930D01*
X173925095Y-78773852D01*
X173836078Y-78750000D01*
X173743922Y-78750000D01*
X173654905Y-78773852D01*
X173575095Y-78819930D01*
X173509930Y-78885095D01*
X173463852Y-78964905D01*
X173440000Y-79053922D01*
X173390368Y-79053922D01*
X172999522Y-78663076D01*
X172999521Y-78663076D01*
X172992429Y-78673691D01*
X172924586Y-78837479D01*
X172924584Y-78837487D01*
X172890000Y-79011353D01*
X172599999Y-79011353D01*
X172565415Y-78837487D01*
X172565413Y-78837479D01*
X172497569Y-78673689D01*
X172497567Y-78673684D01*
X172490477Y-78663075D01*
X172490476Y-78663075D01*
X172053554Y-79099999D01*
X172050000Y-79099999D01*
X172050000Y-79053922D01*
X172026148Y-78964905D01*
X171980070Y-78885095D01*
X171914905Y-78819930D01*
X171835095Y-78773852D01*
X171746078Y-78750000D01*
X171653922Y-78750000D01*
X171564905Y-78773852D01*
X171485095Y-78819930D01*
X171419930Y-78885095D01*
X171373852Y-78964905D01*
X171350000Y-79053922D01*
X171300368Y-79053922D01*
X170909522Y-78663076D01*
X170909521Y-78663076D01*
X170902429Y-78673691D01*
X170834586Y-78837479D01*
X170834584Y-78837487D01*
X170800000Y-79011353D01*
X168257316Y-79011353D01*
X168188330Y-78976202D01*
X167808687Y-78818946D01*
X167808686Y-78818945D01*
X167808682Y-78818944D01*
X167417873Y-78691959D01*
X167018306Y-78596029D01*
X166875312Y-78573380D01*
X166612445Y-78531744D01*
X166202794Y-78499501D01*
X166202782Y-78499500D01*
X166076384Y-78499500D01*
X166076383Y-78499500D01*
X165190792Y-78499500D01*
X165185542Y-78497958D01*
X165180182Y-78499045D01*
X165152376Y-78488219D01*
X165123753Y-78479815D01*
X165118819Y-78475155D01*
X165115073Y-78473697D01*
X165090475Y-78448387D01*
X165090474Y-78448386D01*
X164995690Y-78317927D01*
X164987284Y-78309521D01*
X171263076Y-78309521D01*
X171263076Y-78309522D01*
X171700000Y-78746446D01*
X171700001Y-78746446D01*
X172136923Y-78309522D01*
X172136922Y-78309521D01*
X173353076Y-78309521D01*
X173353076Y-78309522D01*
X173790000Y-78746446D01*
X173790001Y-78746446D01*
X174226923Y-78309522D01*
X174216311Y-78302430D01*
X174052520Y-78234586D01*
X174052512Y-78234584D01*
X173878646Y-78200000D01*
X173701353Y-78200000D01*
X173527487Y-78234584D01*
X173527479Y-78234586D01*
X173363691Y-78302429D01*
X173353076Y-78309521D01*
X172136922Y-78309521D01*
X172126311Y-78302430D01*
X171962520Y-78234586D01*
X171962512Y-78234584D01*
X171788646Y-78200000D01*
X171611353Y-78200000D01*
X171437487Y-78234584D01*
X171437479Y-78234586D01*
X171273691Y-78302429D01*
X171263076Y-78309521D01*
X164987284Y-78309521D01*
X164862073Y-78184310D01*
X164709199Y-78073240D01*
X164684166Y-78060485D01*
X164540836Y-77987454D01*
X164361118Y-77929059D01*
X164174486Y-77899500D01*
X164174481Y-77899500D01*
X163985519Y-77899500D01*
X163985514Y-77899500D01*
X163794070Y-77929822D01*
X163793704Y-77927516D01*
X163733476Y-77924407D01*
X163676724Y-77883652D01*
X163651015Y-77818684D01*
X163650500Y-77807390D01*
X163650500Y-77590476D01*
X173353075Y-77590476D01*
X173353075Y-77590477D01*
X173363684Y-77597567D01*
X173363689Y-77597569D01*
X173527479Y-77665413D01*
X173527487Y-77665415D01*
X173701353Y-77699999D01*
X173701357Y-77700000D01*
X173878643Y-77700000D01*
X173878646Y-77699999D01*
X174052512Y-77665415D01*
X174052524Y-77665412D01*
X174216306Y-77597572D01*
X174226922Y-77590476D01*
X174226923Y-77590476D01*
X173790001Y-77153554D01*
X173790000Y-77153554D01*
X173353075Y-77590476D01*
X163650500Y-77590476D01*
X163650500Y-76865781D01*
X163666087Y-76812697D01*
X170050000Y-76812697D01*
X170064800Y-76925104D01*
X170064801Y-76925108D01*
X170122736Y-77064978D01*
X170214905Y-77185094D01*
X170335021Y-77277263D01*
X170474891Y-77335198D01*
X170474895Y-77335199D01*
X170587302Y-77349999D01*
X170587317Y-77350000D01*
X171000000Y-77350000D01*
X171500000Y-77350000D01*
X171912683Y-77350000D01*
X171912697Y-77349999D01*
X172025104Y-77335199D01*
X172025108Y-77335198D01*
X172164978Y-77277263D01*
X172285094Y-77185094D01*
X172377263Y-77064978D01*
X172435198Y-76925108D01*
X172435199Y-76925104D01*
X172449999Y-76812697D01*
X172450000Y-76812683D01*
X172450000Y-76711353D01*
X172890000Y-76711353D01*
X172890000Y-76888646D01*
X172924584Y-77062512D01*
X172924586Y-77062520D01*
X172992430Y-77226311D01*
X172999522Y-77236923D01*
X173436446Y-76800000D01*
X173390368Y-76753922D01*
X173440000Y-76753922D01*
X173440000Y-76846078D01*
X173463852Y-76935095D01*
X173509930Y-77014905D01*
X173575095Y-77080070D01*
X173654905Y-77126148D01*
X173743922Y-77150000D01*
X173836078Y-77150000D01*
X173925095Y-77126148D01*
X174004905Y-77080070D01*
X174070070Y-77014905D01*
X174116148Y-76935095D01*
X174140000Y-76846078D01*
X174140000Y-76799999D01*
X174143554Y-76799999D01*
X174143554Y-76800001D01*
X174580476Y-77236923D01*
X174580476Y-77236922D01*
X174587572Y-77226306D01*
X174655412Y-77062524D01*
X174655415Y-77062512D01*
X174689999Y-76888646D01*
X174690000Y-76888643D01*
X174690000Y-76711357D01*
X174689999Y-76711353D01*
X174655415Y-76537487D01*
X174655413Y-76537479D01*
X174587569Y-76373689D01*
X174587567Y-76373684D01*
X174580477Y-76363075D01*
X174580476Y-76363075D01*
X174143554Y-76799999D01*
X174140000Y-76799999D01*
X174140000Y-76753922D01*
X174116148Y-76664905D01*
X174070070Y-76585095D01*
X174004905Y-76519930D01*
X173925095Y-76473852D01*
X173836078Y-76450000D01*
X173743922Y-76450000D01*
X173654905Y-76473852D01*
X173575095Y-76519930D01*
X173509930Y-76585095D01*
X173463852Y-76664905D01*
X173440000Y-76753922D01*
X173390368Y-76753922D01*
X172999522Y-76363076D01*
X172999521Y-76363076D01*
X172992429Y-76373691D01*
X172924586Y-76537479D01*
X172924584Y-76537487D01*
X172890000Y-76711353D01*
X172450000Y-76711353D01*
X172450000Y-76650000D01*
X171500000Y-76650000D01*
X171500000Y-77350000D01*
X171000000Y-77350000D01*
X171000000Y-76650000D01*
X170050000Y-76650000D01*
X170050000Y-76812697D01*
X163666087Y-76812697D01*
X163670185Y-76798742D01*
X163686815Y-76778104D01*
X163989617Y-76475301D01*
X164050938Y-76441818D01*
X164111406Y-76443767D01*
X164272582Y-76489886D01*
X164391963Y-76500500D01*
X165508036Y-76500499D01*
X165627418Y-76489886D01*
X165823049Y-76433909D01*
X166003407Y-76339698D01*
X166161109Y-76211109D01*
X166289698Y-76053407D01*
X166383909Y-75873049D01*
X166439886Y-75677418D01*
X166450500Y-75558037D01*
X166450500Y-75224500D01*
X166470185Y-75157461D01*
X166522989Y-75111706D01*
X166574500Y-75100500D01*
X169962076Y-75100500D01*
X170029115Y-75120185D01*
X170039763Y-75127853D01*
X170150704Y-75217030D01*
X170150707Y-75217032D01*
X170327329Y-75304628D01*
X170325970Y-75307367D01*
X170371371Y-75341142D01*
X170395984Y-75406533D01*
X170381337Y-75474850D01*
X170340615Y-75516680D01*
X170341467Y-75517791D01*
X170214905Y-75614905D01*
X170122736Y-75735021D01*
X170064801Y-75874891D01*
X170064800Y-75874895D01*
X170050000Y-75987302D01*
X170050000Y-76150000D01*
X172450000Y-76150000D01*
X172450000Y-76009521D01*
X173353076Y-76009521D01*
X173353076Y-76009522D01*
X173790000Y-76446446D01*
X173790001Y-76446446D01*
X174226923Y-76009522D01*
X174216311Y-76002430D01*
X174052520Y-75934586D01*
X174052512Y-75934584D01*
X173878646Y-75900000D01*
X173701353Y-75900000D01*
X173527487Y-75934584D01*
X173527479Y-75934586D01*
X173363691Y-76002429D01*
X173353076Y-76009521D01*
X172450000Y-76009521D01*
X172450000Y-75987316D01*
X172449999Y-75987302D01*
X172435199Y-75874895D01*
X172435198Y-75874891D01*
X172377263Y-75735021D01*
X172285094Y-75614905D01*
X172158533Y-75517791D01*
X172159443Y-75516604D01*
X172117457Y-75472570D01*
X172104233Y-75403963D01*
X172130201Y-75339099D01*
X172174010Y-75307327D01*
X172172671Y-75304628D01*
X172349292Y-75217032D01*
X172349292Y-75217031D01*
X172349296Y-75217030D01*
X172497722Y-75097722D01*
X172617030Y-74949296D01*
X172701641Y-74778693D01*
X172747600Y-74593889D01*
X172750500Y-74551123D01*
X172750499Y-73648878D01*
X172747600Y-73606111D01*
X172701641Y-73421307D01*
X172698933Y-73415846D01*
X172617032Y-73250707D01*
X172617030Y-73250704D01*
X172497722Y-73102278D01*
X172497721Y-73102277D01*
X172428514Y-73046647D01*
X172388595Y-72989304D01*
X172386015Y-72919482D01*
X172421594Y-72859349D01*
X172428514Y-72853353D01*
X172437909Y-72845800D01*
X172497722Y-72797722D01*
X172617030Y-72649296D01*
X172701641Y-72478693D01*
X172747600Y-72293889D01*
X172750183Y-72255789D01*
X172774358Y-72190237D01*
X172830137Y-72148160D01*
X172899810Y-72142918D01*
X172961256Y-72176177D01*
X172961580Y-72176500D01*
X173663181Y-72878101D01*
X173696666Y-72939424D01*
X173699500Y-72965782D01*
X173699500Y-73647870D01*
X173699501Y-73647876D01*
X173705908Y-73707483D01*
X173756202Y-73842328D01*
X173756206Y-73842335D01*
X173842452Y-73957544D01*
X173842455Y-73957547D01*
X173957664Y-74043793D01*
X173957671Y-74043797D01*
X174092517Y-74094091D01*
X174092516Y-74094091D01*
X174099444Y-74094835D01*
X174152127Y-74100500D01*
X175847872Y-74100499D01*
X175907483Y-74094091D01*
X176042331Y-74043796D01*
X176157546Y-73957546D01*
X176243796Y-73842331D01*
X176259585Y-73800000D01*
X176292011Y-73713060D01*
X176333882Y-73657126D01*
X176399346Y-73632708D01*
X176467619Y-73647559D01*
X176477084Y-73653290D01*
X176526315Y-73686185D01*
X176526328Y-73686192D01*
X176708306Y-73761569D01*
X176708318Y-73761572D01*
X176901504Y-73799999D01*
X176901508Y-73800000D01*
X177098492Y-73800000D01*
X177098495Y-73799999D01*
X177291681Y-73761572D01*
X177291693Y-73761569D01*
X177473676Y-73686190D01*
X177473680Y-73686187D01*
X177509019Y-73662573D01*
X177509020Y-73662572D01*
X177429546Y-73583098D01*
X177046447Y-73200000D01*
X177052661Y-73200000D01*
X177154394Y-73172741D01*
X177245606Y-73120080D01*
X177320080Y-73045606D01*
X177372741Y-72954394D01*
X177400000Y-72852661D01*
X177400000Y-72846448D01*
X177862572Y-73309020D01*
X177862573Y-73309019D01*
X177886187Y-73273680D01*
X177886190Y-73273676D01*
X177961569Y-73091693D01*
X177961572Y-73091681D01*
X177999999Y-72898495D01*
X178000000Y-72898492D01*
X178000000Y-72701508D01*
X177999999Y-72701504D01*
X177961572Y-72508318D01*
X177961569Y-72508306D01*
X177886192Y-72326328D01*
X177862572Y-72290979D01*
X177400000Y-72753551D01*
X177400000Y-72747339D01*
X177372741Y-72645606D01*
X177320080Y-72554394D01*
X177245606Y-72479920D01*
X177154394Y-72427259D01*
X177052661Y-72400000D01*
X177046446Y-72400000D01*
X177509019Y-71937426D01*
X177473675Y-71913809D01*
X177473673Y-71913808D01*
X177291693Y-71838430D01*
X177291681Y-71838427D01*
X177098495Y-71800000D01*
X176901504Y-71800000D01*
X176708318Y-71838427D01*
X176708306Y-71838430D01*
X176526328Y-71913807D01*
X176526312Y-71913816D01*
X176477082Y-71946710D01*
X176410405Y-71967587D01*
X176343025Y-71949101D01*
X176296335Y-71897122D01*
X176292011Y-71886940D01*
X176243797Y-71757671D01*
X176243793Y-71757664D01*
X176157547Y-71642455D01*
X176157544Y-71642452D01*
X176042335Y-71556206D01*
X176042328Y-71556202D01*
X175907482Y-71505908D01*
X175907483Y-71505908D01*
X175847883Y-71499501D01*
X175847881Y-71499500D01*
X175847873Y-71499500D01*
X175847865Y-71499500D01*
X175165782Y-71499500D01*
X175098743Y-71479815D01*
X175078101Y-71463181D01*
X174127601Y-70512681D01*
X174094116Y-70451358D01*
X174099100Y-70381666D01*
X174127601Y-70337319D01*
X174528102Y-69936818D01*
X174589425Y-69903333D01*
X174615783Y-69900499D01*
X175227871Y-69900499D01*
X175227872Y-69900499D01*
X175287483Y-69894091D01*
X175422331Y-69843796D01*
X175537546Y-69757546D01*
X175623796Y-69642331D01*
X175674091Y-69507483D01*
X175680500Y-69447873D01*
X175680499Y-67152128D01*
X175674091Y-67092517D01*
X175669124Y-67079201D01*
X175623797Y-66957671D01*
X175623793Y-66957664D01*
X175537547Y-66842455D01*
X175537544Y-66842452D01*
X175422335Y-66756206D01*
X175422328Y-66756202D01*
X175287482Y-66705908D01*
X175287484Y-66705908D01*
X175250393Y-66701921D01*
X175185842Y-66675183D01*
X175145994Y-66617790D01*
X175143501Y-66547965D01*
X175175966Y-66490953D01*
X178877139Y-62789782D01*
X178986631Y-62625915D01*
X178986632Y-62625914D01*
X179030811Y-62519255D01*
X179062051Y-62443836D01*
X179100500Y-62250541D01*
X179100500Y-62053460D01*
X179100500Y-61005632D01*
X179120185Y-60938593D01*
X179124177Y-60932753D01*
X179126760Y-60929199D01*
X179212547Y-60760832D01*
X179270940Y-60581118D01*
X179277527Y-60539530D01*
X179284419Y-60524989D01*
X179286482Y-60509032D01*
X179299077Y-60494069D01*
X179307456Y-60476395D01*
X179321115Y-60467889D01*
X179331478Y-60455580D01*
X179350164Y-60449802D01*
X179366768Y-60439464D01*
X179382857Y-60439693D01*
X179398229Y-60434941D01*
X179417071Y-60440182D01*
G37*
%TD.AperFunction*%
%TD*%
M02*
