%TF.GenerationSoftware,KiCad,Pcbnew,9.0.0*%
%TF.CreationDate,2025-04-02T21:34:46+01:00*%
%TF.ProjectId,gloves dryer,676c6f76-6573-4206-9472-7965722e6b69,rev?*%
%TF.SameCoordinates,Original*%
%TF.FileFunction,Soldermask,Bot*%
%TF.FilePolarity,Negative*%
%FSLAX46Y46*%
G04 Gerber Fmt 4.6, Leading zero omitted, Abs format (unit mm)*
G04 Created by KiCad (PCBNEW 9.0.0) date 2025-04-02 21:34:46*
%MOMM*%
%LPD*%
G01*
G04 APERTURE LIST*
%ADD10R,1.600000X1.600000*%
%ADD11C,1.600000*%
%ADD12C,1.400000*%
%ADD13O,1.400000X1.400000*%
%ADD14R,1.350000X1.350000*%
%ADD15O,1.350000X1.350000*%
%ADD16R,1.500000X1.500000*%
%ADD17C,1.500000*%
%ADD18R,1.320800X1.320800*%
%ADD19C,1.320800*%
%ADD20C,1.800000*%
%ADD21R,2.200000X2.200000*%
%ADD22O,2.200000X2.200000*%
%ADD23R,1.295400X1.295400*%
%ADD24C,1.295400*%
%ADD25C,1.498600*%
%ADD26C,2.000000*%
G04 APERTURE END LIST*
D10*
%TO.C,C1*%
X175000000Y-72800000D03*
D11*
X177000000Y-72800000D03*
%TD*%
D12*
%TO.C,R8*%
X171700000Y-79100000D03*
D13*
X164080000Y-79100000D03*
%TD*%
D10*
%TO.C,C2*%
X180650000Y-55300000D03*
D11*
X178150000Y-55300000D03*
%TD*%
D14*
%TO.C,J1*%
X196850000Y-52750000D03*
D15*
X196850000Y-54750000D03*
X196850000Y-56750000D03*
%TD*%
D12*
%TO.C,R2*%
X197300000Y-59590000D03*
D13*
X197300000Y-67210000D03*
%TD*%
D12*
%TO.C,R5*%
X180700000Y-67920000D03*
D13*
X180700000Y-60300000D03*
%TD*%
D12*
%TO.C,R3*%
X194700000Y-69590000D03*
D13*
X194700000Y-77210000D03*
%TD*%
D14*
%TO.C,J7*%
X193100000Y-85800000D03*
D15*
X193100000Y-87800000D03*
%TD*%
D14*
%TO.C,J5*%
X186700000Y-85800000D03*
D15*
X186700000Y-87800000D03*
%TD*%
D16*
%TO.C,Q1*%
X191830000Y-81560000D03*
D17*
X194370000Y-81560000D03*
X196910000Y-81560000D03*
%TD*%
D18*
%TO.C,U1*%
X184680000Y-57100000D03*
D19*
X184680000Y-59640000D03*
X184680000Y-62180000D03*
X184680000Y-64720000D03*
X184680000Y-67260000D03*
X184680000Y-69800000D03*
X184680000Y-72340000D03*
X192300000Y-72340000D03*
X192300000Y-69800000D03*
X192300000Y-67260000D03*
X192300000Y-64720000D03*
X192300000Y-62180000D03*
X192300000Y-59640000D03*
X192300000Y-57100000D03*
%TD*%
D14*
%TO.C,J6*%
X184490000Y-52750000D03*
D15*
X186490000Y-52750000D03*
X188490000Y-52750000D03*
X190490000Y-52750000D03*
X192490000Y-52750000D03*
%TD*%
D12*
%TO.C,R7*%
X173790000Y-79100000D03*
D13*
X181410000Y-79100000D03*
%TD*%
D12*
%TO.C,R6*%
X178100000Y-67920000D03*
D13*
X178100000Y-60300000D03*
%TD*%
D12*
%TO.C,R4*%
X197300000Y-69590000D03*
D13*
X197300000Y-77210000D03*
%TD*%
D20*
%TO.C,J4*%
X169000000Y-60650000D03*
D11*
X169000000Y-56150000D03*
%TD*%
%TO.C,C3*%
X180700000Y-71100000D03*
X180700000Y-73600000D03*
%TD*%
D21*
%TO.C,D1*%
X174080000Y-68300000D03*
D22*
X163920000Y-68300000D03*
%TD*%
D23*
%TO.C,SW3*%
X165699200Y-83200000D03*
D24*
X165699200Y-85200000D03*
X165699200Y-87200001D03*
D25*
X165699200Y-81099999D03*
X165699200Y-89300000D03*
%TD*%
D26*
%TO.C,SW1*%
X180649200Y-81950000D03*
X180649200Y-88450000D03*
X176149200Y-81950000D03*
X176149200Y-88450000D03*
%TD*%
D12*
%TO.C,R1*%
X194700000Y-59590000D03*
D13*
X194700000Y-67210000D03*
%TD*%
D16*
%TO.C,Q2*%
X183920000Y-81560000D03*
D17*
X186460000Y-81560000D03*
X189000000Y-81560000D03*
%TD*%
D23*
%TO.C,SW2*%
X171400000Y-83200000D03*
D24*
X171400000Y-85200000D03*
X171400000Y-87200001D03*
D25*
X171400000Y-81099999D03*
X171400000Y-89300000D03*
%TD*%
D12*
%TO.C,R10*%
X173790000Y-76800000D03*
D13*
X181410000Y-76800000D03*
%TD*%
M02*
