%TF.GenerationSoftware,KiCad,Pcbnew,9.0.0*%
%TF.CreationDate,2025-03-19T20:29:17+00:00*%
%TF.ProjectId,gloves dryer,676c6f76-6573-4206-9472-7965722e6b69,rev?*%
%TF.SameCoordinates,Original*%
%TF.FileFunction,Copper,L2,Bot*%
%TF.FilePolarity,Positive*%
%FSLAX46Y46*%
G04 Gerber Fmt 4.6, Leading zero omitted, Abs format (unit mm)*
G04 Created by KiCad (PCBNEW 9.0.0) date 2025-03-19 20:29:17*
%MOMM*%
%LPD*%
G01*
G04 APERTURE LIST*
%TA.AperFunction,ComponentPad*%
%ADD10C,1.600000*%
%TD*%
%TA.AperFunction,ComponentPad*%
%ADD11R,1.350000X1.350000*%
%TD*%
%TA.AperFunction,ComponentPad*%
%ADD12O,1.350000X1.350000*%
%TD*%
%TA.AperFunction,ComponentPad*%
%ADD13C,1.400000*%
%TD*%
%TA.AperFunction,ComponentPad*%
%ADD14O,1.400000X1.400000*%
%TD*%
%TA.AperFunction,ComponentPad*%
%ADD15R,1.050000X1.500000*%
%TD*%
%TA.AperFunction,ComponentPad*%
%ADD16O,1.050000X1.500000*%
%TD*%
%TA.AperFunction,ComponentPad*%
%ADD17R,1.320800X1.320800*%
%TD*%
%TA.AperFunction,ComponentPad*%
%ADD18C,1.320800*%
%TD*%
%TA.AperFunction,ComponentPad*%
%ADD19R,2.200000X2.200000*%
%TD*%
%TA.AperFunction,ComponentPad*%
%ADD20O,2.200000X2.200000*%
%TD*%
%TA.AperFunction,ComponentPad*%
%ADD21C,2.000000*%
%TD*%
%TA.AperFunction,Conductor*%
%ADD22C,0.500000*%
%TD*%
%TA.AperFunction,Conductor*%
%ADD23C,0.200000*%
%TD*%
G04 APERTURE END LIST*
D10*
%TO.P,C1,1*%
%TO.N,/VDDG_12V*%
X177500000Y-66000000D03*
%TO.P,C1,2*%
%TO.N,GND*%
X177500000Y-64000000D03*
%TD*%
%TO.P,C2,1*%
%TO.N,/VDD_5V*%
X175250000Y-74000000D03*
%TO.P,C2,2*%
%TO.N,GND*%
X177750000Y-74000000D03*
%TD*%
D11*
%TO.P,J1,1,Pin_1*%
%TO.N,/IO_SENS*%
X195500000Y-67000000D03*
D12*
%TO.P,J1,2,Pin_2*%
%TO.N,/VDD_5V*%
X195500000Y-65000000D03*
%TO.P,J1,3,Pin_3*%
%TO.N,GND*%
X195500000Y-63000000D03*
%TD*%
D13*
%TO.P,R2,1*%
%TO.N,Net-(R1-Pad2)*%
X194500000Y-52190000D03*
D14*
%TO.P,R2,2*%
%TO.N,Net-(Q1-B)*%
X194500000Y-59810000D03*
%TD*%
D13*
%TO.P,R5,1*%
%TO.N,Net-(C3-Pad1)*%
X181850000Y-52190000D03*
D14*
%TO.P,R5,2*%
%TO.N,/MCLR*%
X181850000Y-59810000D03*
%TD*%
D13*
%TO.P,R3,1*%
%TO.N,/IF1*%
X188200000Y-59800000D03*
D14*
%TO.P,R3,2*%
%TO.N,Net-(R3-Pad2)*%
X188200000Y-52180000D03*
%TD*%
D11*
%TO.P,J7,1,Pin_1*%
%TO.N,/VDDG_12V*%
X193000000Y-86000000D03*
D12*
%TO.P,J7,2,Pin_2*%
%TO.N,/F2-*%
X193000000Y-88000000D03*
%TD*%
D11*
%TO.P,J5,1,Pin_1*%
%TO.N,/VDDG_12V*%
X186500000Y-86000000D03*
D12*
%TO.P,J5,2,Pin_2*%
%TO.N,/F1-*%
X186500000Y-88000000D03*
%TD*%
D15*
%TO.P,Q1,1,E*%
%TO.N,GND*%
X192960000Y-81500000D03*
D16*
%TO.P,Q1,2,B*%
%TO.N,Net-(Q1-B)*%
X194230000Y-81500000D03*
%TO.P,Q1,3,C*%
%TO.N,/F2-*%
X195500000Y-81500000D03*
%TD*%
D17*
%TO.P,U1,1,VDD*%
%TO.N,/VDD_5V*%
X181880000Y-64500000D03*
D18*
%TO.P,U1,2,RA5*%
%TO.N,unconnected-(U1-RA5-Pad2)*%
X181880000Y-67040000D03*
%TO.P,U1,3,RA4*%
%TO.N,unconnected-(U1-RA4-Pad3)*%
X181880000Y-69580000D03*
%TO.P,U1,4,RA3/\u002AMCLR/VPP*%
%TO.N,/MCLR*%
X181880000Y-72120000D03*
%TO.P,U1,5,RC5*%
%TO.N,/BT1*%
X181880000Y-74660000D03*
%TO.P,U1,6,RC4*%
%TO.N,/BT2*%
X181880000Y-77200000D03*
%TO.P,U1,7,RC3*%
%TO.N,unconnected-(U1-RC3-Pad7)*%
X181880000Y-79740000D03*
%TO.P,U1,8,RC2*%
%TO.N,/IO_SENS*%
X189500000Y-79740000D03*
%TO.P,U1,9,RC1*%
%TO.N,/IF2*%
X189500000Y-77200000D03*
%TO.P,U1,10,RC0*%
%TO.N,/IF1*%
X189500000Y-74660000D03*
%TO.P,U1,11,RA2*%
%TO.N,unconnected-(U1-RA2-Pad11)*%
X189500000Y-72120000D03*
%TO.P,U1,12,RA1/ICSPCLK*%
%TO.N,/CLK*%
X189500000Y-69580000D03*
%TO.P,U1,13,RA0/ICSPDAT*%
%TO.N,/DAT*%
X189500000Y-67040000D03*
%TO.P,U1,14,VSS*%
%TO.N,GND*%
X189500000Y-64500000D03*
%TD*%
D11*
%TO.P,J6,1,Pin_1*%
%TO.N,/MCLR*%
X192500000Y-63000000D03*
D12*
%TO.P,J6,2,Pin_2*%
%TO.N,/VDD_5V*%
X192500000Y-65000000D03*
%TO.P,J6,3,Pin_3*%
%TO.N,GND*%
X192500000Y-67000000D03*
%TO.P,J6,4,Pin_4*%
%TO.N,/DAT*%
X192500000Y-69000000D03*
%TO.P,J6,5,Pin_5*%
%TO.N,/CLK*%
X192500000Y-71000000D03*
%TD*%
D13*
%TO.P,R6,1*%
%TO.N,Net-(C3-Pad1)*%
X178700000Y-52190000D03*
D14*
%TO.P,R6,2*%
%TO.N,/VDD_5V*%
X178700000Y-59810000D03*
%TD*%
D13*
%TO.P,R4,1*%
%TO.N,Net-(R3-Pad2)*%
X185000000Y-52190000D03*
D14*
%TO.P,R4,2*%
%TO.N,Net-(Q2-B)*%
X185000000Y-59810000D03*
%TD*%
D10*
%TO.P,C3,1*%
%TO.N,Net-(C3-Pad1)*%
X175000000Y-79500000D03*
%TO.P,C3,2*%
%TO.N,GND*%
X177500000Y-79500000D03*
%TD*%
D19*
%TO.P,D1,1,K*%
%TO.N,/VDDG_12V*%
X173660000Y-69000000D03*
D20*
%TO.P,D1,2,A*%
%TO.N,/VDD_12V*%
X163500000Y-69000000D03*
%TD*%
D21*
%TO.P,SW1,1,1*%
%TO.N,/VDD_5V*%
X173750000Y-84000000D03*
X180250000Y-84000000D03*
%TO.P,SW1,2,2*%
%TO.N,/BT1*%
X173750000Y-88500000D03*
X180250000Y-88500000D03*
%TD*%
D13*
%TO.P,R1,1*%
%TO.N,/IF2*%
X191400000Y-59800000D03*
D14*
%TO.P,R1,2*%
%TO.N,Net-(R1-Pad2)*%
X191400000Y-52180000D03*
%TD*%
D15*
%TO.P,Q2,1,E*%
%TO.N,GND*%
X193000000Y-76000000D03*
D16*
%TO.P,Q2,2,B*%
%TO.N,Net-(Q2-B)*%
X194270000Y-76000000D03*
%TO.P,Q2,3,C*%
%TO.N,/F1-*%
X195540000Y-76000000D03*
%TD*%
D21*
%TO.P,SW2,1,1*%
%TO.N,/VDD_5V*%
X163750000Y-84000000D03*
X170250000Y-84000000D03*
%TO.P,SW2,2,2*%
%TO.N,/BT2*%
X163750000Y-88500000D03*
X170250000Y-88500000D03*
%TD*%
D22*
%TO.N,/F1-*%
X187626000Y-85674000D02*
X187626000Y-86077797D01*
X195540000Y-76280000D02*
X195540000Y-76000000D01*
X188474528Y-83625471D02*
X195342010Y-76757989D01*
X187063000Y-87437000D02*
X186500000Y-88000000D01*
X188474528Y-83625471D02*
G75*
G03*
X187626012Y-85674000I2048572J-2048529D01*
G01*
X187063000Y-87437000D02*
G75*
G03*
X187625999Y-86077797I-1359200J1359200D01*
G01*
X195540000Y-76280000D02*
G75*
G02*
X195342015Y-76757994I-676000J0D01*
G01*
D23*
%TO.N,Net-(Q1-B)*%
X196476000Y-62444199D02*
X196476000Y-77440838D01*
X196010583Y-61320583D02*
X194500000Y-59810000D01*
X194230000Y-81387500D02*
X194230000Y-81500000D01*
X194309549Y-81195450D02*
X195353000Y-80152000D01*
X195353000Y-80152000D02*
G75*
G03*
X196476016Y-77440838I-2711200J2711200D01*
G01*
X196010583Y-61320583D02*
G75*
G02*
X196476010Y-62444199I-1123583J-1123617D01*
G01*
X194309549Y-81195450D02*
G75*
G03*
X194230000Y-81387500I192051J-192050D01*
G01*
%TO.N,Net-(Q2-B)*%
X185505500Y-59304500D02*
X185000000Y-59810000D01*
X194302000Y-61704495D02*
X194302000Y-75945372D01*
X194286000Y-75984000D02*
X194270000Y-76000000D01*
X192098793Y-59083165D02*
X194006343Y-60990715D01*
X191412757Y-58799000D02*
X186725884Y-58799000D01*
X194302000Y-61704495D02*
G75*
G03*
X194006333Y-60990725I-1009400J-5D01*
G01*
X191412757Y-58799000D02*
G75*
G02*
X192098814Y-59083144I43J-970200D01*
G01*
X186725884Y-58799000D02*
G75*
G03*
X185505504Y-59304504I16J-1725900D01*
G01*
X194286000Y-75984000D02*
G75*
G03*
X194301989Y-75945372I-38600J38600D01*
G01*
%TO.N,/IF2*%
X191967274Y-59948174D02*
X193783535Y-61764435D01*
X193901000Y-62048021D02*
X193901000Y-71350006D01*
X192876409Y-73823590D02*
X189500000Y-77200000D01*
X191400000Y-59800000D02*
X191609550Y-59800000D01*
X193783535Y-61764435D02*
G75*
G02*
X193901000Y-62048021I-283535J-283565D01*
G01*
X193901000Y-71350006D02*
G75*
G02*
X192876410Y-73823591I-3498200J6D01*
G01*
X191609550Y-59800000D02*
G75*
G02*
X191967249Y-59948199I-50J-505900D01*
G01*
%TO.N,/IF1*%
X193018792Y-72075151D02*
X190764145Y-74329800D01*
X193500000Y-70913412D02*
X193500000Y-62362142D01*
X189966973Y-74660000D02*
X189500000Y-74660000D01*
X188700500Y-60300500D02*
X188200000Y-59800000D01*
X189908813Y-60801000D02*
X190803623Y-60801000D01*
X188700500Y-60300500D02*
G75*
G03*
X189908813Y-60800994I1208300J1208300D01*
G01*
X190803623Y-60801000D02*
G75*
G02*
X193277855Y-61825881I-23J-3499100D01*
G01*
X193500000Y-70913412D02*
G75*
G02*
X193018776Y-72075135I-1642900J12D01*
G01*
X193277868Y-61825868D02*
G75*
G02*
X193499972Y-62362142I-536268J-536232D01*
G01*
X189966973Y-74660000D02*
G75*
G03*
X190764165Y-74329820I27J1127400D01*
G01*
D22*
%TO.N,/VDD_5V*%
X176264698Y-70115301D02*
X181880000Y-64500000D01*
X175250000Y-72565000D02*
X175250000Y-74000000D01*
X175250000Y-72565000D02*
G75*
G02*
X176264698Y-70115301I3464400J0D01*
G01*
D23*
%TO.N,/BT1*%
X173750000Y-88500000D02*
X180250000Y-88500000D01*
X182360700Y-75140700D02*
X181880000Y-74660000D01*
X173750000Y-88500000D02*
X181290638Y-80959361D01*
X182559812Y-80419812D02*
X182536185Y-80443438D01*
X182841400Y-79740000D02*
X182841400Y-76301212D01*
X181913412Y-80701400D02*
G75*
G03*
X182536172Y-80443425I-12J880700D01*
G01*
X181913412Y-80701400D02*
G75*
G03*
X181290640Y-80959363I-12J-880700D01*
G01*
X182841400Y-79740000D02*
G75*
G02*
X182559812Y-80419812I-961400J0D01*
G01*
X182360700Y-75140700D02*
G75*
G02*
X182841395Y-76301212I-1160500J-1160500D01*
G01*
%TO.N,Net-(C3-Pad1)*%
X172493792Y-76993792D02*
X175000000Y-79500000D01*
X170900000Y-73146036D02*
X170900000Y-62243963D01*
X172493792Y-58396207D02*
X178700000Y-52190000D01*
X172493792Y-76993792D02*
G75*
G02*
X170899989Y-73146036I3847808J3847792D01*
G01*
X170900000Y-62243963D02*
G75*
G02*
X172493821Y-58396236I5441500J-37D01*
G01*
%TO.N,/MCLR*%
X187039998Y-63000000D02*
X192500000Y-63000000D01*
X183460000Y-70540000D02*
X181880000Y-72120000D01*
X185040000Y-64999998D02*
X185040000Y-66725542D01*
X183625787Y-61585787D02*
X181850000Y-59810000D01*
X187039998Y-63000000D02*
G75*
G02*
X183625793Y-61585781I2J4828400D01*
G01*
X187039998Y-63000000D02*
G75*
G03*
X185040000Y-64999998I2J-2000000D01*
G01*
X183460000Y-70540000D02*
G75*
G03*
X185040018Y-66725542I-3814500J3814500D01*
G01*
X183625787Y-61585787D02*
G75*
G02*
X185040008Y-64999998I-3414187J-3414213D01*
G01*
%TO.N,/BT2*%
X170249999Y-88500000D02*
X168835786Y-88500000D01*
X168835786Y-88500000D02*
X163750000Y-88500000D01*
X181496672Y-78667540D02*
X172164212Y-88000000D01*
X170249999Y-88500000D02*
X170957106Y-88500000D01*
X181880000Y-77742106D02*
X181880000Y-77200000D01*
X181496672Y-78667540D02*
G75*
G03*
X181879992Y-77742106I-925472J925440D01*
G01*
X170957106Y-88500000D02*
G75*
G03*
X172164208Y-87999996I-6J1707100D01*
G01*
%TD*%
%TA.AperFunction,Conductor*%
%TO.N,GND*%
G36*
X189035402Y-63620185D02*
G01*
X189081157Y-63672989D01*
X189091765Y-63736667D01*
X189091626Y-63738074D01*
X189447154Y-64093600D01*
X189446496Y-64093600D01*
X189343135Y-64121295D01*
X189250464Y-64174799D01*
X189174799Y-64250464D01*
X189121295Y-64343135D01*
X189093600Y-64446496D01*
X189093600Y-64447152D01*
X188738073Y-64091625D01*
X188737524Y-64092448D01*
X188672665Y-64249030D01*
X188672663Y-64249036D01*
X188639600Y-64415255D01*
X188639600Y-64584744D01*
X188639599Y-64584744D01*
X188672663Y-64750963D01*
X188672665Y-64750969D01*
X188737522Y-64907549D01*
X188737526Y-64907556D01*
X188738072Y-64908372D01*
X188738074Y-64908373D01*
X189093600Y-64552847D01*
X189093600Y-64553504D01*
X189121295Y-64656865D01*
X189174799Y-64749536D01*
X189250464Y-64825201D01*
X189343135Y-64878705D01*
X189446496Y-64906400D01*
X189447153Y-64906400D01*
X189091626Y-65261925D01*
X189091626Y-65261927D01*
X189092444Y-65262473D01*
X189092444Y-65262474D01*
X189249030Y-65327334D01*
X189249036Y-65327336D01*
X189415255Y-65360400D01*
X189584744Y-65360400D01*
X189750963Y-65327336D01*
X189750969Y-65327334D01*
X189907550Y-65262476D01*
X189908373Y-65261925D01*
X189552848Y-64906400D01*
X189553504Y-64906400D01*
X189656865Y-64878705D01*
X189749536Y-64825201D01*
X189825201Y-64749536D01*
X189878705Y-64656865D01*
X189906400Y-64553504D01*
X189906400Y-64552847D01*
X190261925Y-64908372D01*
X190262476Y-64907550D01*
X190327334Y-64750969D01*
X190327336Y-64750963D01*
X190360400Y-64584744D01*
X190360400Y-64415255D01*
X190327336Y-64249036D01*
X190327334Y-64249030D01*
X190262474Y-64092444D01*
X190261927Y-64091626D01*
X190261925Y-64091626D01*
X189906400Y-64447151D01*
X189906400Y-64446496D01*
X189878705Y-64343135D01*
X189825201Y-64250464D01*
X189749536Y-64174799D01*
X189656865Y-64121295D01*
X189553504Y-64093600D01*
X189552847Y-64093600D01*
X189908372Y-63738074D01*
X189908231Y-63736633D01*
X189921261Y-63667989D01*
X189969335Y-63617287D01*
X190031636Y-63600500D01*
X191200501Y-63600500D01*
X191267540Y-63620185D01*
X191313295Y-63672989D01*
X191323437Y-63719611D01*
X191324099Y-63719576D01*
X191324146Y-63719571D01*
X191324146Y-63719573D01*
X191324324Y-63719564D01*
X191324501Y-63722876D01*
X191330908Y-63782483D01*
X191381202Y-63917328D01*
X191381206Y-63917335D01*
X191467452Y-64032544D01*
X191467453Y-64032544D01*
X191467454Y-64032546D01*
X191494324Y-64052661D01*
X191552539Y-64096241D01*
X191594409Y-64152175D01*
X191599393Y-64221867D01*
X191578545Y-64268392D01*
X191494624Y-64383900D01*
X191410620Y-64548764D01*
X191410619Y-64548767D01*
X191353445Y-64724734D01*
X191324500Y-64907486D01*
X191324500Y-65092513D01*
X191353445Y-65275265D01*
X191410619Y-65451232D01*
X191410620Y-65451235D01*
X191488557Y-65604193D01*
X191494622Y-65616096D01*
X191603379Y-65765787D01*
X191734213Y-65896621D01*
X191883904Y-66005378D01*
X191965806Y-66047109D01*
X191995924Y-66062455D01*
X192046720Y-66110430D01*
X192063515Y-66178251D01*
X192040978Y-66244386D01*
X192008520Y-66276042D01*
X191942220Y-66320342D01*
X191942216Y-66320345D01*
X191820345Y-66442216D01*
X191820342Y-66442220D01*
X191724588Y-66585525D01*
X191724581Y-66585538D01*
X191658626Y-66744769D01*
X191658624Y-66744776D01*
X191657585Y-66749999D01*
X191657586Y-66750000D01*
X192184314Y-66750000D01*
X192179920Y-66754394D01*
X192127259Y-66845606D01*
X192100000Y-66947339D01*
X192100000Y-67052661D01*
X192127259Y-67154394D01*
X192179920Y-67245606D01*
X192184314Y-67250000D01*
X191657586Y-67250000D01*
X191658624Y-67255223D01*
X191658626Y-67255230D01*
X191724581Y-67414461D01*
X191724588Y-67414474D01*
X191820342Y-67557779D01*
X191820345Y-67557783D01*
X191942217Y-67679655D01*
X192008519Y-67723956D01*
X192053325Y-67777568D01*
X192062032Y-67846893D01*
X192031878Y-67909921D01*
X191995925Y-67937543D01*
X191883905Y-67994620D01*
X191812585Y-68046438D01*
X191734213Y-68103379D01*
X191734211Y-68103381D01*
X191734210Y-68103381D01*
X191603381Y-68234210D01*
X191603381Y-68234211D01*
X191603379Y-68234213D01*
X191593371Y-68247988D01*
X191494622Y-68383903D01*
X191410620Y-68548764D01*
X191410619Y-68548767D01*
X191353445Y-68724734D01*
X191324500Y-68907486D01*
X191324500Y-69092513D01*
X191353445Y-69275265D01*
X191410619Y-69451232D01*
X191410620Y-69451235D01*
X191493747Y-69614379D01*
X191494622Y-69616096D01*
X191603379Y-69765787D01*
X191734213Y-69896621D01*
X191738432Y-69899686D01*
X191781094Y-69955019D01*
X191787069Y-70024633D01*
X191754459Y-70086426D01*
X191738432Y-70100314D01*
X191734210Y-70103381D01*
X191603381Y-70234210D01*
X191603381Y-70234211D01*
X191603379Y-70234213D01*
X191556672Y-70298499D01*
X191494622Y-70383903D01*
X191410620Y-70548764D01*
X191410619Y-70548767D01*
X191353445Y-70724734D01*
X191324500Y-70907486D01*
X191324500Y-71092513D01*
X191353445Y-71275265D01*
X191410619Y-71451232D01*
X191410620Y-71451235D01*
X191494622Y-71616096D01*
X191603379Y-71765787D01*
X191734213Y-71896621D01*
X191883904Y-72005378D01*
X191947046Y-72037550D01*
X191967289Y-72047865D01*
X192018085Y-72095840D01*
X192034880Y-72163661D01*
X192012342Y-72229796D01*
X191998675Y-72246031D01*
X190450915Y-73793792D01*
X190389592Y-73827277D01*
X190319900Y-73822293D01*
X190275553Y-73793792D01*
X190256278Y-73774517D01*
X190256276Y-73774515D01*
X190108444Y-73667109D01*
X189945631Y-73584152D01*
X189771845Y-73527685D01*
X189771843Y-73527684D01*
X189771841Y-73527684D01*
X189675802Y-73512473D01*
X189612667Y-73482544D01*
X189575736Y-73423232D01*
X189576734Y-73353370D01*
X189615344Y-73295137D01*
X189675802Y-73267527D01*
X189713101Y-73261619D01*
X189771845Y-73252315D01*
X189945631Y-73195848D01*
X190108444Y-73112891D01*
X190256276Y-73005485D01*
X190385485Y-72876276D01*
X190492891Y-72728444D01*
X190575848Y-72565631D01*
X190632315Y-72391845D01*
X190645019Y-72311631D01*
X190660900Y-72211370D01*
X190660900Y-72028629D01*
X190632315Y-71848158D01*
X190632315Y-71848155D01*
X190575848Y-71674369D01*
X190492891Y-71511556D01*
X190385485Y-71363724D01*
X190256276Y-71234515D01*
X190108444Y-71127109D01*
X189945631Y-71044152D01*
X189771845Y-70987685D01*
X189771843Y-70987684D01*
X189771841Y-70987684D01*
X189675802Y-70972473D01*
X189612667Y-70942544D01*
X189575736Y-70883232D01*
X189576734Y-70813370D01*
X189615344Y-70755137D01*
X189675802Y-70727527D01*
X189713101Y-70721619D01*
X189771845Y-70712315D01*
X189945631Y-70655848D01*
X190108444Y-70572891D01*
X190256276Y-70465485D01*
X190385485Y-70336276D01*
X190492891Y-70188444D01*
X190575848Y-70025631D01*
X190632315Y-69851845D01*
X190654029Y-69714748D01*
X190660900Y-69671370D01*
X190660900Y-69488629D01*
X190632315Y-69308158D01*
X190632315Y-69308155D01*
X190575848Y-69134369D01*
X190492891Y-68971556D01*
X190385485Y-68823724D01*
X190256276Y-68694515D01*
X190108444Y-68587109D01*
X189945631Y-68504152D01*
X189771845Y-68447685D01*
X189771843Y-68447684D01*
X189771841Y-68447684D01*
X189675802Y-68432473D01*
X189612667Y-68402544D01*
X189575736Y-68343232D01*
X189576734Y-68273370D01*
X189615344Y-68215137D01*
X189675802Y-68187527D01*
X189713101Y-68181619D01*
X189771845Y-68172315D01*
X189945631Y-68115848D01*
X190108444Y-68032891D01*
X190256276Y-67925485D01*
X190385485Y-67796276D01*
X190492891Y-67648444D01*
X190575848Y-67485631D01*
X190632315Y-67311845D01*
X190657253Y-67154394D01*
X190660900Y-67131370D01*
X190660900Y-66948629D01*
X190632315Y-66768158D01*
X190632315Y-66768155D01*
X190575848Y-66594369D01*
X190492891Y-66431556D01*
X190385485Y-66283724D01*
X190256276Y-66154515D01*
X190108444Y-66047109D01*
X189945631Y-65964152D01*
X189771845Y-65907685D01*
X189771843Y-65907684D01*
X189771841Y-65907684D01*
X189591370Y-65879100D01*
X189591365Y-65879100D01*
X189408635Y-65879100D01*
X189408630Y-65879100D01*
X189228158Y-65907684D01*
X189228155Y-65907685D01*
X189117840Y-65943529D01*
X189054366Y-65964153D01*
X188891555Y-66047109D01*
X188743721Y-66154517D01*
X188614517Y-66283721D01*
X188507109Y-66431555D01*
X188424153Y-66594366D01*
X188367684Y-66768158D01*
X188339100Y-66948629D01*
X188339100Y-67131370D01*
X188364369Y-67290908D01*
X188367685Y-67311845D01*
X188424152Y-67485631D01*
X188507109Y-67648444D01*
X188614515Y-67796276D01*
X188743724Y-67925485D01*
X188891556Y-68032891D01*
X189054369Y-68115848D01*
X189228155Y-68172315D01*
X189272212Y-68179293D01*
X189324197Y-68187527D01*
X189387332Y-68217456D01*
X189424263Y-68276768D01*
X189423265Y-68346631D01*
X189384655Y-68404863D01*
X189324197Y-68432473D01*
X189228158Y-68447684D01*
X189054366Y-68504153D01*
X188891555Y-68587109D01*
X188743721Y-68694517D01*
X188614517Y-68823721D01*
X188507109Y-68971555D01*
X188424153Y-69134366D01*
X188367684Y-69308158D01*
X188339100Y-69488629D01*
X188339100Y-69671370D01*
X188366210Y-69842535D01*
X188367685Y-69851845D01*
X188424152Y-70025631D01*
X188507109Y-70188444D01*
X188614515Y-70336276D01*
X188743724Y-70465485D01*
X188891556Y-70572891D01*
X189054369Y-70655848D01*
X189228155Y-70712315D01*
X189272212Y-70719293D01*
X189324197Y-70727527D01*
X189387332Y-70757456D01*
X189424263Y-70816768D01*
X189423265Y-70886631D01*
X189384655Y-70944863D01*
X189324197Y-70972473D01*
X189228158Y-70987684D01*
X189054366Y-71044153D01*
X188891555Y-71127109D01*
X188743721Y-71234517D01*
X188614517Y-71363721D01*
X188507109Y-71511555D01*
X188424153Y-71674366D01*
X188367684Y-71848158D01*
X188339100Y-72028629D01*
X188339100Y-72211370D01*
X188365963Y-72380974D01*
X188367685Y-72391845D01*
X188424152Y-72565631D01*
X188507109Y-72728444D01*
X188614515Y-72876276D01*
X188743724Y-73005485D01*
X188891556Y-73112891D01*
X189054369Y-73195848D01*
X189228155Y-73252315D01*
X189272212Y-73259293D01*
X189324197Y-73267527D01*
X189387332Y-73297456D01*
X189424263Y-73356768D01*
X189423265Y-73426631D01*
X189384655Y-73484863D01*
X189324197Y-73512473D01*
X189228158Y-73527684D01*
X189054366Y-73584153D01*
X188891555Y-73667109D01*
X188743721Y-73774517D01*
X188614517Y-73903721D01*
X188507109Y-74051555D01*
X188424153Y-74214366D01*
X188367684Y-74388158D01*
X188339100Y-74568629D01*
X188339100Y-74751370D01*
X188366407Y-74923779D01*
X188367685Y-74931845D01*
X188424152Y-75105631D01*
X188507109Y-75268444D01*
X188614515Y-75416276D01*
X188743724Y-75545485D01*
X188891556Y-75652891D01*
X189054369Y-75735848D01*
X189228155Y-75792315D01*
X189270716Y-75799056D01*
X189324197Y-75807527D01*
X189387332Y-75837456D01*
X189424263Y-75896768D01*
X189423265Y-75966631D01*
X189384655Y-76024863D01*
X189324197Y-76052473D01*
X189228158Y-76067684D01*
X189054366Y-76124153D01*
X188891555Y-76207109D01*
X188743721Y-76314517D01*
X188614517Y-76443721D01*
X188507109Y-76591555D01*
X188424153Y-76754366D01*
X188367684Y-76928158D01*
X188339100Y-77108629D01*
X188339100Y-77291370D01*
X188367684Y-77471841D01*
X188367685Y-77471845D01*
X188424152Y-77645631D01*
X188507109Y-77808444D01*
X188614515Y-77956276D01*
X188743724Y-78085485D01*
X188891556Y-78192891D01*
X189054369Y-78275848D01*
X189228155Y-78332315D01*
X189272212Y-78339293D01*
X189324197Y-78347527D01*
X189387332Y-78377456D01*
X189424263Y-78436768D01*
X189423265Y-78506631D01*
X189384655Y-78564863D01*
X189324197Y-78592473D01*
X189228158Y-78607684D01*
X189054366Y-78664153D01*
X188891555Y-78747109D01*
X188743721Y-78854517D01*
X188614517Y-78983721D01*
X188507109Y-79131555D01*
X188424153Y-79294366D01*
X188367684Y-79468158D01*
X188339100Y-79648629D01*
X188339100Y-79831370D01*
X188367684Y-80011839D01*
X188367685Y-80011845D01*
X188424152Y-80185631D01*
X188507109Y-80348444D01*
X188614515Y-80496276D01*
X188743724Y-80625485D01*
X188891556Y-80732891D01*
X189054369Y-80815848D01*
X189228155Y-80872315D01*
X189295835Y-80883034D01*
X189408630Y-80900900D01*
X189408635Y-80900900D01*
X189591370Y-80900900D01*
X189771839Y-80872316D01*
X189771839Y-80872315D01*
X189771845Y-80872315D01*
X189864962Y-80842058D01*
X189934799Y-80840063D01*
X189994632Y-80876143D01*
X190025461Y-80938844D01*
X190017497Y-81008258D01*
X189990958Y-81047671D01*
X187999617Y-83039013D01*
X187980165Y-83058465D01*
X187980125Y-83058486D01*
X187817127Y-83221488D01*
X187589769Y-83498529D01*
X187589764Y-83498536D01*
X187390662Y-83796519D01*
X187390659Y-83796525D01*
X187221723Y-84112587D01*
X187084578Y-84443688D01*
X187084576Y-84443694D01*
X186995756Y-84736496D01*
X186957461Y-84794933D01*
X186893649Y-84823390D01*
X186877097Y-84824500D01*
X185777129Y-84824500D01*
X185777123Y-84824501D01*
X185717516Y-84830908D01*
X185582671Y-84881202D01*
X185582664Y-84881206D01*
X185467455Y-84967452D01*
X185467452Y-84967455D01*
X185381206Y-85082664D01*
X185381202Y-85082671D01*
X185330908Y-85217517D01*
X185327090Y-85253035D01*
X185324501Y-85277123D01*
X185324500Y-85277135D01*
X185324500Y-86722870D01*
X185324501Y-86722876D01*
X185330908Y-86782483D01*
X185381202Y-86917328D01*
X185381206Y-86917335D01*
X185467452Y-87032544D01*
X185467453Y-87032544D01*
X185467454Y-87032546D01*
X185515450Y-87068476D01*
X185552539Y-87096241D01*
X185594409Y-87152175D01*
X185599393Y-87221867D01*
X185578545Y-87268392D01*
X185494624Y-87383900D01*
X185410620Y-87548764D01*
X185410619Y-87548767D01*
X185353445Y-87724734D01*
X185324500Y-87907486D01*
X185324500Y-88092513D01*
X185353445Y-88275265D01*
X185410619Y-88451232D01*
X185410620Y-88451235D01*
X185494622Y-88616096D01*
X185603379Y-88765787D01*
X185734213Y-88896621D01*
X185883904Y-89005378D01*
X185964763Y-89046577D01*
X186048764Y-89089379D01*
X186048767Y-89089380D01*
X186082992Y-89100500D01*
X186224736Y-89146555D01*
X186407486Y-89175500D01*
X186407487Y-89175500D01*
X186592513Y-89175500D01*
X186592514Y-89175500D01*
X186775264Y-89146555D01*
X186951235Y-89089379D01*
X187116096Y-89005378D01*
X187265787Y-88896621D01*
X187396621Y-88765787D01*
X187505378Y-88616096D01*
X187589379Y-88451235D01*
X187646555Y-88275264D01*
X187675500Y-88092514D01*
X187675500Y-87935433D01*
X187695185Y-87868394D01*
X187702553Y-87858120D01*
X187886984Y-87626851D01*
X188046696Y-87372671D01*
X188176944Y-87102208D01*
X188276091Y-86818861D01*
X188342890Y-86526196D01*
X188376500Y-86227892D01*
X188376500Y-86077796D01*
X188376500Y-85998915D01*
X188376500Y-85677480D01*
X188376695Y-85670528D01*
X188381968Y-85576632D01*
X188389607Y-85440599D01*
X188391161Y-85426805D01*
X188416590Y-85277135D01*
X191824500Y-85277135D01*
X191824500Y-86722870D01*
X191824501Y-86722876D01*
X191830908Y-86782483D01*
X191881202Y-86917328D01*
X191881206Y-86917335D01*
X191967452Y-87032544D01*
X191967453Y-87032544D01*
X191967454Y-87032546D01*
X192015450Y-87068476D01*
X192052539Y-87096241D01*
X192094409Y-87152175D01*
X192099393Y-87221867D01*
X192078545Y-87268392D01*
X191994624Y-87383900D01*
X191910620Y-87548764D01*
X191910619Y-87548767D01*
X191853445Y-87724734D01*
X191824500Y-87907486D01*
X191824500Y-88092513D01*
X191853445Y-88275265D01*
X191910619Y-88451232D01*
X191910620Y-88451235D01*
X191994622Y-88616096D01*
X192103379Y-88765787D01*
X192234213Y-88896621D01*
X192383904Y-89005378D01*
X192464763Y-89046577D01*
X192548764Y-89089379D01*
X192548767Y-89089380D01*
X192582992Y-89100500D01*
X192724736Y-89146555D01*
X192907486Y-89175500D01*
X192907487Y-89175500D01*
X193092513Y-89175500D01*
X193092514Y-89175500D01*
X193275264Y-89146555D01*
X193451235Y-89089379D01*
X193616096Y-89005378D01*
X193765787Y-88896621D01*
X193896621Y-88765787D01*
X194005378Y-88616096D01*
X194089379Y-88451235D01*
X194146555Y-88275264D01*
X194175500Y-88092514D01*
X194175500Y-87907486D01*
X194146555Y-87724736D01*
X194115278Y-87628474D01*
X194089380Y-87548767D01*
X194089379Y-87548764D01*
X194005377Y-87383903D01*
X193997216Y-87372671D01*
X193921453Y-87268392D01*
X193897974Y-87202586D01*
X193913799Y-87134532D01*
X193947459Y-87096241D01*
X194032546Y-87032546D01*
X194118796Y-86917331D01*
X194169091Y-86782483D01*
X194175500Y-86722873D01*
X194175499Y-85277128D01*
X194169091Y-85217517D01*
X194163754Y-85203209D01*
X194118797Y-85082671D01*
X194118793Y-85082664D01*
X194032547Y-84967455D01*
X194032544Y-84967452D01*
X193917335Y-84881206D01*
X193917328Y-84881202D01*
X193782482Y-84830908D01*
X193782483Y-84830908D01*
X193722883Y-84824501D01*
X193722881Y-84824500D01*
X193722873Y-84824500D01*
X193722864Y-84824500D01*
X192277129Y-84824500D01*
X192277123Y-84824501D01*
X192217516Y-84830908D01*
X192082671Y-84881202D01*
X192082664Y-84881206D01*
X191967455Y-84967452D01*
X191967452Y-84967455D01*
X191881206Y-85082664D01*
X191881202Y-85082671D01*
X191830908Y-85217517D01*
X191827090Y-85253035D01*
X191824501Y-85277123D01*
X191824500Y-85277135D01*
X188416590Y-85277135D01*
X188429152Y-85203201D01*
X188432245Y-85189653D01*
X188445249Y-85144517D01*
X188495031Y-84971716D01*
X188499623Y-84958595D01*
X188555166Y-84824501D01*
X188586412Y-84749064D01*
X188592439Y-84736549D01*
X188702152Y-84538034D01*
X188709533Y-84526287D01*
X188840783Y-84341303D01*
X188849442Y-84330445D01*
X189002763Y-84158876D01*
X189007508Y-84153857D01*
X192023320Y-81138045D01*
X192084642Y-81104561D01*
X192154334Y-81109545D01*
X192210267Y-81151417D01*
X192234684Y-81216881D01*
X192235000Y-81225727D01*
X192235000Y-81250000D01*
X192679670Y-81250000D01*
X192659925Y-81269745D01*
X192610556Y-81355255D01*
X192585000Y-81450630D01*
X192585000Y-81549370D01*
X192610556Y-81644745D01*
X192659925Y-81730255D01*
X192679670Y-81750000D01*
X192235000Y-81750000D01*
X192235000Y-82269702D01*
X192246602Y-82328033D01*
X192246603Y-82328034D01*
X192290808Y-82394191D01*
X192356965Y-82438396D01*
X192356966Y-82438397D01*
X192415297Y-82449999D01*
X192415301Y-82450000D01*
X192710000Y-82450000D01*
X192710000Y-81780330D01*
X192729745Y-81800075D01*
X192815255Y-81849444D01*
X192910630Y-81875000D01*
X193009370Y-81875000D01*
X193104745Y-81849444D01*
X193190255Y-81800075D01*
X193204500Y-81785830D01*
X193204500Y-81826002D01*
X193207617Y-81841671D01*
X193210000Y-81865865D01*
X193210000Y-82450000D01*
X193453362Y-82450000D01*
X193520401Y-82469685D01*
X193541044Y-82486320D01*
X193576278Y-82521555D01*
X193576281Y-82521558D01*
X193744237Y-82633782D01*
X193744241Y-82633784D01*
X193744244Y-82633786D01*
X193930873Y-82711091D01*
X194128992Y-82750499D01*
X194128996Y-82750500D01*
X194128997Y-82750500D01*
X194331004Y-82750500D01*
X194331005Y-82750499D01*
X194529127Y-82711091D01*
X194715756Y-82633786D01*
X194796110Y-82580094D01*
X194862786Y-82559217D01*
X194930166Y-82577701D01*
X194933865Y-82580078D01*
X195014244Y-82633786D01*
X195200873Y-82711091D01*
X195398992Y-82750499D01*
X195398996Y-82750500D01*
X195398997Y-82750500D01*
X195601004Y-82750500D01*
X195601005Y-82750499D01*
X195799127Y-82711091D01*
X195985756Y-82633786D01*
X196153718Y-82521558D01*
X196296558Y-82378718D01*
X196408786Y-82210756D01*
X196486091Y-82024127D01*
X196525500Y-81826003D01*
X196525500Y-81173997D01*
X196486091Y-80975873D01*
X196408786Y-80789244D01*
X196408784Y-80789241D01*
X196408782Y-80789237D01*
X196296558Y-80621281D01*
X196153721Y-80478444D01*
X196153717Y-80478441D01*
X196094627Y-80438958D01*
X196049822Y-80385346D01*
X196041115Y-80316021D01*
X196068526Y-80256155D01*
X196163432Y-80143052D01*
X196385545Y-79825843D01*
X196579167Y-79490483D01*
X196742824Y-79139523D01*
X196783978Y-79026453D01*
X196825405Y-78970190D01*
X196890674Y-78945255D01*
X196959062Y-78959565D01*
X197008858Y-79008577D01*
X197024500Y-79068865D01*
X197024500Y-90175500D01*
X197004815Y-90242539D01*
X196952011Y-90288294D01*
X196900500Y-90299500D01*
X162149500Y-90299500D01*
X162082461Y-90279815D01*
X162036706Y-90227011D01*
X162025500Y-90175500D01*
X162025500Y-88779382D01*
X162045185Y-88712343D01*
X162097989Y-88666588D01*
X162167147Y-88656644D01*
X162230703Y-88685669D01*
X162268477Y-88744447D01*
X162271973Y-88759984D01*
X162286446Y-88851368D01*
X162359433Y-89075996D01*
X162466657Y-89286433D01*
X162605483Y-89477510D01*
X162772490Y-89644517D01*
X162963567Y-89783343D01*
X163062991Y-89834002D01*
X163174003Y-89890566D01*
X163174005Y-89890566D01*
X163174008Y-89890568D01*
X163294412Y-89929689D01*
X163398631Y-89963553D01*
X163631903Y-90000500D01*
X163631908Y-90000500D01*
X163868097Y-90000500D01*
X164101368Y-89963553D01*
X164325992Y-89890568D01*
X164536433Y-89783343D01*
X164727510Y-89644517D01*
X164894517Y-89477510D01*
X165033343Y-89286433D01*
X165093583Y-89168204D01*
X165141558Y-89117409D01*
X165204068Y-89100500D01*
X168756729Y-89100500D01*
X168795932Y-89100500D01*
X168862971Y-89120185D01*
X168906416Y-89168203D01*
X168966657Y-89286433D01*
X169105483Y-89477510D01*
X169272490Y-89644517D01*
X169463567Y-89783343D01*
X169562991Y-89834002D01*
X169674003Y-89890566D01*
X169674005Y-89890566D01*
X169674008Y-89890568D01*
X169794412Y-89929689D01*
X169898631Y-89963553D01*
X170131903Y-90000500D01*
X170131908Y-90000500D01*
X170368097Y-90000500D01*
X170601368Y-89963553D01*
X170825992Y-89890568D01*
X171036433Y-89783343D01*
X171227510Y-89644517D01*
X171394517Y-89477510D01*
X171533343Y-89286433D01*
X171640568Y-89075992D01*
X171649974Y-89047039D01*
X171689407Y-88989367D01*
X171726945Y-88968318D01*
X171841583Y-88928205D01*
X172075100Y-88815747D01*
X172106269Y-88796161D01*
X172173504Y-88777160D01*
X172240340Y-88797526D01*
X172285555Y-88850793D01*
X172290173Y-88862836D01*
X172359432Y-89075992D01*
X172466657Y-89286433D01*
X172605483Y-89477510D01*
X172772490Y-89644517D01*
X172963567Y-89783343D01*
X173062991Y-89834002D01*
X173174003Y-89890566D01*
X173174005Y-89890566D01*
X173174008Y-89890568D01*
X173294412Y-89929689D01*
X173398631Y-89963553D01*
X173631903Y-90000500D01*
X173631908Y-90000500D01*
X173868097Y-90000500D01*
X174101368Y-89963553D01*
X174325992Y-89890568D01*
X174536433Y-89783343D01*
X174727510Y-89644517D01*
X174894517Y-89477510D01*
X175033343Y-89286433D01*
X175093583Y-89168204D01*
X175141558Y-89117409D01*
X175204068Y-89100500D01*
X178795932Y-89100500D01*
X178862971Y-89120185D01*
X178906416Y-89168203D01*
X178966657Y-89286433D01*
X179105483Y-89477510D01*
X179272490Y-89644517D01*
X179463567Y-89783343D01*
X179562991Y-89834002D01*
X179674003Y-89890566D01*
X179674005Y-89890566D01*
X179674008Y-89890568D01*
X179794412Y-89929689D01*
X179898631Y-89963553D01*
X180131903Y-90000500D01*
X180131908Y-90000500D01*
X180368097Y-90000500D01*
X180601368Y-89963553D01*
X180825992Y-89890568D01*
X181036433Y-89783343D01*
X181227510Y-89644517D01*
X181394517Y-89477510D01*
X181533343Y-89286433D01*
X181640568Y-89075992D01*
X181713553Y-88851368D01*
X181722297Y-88796162D01*
X181750500Y-88618097D01*
X181750500Y-88381902D01*
X181713553Y-88148631D01*
X181640566Y-87924003D01*
X181541134Y-87728858D01*
X181533343Y-87713567D01*
X181394517Y-87522490D01*
X181227510Y-87355483D01*
X181036433Y-87216657D01*
X181008817Y-87202586D01*
X180825996Y-87109433D01*
X180601368Y-87036446D01*
X180368097Y-86999500D01*
X180368092Y-86999500D01*
X180131908Y-86999500D01*
X180131903Y-86999500D01*
X179898631Y-87036446D01*
X179674003Y-87109433D01*
X179463566Y-87216657D01*
X179354550Y-87295862D01*
X179272490Y-87355483D01*
X179272488Y-87355485D01*
X179272487Y-87355485D01*
X179105485Y-87522487D01*
X179105485Y-87522488D01*
X179105483Y-87522490D01*
X179104512Y-87523827D01*
X178966657Y-87713566D01*
X178944092Y-87757853D01*
X178908855Y-87827011D01*
X178906417Y-87831795D01*
X178858442Y-87882591D01*
X178795932Y-87899500D01*
X175499097Y-87899500D01*
X175432058Y-87879815D01*
X175386303Y-87827011D01*
X175376359Y-87757853D01*
X175405384Y-87694297D01*
X175411416Y-87687819D01*
X177822118Y-85277116D01*
X178633903Y-84465329D01*
X178695226Y-84431845D01*
X178764918Y-84436829D01*
X178820851Y-84478701D01*
X178839514Y-84514691D01*
X178859432Y-84575992D01*
X178966657Y-84786433D01*
X179105483Y-84977510D01*
X179272490Y-85144517D01*
X179463567Y-85283343D01*
X179562991Y-85334002D01*
X179674003Y-85390566D01*
X179674005Y-85390566D01*
X179674008Y-85390568D01*
X179785497Y-85426793D01*
X179898631Y-85463553D01*
X180131903Y-85500500D01*
X180131908Y-85500500D01*
X180368097Y-85500500D01*
X180601368Y-85463553D01*
X180601371Y-85463552D01*
X180825992Y-85390568D01*
X181036433Y-85283343D01*
X181227510Y-85144517D01*
X181394517Y-84977510D01*
X181533343Y-84786433D01*
X181640568Y-84575992D01*
X181713553Y-84351368D01*
X181718828Y-84318062D01*
X181750500Y-84118097D01*
X181750500Y-83881902D01*
X181713553Y-83648631D01*
X181640566Y-83424003D01*
X181537382Y-83221494D01*
X181533343Y-83213567D01*
X181394517Y-83022490D01*
X181227510Y-82855483D01*
X181036433Y-82716657D01*
X180825992Y-82609432D01*
X180764690Y-82589513D01*
X180707017Y-82550078D01*
X180679818Y-82485719D01*
X180691732Y-82416873D01*
X180715326Y-82383906D01*
X181663703Y-81435530D01*
X181663706Y-81435529D01*
X181709527Y-81389706D01*
X181721691Y-81379038D01*
X181760350Y-81349373D01*
X181788372Y-81333194D01*
X181825800Y-81317690D01*
X181857061Y-81309314D01*
X181905212Y-81302976D01*
X181921370Y-81301916D01*
X182010507Y-81301915D01*
X182203020Y-81276567D01*
X182390576Y-81226307D01*
X182569968Y-81151995D01*
X182738125Y-81054903D01*
X182892170Y-80936692D01*
X182917157Y-80911702D01*
X182942148Y-80886710D01*
X182942150Y-80886706D01*
X182984430Y-80844430D01*
X183002126Y-80826734D01*
X183040324Y-80788538D01*
X183040324Y-80788537D01*
X183049228Y-80779634D01*
X183049235Y-80779623D01*
X183056818Y-80772042D01*
X183181459Y-80609607D01*
X183283831Y-80432293D01*
X183362183Y-80243133D01*
X183415175Y-80045365D01*
X183441900Y-79842372D01*
X183441900Y-79740000D01*
X183441900Y-79667086D01*
X183441900Y-76222155D01*
X183441900Y-76213553D01*
X183441894Y-76213469D01*
X183441894Y-76207109D01*
X183441895Y-76175324D01*
X183413705Y-75925123D01*
X183357679Y-75679652D01*
X183274521Y-75441997D01*
X183227244Y-75343824D01*
X183165280Y-75215152D01*
X183165277Y-75215147D01*
X183032029Y-75003083D01*
X183013031Y-74935850D01*
X183014551Y-74917726D01*
X183029225Y-74825077D01*
X183040900Y-74751369D01*
X183040900Y-74568629D01*
X183012315Y-74388158D01*
X183012315Y-74388155D01*
X182955848Y-74214369D01*
X182872891Y-74051556D01*
X182765485Y-73903724D01*
X182636276Y-73774515D01*
X182488444Y-73667109D01*
X182325631Y-73584152D01*
X182151845Y-73527685D01*
X182151843Y-73527684D01*
X182151841Y-73527684D01*
X182055802Y-73512473D01*
X181992667Y-73482544D01*
X181955736Y-73423232D01*
X181956734Y-73353370D01*
X181995344Y-73295137D01*
X182055802Y-73267527D01*
X182093101Y-73261619D01*
X182151845Y-73252315D01*
X182325631Y-73195848D01*
X182488444Y-73112891D01*
X182636276Y-73005485D01*
X182765485Y-72876276D01*
X182872891Y-72728444D01*
X182955848Y-72565631D01*
X183012315Y-72391845D01*
X183025019Y-72311631D01*
X183040900Y-72211370D01*
X183040900Y-72028630D01*
X183020662Y-71900859D01*
X183029616Y-71831565D01*
X183055451Y-71793782D01*
X183861550Y-70987685D01*
X183884618Y-70964618D01*
X183884617Y-70964617D01*
X183920935Y-70928300D01*
X183920935Y-70928298D01*
X183940519Y-70908716D01*
X183940520Y-70908713D01*
X183946346Y-70902888D01*
X183946517Y-70902691D01*
X184036004Y-70813206D01*
X184316428Y-70489580D01*
X184573051Y-70146773D01*
X184804565Y-69786532D01*
X185009790Y-69410693D01*
X185187680Y-69021171D01*
X185337329Y-68619952D01*
X185457975Y-68209079D01*
X185458439Y-68206949D01*
X185549001Y-67790651D01*
X185549002Y-67790646D01*
X185609946Y-67366785D01*
X185640498Y-66939657D01*
X185640498Y-66819036D01*
X185640500Y-66819032D01*
X185640500Y-65051367D01*
X185640507Y-65051343D01*
X185640507Y-65004785D01*
X185640889Y-64995056D01*
X185654257Y-64825201D01*
X185656964Y-64790794D01*
X185660008Y-64771579D01*
X185665301Y-64749536D01*
X185706720Y-64577013D01*
X185712732Y-64558512D01*
X185714807Y-64553504D01*
X185789302Y-64373656D01*
X185798133Y-64356326D01*
X185805453Y-64344380D01*
X185805454Y-64344377D01*
X185820343Y-64320080D01*
X185902687Y-64185705D01*
X185914112Y-64169981D01*
X186044070Y-64017819D01*
X186057819Y-64004070D01*
X186209981Y-63874112D01*
X186225705Y-63862687D01*
X186356588Y-63782483D01*
X186396323Y-63758134D01*
X186413659Y-63749301D01*
X186598516Y-63672730D01*
X186617013Y-63666720D01*
X186811583Y-63620007D01*
X186830794Y-63616964D01*
X187035145Y-63600881D01*
X187044874Y-63600500D01*
X188968363Y-63600500D01*
X189035402Y-63620185D01*
G37*
%TD.AperFunction*%
%TA.AperFunction,Conductor*%
G36*
X177686035Y-51320185D02*
G01*
X177731790Y-51372989D01*
X177741734Y-51442147D01*
X177719314Y-51497386D01*
X177673240Y-51560800D01*
X177587454Y-51729163D01*
X177529059Y-51908881D01*
X177499500Y-52095513D01*
X177499500Y-52284486D01*
X177524725Y-52443750D01*
X177515770Y-52513043D01*
X177489933Y-52550829D01*
X172007817Y-58032946D01*
X172007419Y-58033399D01*
X171916633Y-58124184D01*
X171916607Y-58124212D01*
X171633980Y-58450374D01*
X171375352Y-58795854D01*
X171375349Y-58795858D01*
X171142009Y-59158934D01*
X170935173Y-59537719D01*
X170755877Y-59930313D01*
X170605058Y-60334663D01*
X170483465Y-60748756D01*
X170483461Y-60748771D01*
X170391718Y-61170487D01*
X170330294Y-61597683D01*
X170299501Y-62028166D01*
X170299500Y-62164904D01*
X170299500Y-73094667D01*
X170299490Y-73094701D01*
X170299490Y-73146040D01*
X170299492Y-73361832D01*
X170321327Y-73667109D01*
X170330283Y-73792316D01*
X170391706Y-74219512D01*
X170483446Y-74641225D01*
X170586435Y-74991966D01*
X170605040Y-75055330D01*
X170753153Y-75452430D01*
X170755868Y-75459709D01*
X170935146Y-75852273D01*
X170935149Y-75852280D01*
X171141987Y-76231074D01*
X171141995Y-76231087D01*
X171375307Y-76594128D01*
X171375324Y-76594152D01*
X171633957Y-76939648D01*
X171657587Y-76966918D01*
X171916587Y-77265820D01*
X172013271Y-77362504D01*
X172013273Y-77362508D01*
X172051734Y-77400969D01*
X172051735Y-77400971D01*
X172069173Y-77418408D01*
X172069173Y-77418409D01*
X172082548Y-77431783D01*
X172082552Y-77431787D01*
X173705922Y-79055157D01*
X173739407Y-79116480D01*
X173736173Y-79181155D01*
X173731522Y-79195468D01*
X173699500Y-79397648D01*
X173699500Y-79602351D01*
X173731522Y-79804534D01*
X173794781Y-79999223D01*
X173887715Y-80181613D01*
X174008028Y-80347213D01*
X174152786Y-80491971D01*
X174307749Y-80604556D01*
X174318390Y-80612287D01*
X174434607Y-80671503D01*
X174500776Y-80705218D01*
X174500778Y-80705218D01*
X174500781Y-80705220D01*
X174585944Y-80732891D01*
X174695465Y-80768477D01*
X174765800Y-80779617D01*
X174897648Y-80800500D01*
X174897649Y-80800500D01*
X175102351Y-80800500D01*
X175102352Y-80800500D01*
X175304534Y-80768477D01*
X175499219Y-80705220D01*
X175681610Y-80612287D01*
X175807648Y-80520716D01*
X175847213Y-80491971D01*
X175847215Y-80491968D01*
X175847219Y-80491966D01*
X175991966Y-80347219D01*
X176112287Y-80181610D01*
X176205220Y-79999219D01*
X176268477Y-79804534D01*
X176280651Y-79727669D01*
X176310580Y-79664536D01*
X176369891Y-79627604D01*
X176439754Y-79628602D01*
X176497987Y-79667211D01*
X176524741Y-79722877D01*
X176538427Y-79791681D01*
X176538430Y-79791693D01*
X176613808Y-79973673D01*
X176613809Y-79973675D01*
X176637425Y-80009019D01*
X177100000Y-79546445D01*
X177100000Y-79552661D01*
X177127259Y-79654394D01*
X177179920Y-79745606D01*
X177254394Y-79820080D01*
X177345606Y-79872741D01*
X177447339Y-79900000D01*
X177453553Y-79900000D01*
X176990979Y-80362572D01*
X177026328Y-80386192D01*
X177208306Y-80461569D01*
X177208318Y-80461572D01*
X177401504Y-80499999D01*
X177401508Y-80500000D01*
X177598492Y-80500000D01*
X177598495Y-80499999D01*
X177791681Y-80461572D01*
X177791693Y-80461569D01*
X177973676Y-80386190D01*
X177973680Y-80386187D01*
X178009019Y-80362573D01*
X178009020Y-80362572D01*
X177546448Y-79900000D01*
X177552661Y-79900000D01*
X177654394Y-79872741D01*
X177745606Y-79820080D01*
X177820080Y-79745606D01*
X177872741Y-79654394D01*
X177900000Y-79552661D01*
X177900000Y-79546447D01*
X178362572Y-80009020D01*
X178362573Y-80009019D01*
X178386187Y-79973680D01*
X178386190Y-79973676D01*
X178461569Y-79791693D01*
X178461572Y-79791681D01*
X178499999Y-79598495D01*
X178500000Y-79598492D01*
X178500000Y-79401508D01*
X178499999Y-79401504D01*
X178461572Y-79208318D01*
X178461569Y-79208306D01*
X178386192Y-79026328D01*
X178362572Y-78990979D01*
X177900000Y-79453551D01*
X177900000Y-79447339D01*
X177872741Y-79345606D01*
X177820080Y-79254394D01*
X177745606Y-79179920D01*
X177654394Y-79127259D01*
X177552661Y-79100000D01*
X177546447Y-79100000D01*
X178009020Y-78637426D01*
X177973675Y-78613809D01*
X177973673Y-78613808D01*
X177791693Y-78538430D01*
X177791681Y-78538427D01*
X177598495Y-78500000D01*
X177401504Y-78500000D01*
X177208318Y-78538427D01*
X177208310Y-78538429D01*
X177026325Y-78613809D01*
X177026318Y-78613813D01*
X176990979Y-78637426D01*
X176990978Y-78637426D01*
X177453554Y-79100000D01*
X177447339Y-79100000D01*
X177345606Y-79127259D01*
X177254394Y-79179920D01*
X177179920Y-79254394D01*
X177127259Y-79345606D01*
X177100000Y-79447339D01*
X177100000Y-79453552D01*
X176637426Y-78990978D01*
X176637426Y-78990979D01*
X176613813Y-79026318D01*
X176613809Y-79026325D01*
X176538429Y-79208310D01*
X176538427Y-79208318D01*
X176524741Y-79277122D01*
X176492356Y-79339033D01*
X176431640Y-79373607D01*
X176361871Y-79369868D01*
X176305199Y-79329001D01*
X176280651Y-79272329D01*
X176277810Y-79254394D01*
X176268477Y-79195466D01*
X176205220Y-79000781D01*
X176205218Y-79000778D01*
X176205218Y-79000776D01*
X176171503Y-78934607D01*
X176112287Y-78818390D01*
X175991966Y-78652781D01*
X175847219Y-78508034D01*
X175847213Y-78508028D01*
X175681613Y-78387715D01*
X175681612Y-78387714D01*
X175681610Y-78387713D01*
X175602741Y-78347527D01*
X175499223Y-78294781D01*
X175304534Y-78231522D01*
X175129995Y-78203878D01*
X175102352Y-78199500D01*
X174897648Y-78199500D01*
X174859599Y-78205526D01*
X174695468Y-78231522D01*
X174686717Y-78234365D01*
X174681154Y-78236173D01*
X174611313Y-78238167D01*
X174555157Y-78205922D01*
X172936450Y-76587215D01*
X172920121Y-76570885D01*
X172916749Y-76567377D01*
X172730474Y-76365865D01*
X172663690Y-76293618D01*
X172657372Y-76286220D01*
X172428075Y-75995357D01*
X172422352Y-75987481D01*
X172417094Y-75979612D01*
X172216575Y-75679512D01*
X172211498Y-75671228D01*
X172030525Y-75348079D01*
X172026106Y-75339408D01*
X171993406Y-75268477D01*
X171871042Y-75003048D01*
X171867317Y-74994053D01*
X171739118Y-74646561D01*
X171736114Y-74637318D01*
X171635572Y-74280826D01*
X171633308Y-74271395D01*
X171561041Y-73908094D01*
X171559525Y-73898520D01*
X171515986Y-73530678D01*
X171515225Y-73521006D01*
X171500596Y-73148728D01*
X171500500Y-73143859D01*
X171500500Y-62246385D01*
X171500596Y-62241516D01*
X171501829Y-62210129D01*
X171515235Y-61868995D01*
X171515996Y-61859325D01*
X171559534Y-61491497D01*
X171561057Y-61481887D01*
X171565674Y-61458680D01*
X171633315Y-61118628D01*
X171635588Y-61109166D01*
X171645039Y-61075653D01*
X171736131Y-60752679D01*
X171739125Y-60743462D01*
X171867338Y-60395938D01*
X171871046Y-60386986D01*
X172026122Y-60050606D01*
X172030530Y-60041955D01*
X172211515Y-59718791D01*
X172213524Y-59715513D01*
X177499500Y-59715513D01*
X177499500Y-59904486D01*
X177529059Y-60091118D01*
X177587454Y-60270836D01*
X177668145Y-60429199D01*
X177673240Y-60439199D01*
X177784310Y-60592073D01*
X177917927Y-60725690D01*
X178070801Y-60836760D01*
X178150347Y-60877290D01*
X178239163Y-60922545D01*
X178239165Y-60922545D01*
X178239168Y-60922547D01*
X178331464Y-60952536D01*
X178418881Y-60980940D01*
X178605514Y-61010500D01*
X178605519Y-61010500D01*
X178794486Y-61010500D01*
X178981118Y-60980940D01*
X179011753Y-60970986D01*
X179160832Y-60922547D01*
X179329199Y-60836760D01*
X179482073Y-60725690D01*
X179615690Y-60592073D01*
X179726760Y-60439199D01*
X179812547Y-60270832D01*
X179870940Y-60091118D01*
X179875274Y-60063752D01*
X179900500Y-59904486D01*
X179900500Y-59715513D01*
X179870940Y-59528881D01*
X179843846Y-59445497D01*
X179812547Y-59349168D01*
X179812545Y-59349165D01*
X179812545Y-59349163D01*
X179726759Y-59180800D01*
X179615690Y-59027927D01*
X179482073Y-58894310D01*
X179329199Y-58783240D01*
X179160836Y-58697454D01*
X178981118Y-58639059D01*
X178794486Y-58609500D01*
X178794481Y-58609500D01*
X178605519Y-58609500D01*
X178605514Y-58609500D01*
X178418881Y-58639059D01*
X178239163Y-58697454D01*
X178070800Y-58783240D01*
X178017623Y-58821876D01*
X177917927Y-58894310D01*
X177917925Y-58894312D01*
X177917924Y-58894312D01*
X177784312Y-59027924D01*
X177784312Y-59027925D01*
X177784310Y-59027927D01*
X177736610Y-59093579D01*
X177673240Y-59180800D01*
X177587454Y-59349163D01*
X177529059Y-59528881D01*
X177499500Y-59715513D01*
X172213524Y-59715513D01*
X172216598Y-59710498D01*
X172262532Y-59641755D01*
X172422370Y-59402544D01*
X172428078Y-59394685D01*
X172657409Y-59103786D01*
X172663710Y-59096410D01*
X172917516Y-58821850D01*
X172920814Y-58818419D01*
X172969963Y-58769272D01*
X172969964Y-58769269D01*
X178339169Y-53400064D01*
X178400490Y-53366581D01*
X178446246Y-53365274D01*
X178605514Y-53390500D01*
X178605519Y-53390500D01*
X178794486Y-53390500D01*
X178981118Y-53360940D01*
X179011753Y-53350986D01*
X179160832Y-53302547D01*
X179329199Y-53216760D01*
X179482073Y-53105690D01*
X179615690Y-52972073D01*
X179726760Y-52819199D01*
X179812547Y-52650832D01*
X179870940Y-52471118D01*
X179875275Y-52443750D01*
X179900500Y-52284486D01*
X179900500Y-52095513D01*
X179870940Y-51908881D01*
X179812545Y-51729163D01*
X179726759Y-51560800D01*
X179719494Y-51550801D01*
X179680685Y-51497385D01*
X179657206Y-51431579D01*
X179673031Y-51363525D01*
X179723137Y-51314830D01*
X179781004Y-51300500D01*
X180768996Y-51300500D01*
X180836035Y-51320185D01*
X180881790Y-51372989D01*
X180891734Y-51442147D01*
X180869314Y-51497386D01*
X180823240Y-51560800D01*
X180737454Y-51729163D01*
X180679059Y-51908881D01*
X180649500Y-52095513D01*
X180649500Y-52284486D01*
X180679059Y-52471118D01*
X180737454Y-52650836D01*
X180818145Y-52809199D01*
X180823240Y-52819199D01*
X180934310Y-52972073D01*
X181067927Y-53105690D01*
X181220801Y-53216760D01*
X181300347Y-53257290D01*
X181389163Y-53302545D01*
X181389165Y-53302545D01*
X181389168Y-53302547D01*
X181485497Y-53333846D01*
X181568881Y-53360940D01*
X181755514Y-53390500D01*
X181755519Y-53390500D01*
X181944486Y-53390500D01*
X182131118Y-53360940D01*
X182161753Y-53350986D01*
X182310832Y-53302547D01*
X182479199Y-53216760D01*
X182632073Y-53105690D01*
X182765690Y-52972073D01*
X182876760Y-52819199D01*
X182962547Y-52650832D01*
X183020940Y-52471118D01*
X183025275Y-52443750D01*
X183050500Y-52284486D01*
X183050500Y-52095513D01*
X183020940Y-51908881D01*
X182962545Y-51729163D01*
X182876759Y-51560800D01*
X182869494Y-51550801D01*
X182830685Y-51497385D01*
X182807206Y-51431579D01*
X182823031Y-51363525D01*
X182873137Y-51314830D01*
X182931004Y-51300500D01*
X183918996Y-51300500D01*
X183986035Y-51320185D01*
X184031790Y-51372989D01*
X184041734Y-51442147D01*
X184019314Y-51497386D01*
X183973240Y-51560800D01*
X183887454Y-51729163D01*
X183829059Y-51908881D01*
X183799500Y-52095513D01*
X183799500Y-52284486D01*
X183829059Y-52471118D01*
X183887454Y-52650836D01*
X183968145Y-52809199D01*
X183973240Y-52819199D01*
X184084310Y-52972073D01*
X184217927Y-53105690D01*
X184370801Y-53216760D01*
X184450347Y-53257290D01*
X184539163Y-53302545D01*
X184539165Y-53302545D01*
X184539168Y-53302547D01*
X184635497Y-53333846D01*
X184718881Y-53360940D01*
X184905514Y-53390500D01*
X184905519Y-53390500D01*
X185094486Y-53390500D01*
X185281118Y-53360940D01*
X185311753Y-53350986D01*
X185460832Y-53302547D01*
X185629199Y-53216760D01*
X185782073Y-53105690D01*
X185915690Y-52972073D01*
X186026760Y-52819199D01*
X186112547Y-52650832D01*
X186170940Y-52471118D01*
X186175275Y-52443750D01*
X186200500Y-52284486D01*
X186200500Y-52095513D01*
X186170940Y-51908881D01*
X186112545Y-51729163D01*
X186026759Y-51560800D01*
X186019494Y-51550801D01*
X185980685Y-51497385D01*
X185957206Y-51431579D01*
X185973031Y-51363525D01*
X186023137Y-51314830D01*
X186081004Y-51300500D01*
X187111731Y-51300500D01*
X187178770Y-51320185D01*
X187224525Y-51372989D01*
X187234469Y-51442147D01*
X187212049Y-51497384D01*
X187195449Y-51520232D01*
X187173240Y-51550800D01*
X187087454Y-51719163D01*
X187029059Y-51898881D01*
X186999500Y-52085513D01*
X186999500Y-52274486D01*
X187029059Y-52461118D01*
X187087454Y-52640836D01*
X187173240Y-52809199D01*
X187284310Y-52962073D01*
X187417927Y-53095690D01*
X187570801Y-53206760D01*
X187650347Y-53247290D01*
X187739163Y-53292545D01*
X187739165Y-53292545D01*
X187739168Y-53292547D01*
X187769945Y-53302547D01*
X187918881Y-53350940D01*
X188105514Y-53380500D01*
X188105519Y-53380500D01*
X188294486Y-53380500D01*
X188481118Y-53350940D01*
X188660832Y-53292547D01*
X188829199Y-53206760D01*
X188982073Y-53095690D01*
X189115690Y-52962073D01*
X189226760Y-52809199D01*
X189312547Y-52640832D01*
X189370940Y-52461118D01*
X189373691Y-52443750D01*
X189400500Y-52274486D01*
X189400500Y-52085513D01*
X189370940Y-51898881D01*
X189315796Y-51729168D01*
X189312547Y-51719168D01*
X189312545Y-51719165D01*
X189312545Y-51719163D01*
X189231855Y-51560801D01*
X189226760Y-51550801D01*
X189187950Y-51497384D01*
X189164471Y-51431580D01*
X189180296Y-51363526D01*
X189230401Y-51314831D01*
X189288269Y-51300500D01*
X190311731Y-51300500D01*
X190378770Y-51320185D01*
X190424525Y-51372989D01*
X190434469Y-51442147D01*
X190412049Y-51497384D01*
X190395449Y-51520232D01*
X190373240Y-51550800D01*
X190287454Y-51719163D01*
X190229059Y-51898881D01*
X190199500Y-52085513D01*
X190199500Y-52274486D01*
X190229059Y-52461118D01*
X190287454Y-52640836D01*
X190373240Y-52809199D01*
X190484310Y-52962073D01*
X190617927Y-53095690D01*
X190770801Y-53206760D01*
X190850347Y-53247290D01*
X190939163Y-53292545D01*
X190939165Y-53292545D01*
X190939168Y-53292547D01*
X190969945Y-53302547D01*
X191118881Y-53350940D01*
X191305514Y-53380500D01*
X191305519Y-53380500D01*
X191494486Y-53380500D01*
X191681118Y-53350940D01*
X191860832Y-53292547D01*
X192029199Y-53206760D01*
X192182073Y-53095690D01*
X192315690Y-52962073D01*
X192426760Y-52809199D01*
X192512547Y-52640832D01*
X192570940Y-52461118D01*
X192573691Y-52443750D01*
X192600500Y-52274486D01*
X192600500Y-52085513D01*
X192570940Y-51898881D01*
X192515796Y-51729168D01*
X192512547Y-51719168D01*
X192512545Y-51719165D01*
X192512545Y-51719163D01*
X192431855Y-51560801D01*
X192426760Y-51550801D01*
X192387950Y-51497384D01*
X192364471Y-51431580D01*
X192380296Y-51363526D01*
X192430401Y-51314831D01*
X192488269Y-51300500D01*
X193418996Y-51300500D01*
X193486035Y-51320185D01*
X193531790Y-51372989D01*
X193541734Y-51442147D01*
X193519314Y-51497386D01*
X193473240Y-51560800D01*
X193387454Y-51729163D01*
X193329059Y-51908881D01*
X193299500Y-52095513D01*
X193299500Y-52284486D01*
X193329059Y-52471118D01*
X193387454Y-52650836D01*
X193468145Y-52809199D01*
X193473240Y-52819199D01*
X193584310Y-52972073D01*
X193717927Y-53105690D01*
X193870801Y-53216760D01*
X193950347Y-53257290D01*
X194039163Y-53302545D01*
X194039165Y-53302545D01*
X194039168Y-53302547D01*
X194135497Y-53333846D01*
X194218881Y-53360940D01*
X194405514Y-53390500D01*
X194405519Y-53390500D01*
X194594486Y-53390500D01*
X194781118Y-53360940D01*
X194811753Y-53350986D01*
X194960832Y-53302547D01*
X195129199Y-53216760D01*
X195282073Y-53105690D01*
X195415690Y-52972073D01*
X195526760Y-52819199D01*
X195612547Y-52650832D01*
X195670940Y-52471118D01*
X195675275Y-52443750D01*
X195700500Y-52284486D01*
X195700500Y-52095513D01*
X195670940Y-51908881D01*
X195612545Y-51729163D01*
X195526759Y-51560800D01*
X195519494Y-51550801D01*
X195480685Y-51497385D01*
X195457206Y-51431579D01*
X195473031Y-51363525D01*
X195523137Y-51314830D01*
X195581004Y-51300500D01*
X196900500Y-51300500D01*
X196967539Y-51320185D01*
X197013294Y-51372989D01*
X197024500Y-51424500D01*
X197024500Y-61300225D01*
X197004815Y-61367264D01*
X196952011Y-61413019D01*
X196882853Y-61422963D01*
X196819297Y-61393938D01*
X196795507Y-61366198D01*
X196675478Y-61175176D01*
X196522144Y-60982907D01*
X196435194Y-60895959D01*
X195710066Y-60170831D01*
X195676581Y-60109508D01*
X195675274Y-60063752D01*
X195676328Y-60057102D01*
X195696409Y-59930313D01*
X195700500Y-59904486D01*
X195700500Y-59715513D01*
X195670940Y-59528881D01*
X195643846Y-59445497D01*
X195612547Y-59349168D01*
X195612545Y-59349165D01*
X195612545Y-59349163D01*
X195526759Y-59180800D01*
X195415690Y-59027927D01*
X195282073Y-58894310D01*
X195129199Y-58783240D01*
X194960836Y-58697454D01*
X194781118Y-58639059D01*
X194594486Y-58609500D01*
X194594481Y-58609500D01*
X194405519Y-58609500D01*
X194405514Y-58609500D01*
X194218881Y-58639059D01*
X194039163Y-58697454D01*
X193870800Y-58783240D01*
X193817623Y-58821876D01*
X193717927Y-58894310D01*
X193717925Y-58894312D01*
X193717924Y-58894312D01*
X193584312Y-59027924D01*
X193584312Y-59027925D01*
X193584310Y-59027927D01*
X193536610Y-59093579D01*
X193473240Y-59180800D01*
X193406399Y-59311984D01*
X193358424Y-59362780D01*
X193290603Y-59379575D01*
X193224469Y-59357038D01*
X193208233Y-59343370D01*
X192580813Y-58715950D01*
X192574961Y-58710098D01*
X192574957Y-58710091D01*
X192562312Y-58697446D01*
X192559728Y-58694862D01*
X192559675Y-58694765D01*
X192450623Y-58585723D01*
X192450612Y-58585713D01*
X192287260Y-58460377D01*
X192287258Y-58460376D01*
X192108952Y-58357439D01*
X192108951Y-58357438D01*
X192108943Y-58357434D01*
X192108942Y-58357434D01*
X192013826Y-58318040D01*
X191918702Y-58278642D01*
X191719835Y-58225365D01*
X191719824Y-58225363D01*
X191719823Y-58225363D01*
X191678994Y-58219989D01*
X191515685Y-58198496D01*
X191515681Y-58198496D01*
X191412730Y-58198500D01*
X186777246Y-58198500D01*
X186777225Y-58198494D01*
X186595228Y-58198494D01*
X186595227Y-58198495D01*
X186335593Y-58227750D01*
X186335581Y-58227752D01*
X186080847Y-58285894D01*
X186080838Y-58285897D01*
X185834216Y-58372195D01*
X185834209Y-58372198D01*
X185598791Y-58485570D01*
X185378406Y-58624048D01*
X185311169Y-58643048D01*
X185283507Y-58639633D01*
X185281119Y-58639060D01*
X185094486Y-58609500D01*
X185094481Y-58609500D01*
X184905519Y-58609500D01*
X184905514Y-58609500D01*
X184718881Y-58639059D01*
X184539163Y-58697454D01*
X184370800Y-58783240D01*
X184317623Y-58821876D01*
X184217927Y-58894310D01*
X184217925Y-58894312D01*
X184217924Y-58894312D01*
X184084312Y-59027924D01*
X184084312Y-59027925D01*
X184084310Y-59027927D01*
X184036610Y-59093579D01*
X183973240Y-59180800D01*
X183887454Y-59349163D01*
X183829059Y-59528881D01*
X183799500Y-59715513D01*
X183799500Y-59904486D01*
X183829059Y-60091118D01*
X183887454Y-60270836D01*
X183968145Y-60429199D01*
X183973240Y-60439199D01*
X184084310Y-60592073D01*
X184217927Y-60725690D01*
X184370801Y-60836760D01*
X184450347Y-60877290D01*
X184539163Y-60922545D01*
X184539165Y-60922545D01*
X184539168Y-60922547D01*
X184631464Y-60952536D01*
X184718881Y-60980940D01*
X184905514Y-61010500D01*
X184905519Y-61010500D01*
X185094486Y-61010500D01*
X185281118Y-60980940D01*
X185311753Y-60970986D01*
X185460832Y-60922547D01*
X185629199Y-60836760D01*
X185782073Y-60725690D01*
X185915690Y-60592073D01*
X186026760Y-60439199D01*
X186112547Y-60270832D01*
X186170940Y-60091118D01*
X186175274Y-60063752D01*
X186200500Y-59904486D01*
X186200500Y-59715521D01*
X186200499Y-59715513D01*
X186187942Y-59636235D01*
X186191710Y-59607075D01*
X186192760Y-59577681D01*
X186196137Y-59572816D01*
X186196896Y-59566946D01*
X186215832Y-59544450D01*
X186232608Y-59520289D01*
X186239726Y-59516065D01*
X186241892Y-59513493D01*
X186262955Y-59502282D01*
X186369111Y-59458310D01*
X186387606Y-59452300D01*
X186540353Y-59415628D01*
X186559563Y-59412585D01*
X186720961Y-59399882D01*
X186730691Y-59399500D01*
X186902783Y-59399500D01*
X186969822Y-59419185D01*
X187015577Y-59471989D01*
X187025521Y-59541147D01*
X187025256Y-59542898D01*
X186999500Y-59705513D01*
X186999500Y-59894486D01*
X187029059Y-60081118D01*
X187087454Y-60260836D01*
X187150222Y-60384024D01*
X187173240Y-60429199D01*
X187284310Y-60582073D01*
X187417927Y-60715690D01*
X187570801Y-60826760D01*
X187650347Y-60867290D01*
X187739163Y-60912545D01*
X187739165Y-60912545D01*
X187739168Y-60912547D01*
X187769945Y-60922547D01*
X187918881Y-60970940D01*
X188105514Y-61000500D01*
X188105519Y-61000500D01*
X188294486Y-61000500D01*
X188405560Y-60982907D01*
X188481118Y-60970940D01*
X188481129Y-60970936D01*
X188485853Y-60969803D01*
X188486408Y-60972114D01*
X188546417Y-60970288D01*
X188581087Y-60985277D01*
X188778256Y-61109166D01*
X188789998Y-61116544D01*
X189023678Y-61229077D01*
X189023682Y-61229079D01*
X189023685Y-61229080D01*
X189268507Y-61314746D01*
X189521382Y-61372462D01*
X189521388Y-61372462D01*
X189521396Y-61372464D01*
X189633470Y-61385090D01*
X189779129Y-61401501D01*
X189908818Y-61401500D01*
X190800567Y-61401500D01*
X190806651Y-61401648D01*
X191081649Y-61415160D01*
X191093757Y-61416352D01*
X191363087Y-61456306D01*
X191375014Y-61458679D01*
X191639149Y-61524842D01*
X191650756Y-61528364D01*
X191807097Y-61584304D01*
X191863584Y-61625423D01*
X191888875Y-61690555D01*
X191874937Y-61759021D01*
X191826197Y-61809083D01*
X191778574Y-61824345D01*
X191717516Y-61830908D01*
X191582671Y-61881202D01*
X191582664Y-61881206D01*
X191467455Y-61967452D01*
X191467452Y-61967455D01*
X191381206Y-62082664D01*
X191381202Y-62082671D01*
X191330908Y-62217517D01*
X191324501Y-62277116D01*
X191324322Y-62280452D01*
X191323065Y-62280384D01*
X191304815Y-62342539D01*
X191252011Y-62388294D01*
X191200500Y-62399500D01*
X187042704Y-62399500D01*
X187037295Y-62399382D01*
X186676917Y-62383647D01*
X186666141Y-62382704D01*
X186311202Y-62335975D01*
X186300548Y-62334097D01*
X185951016Y-62256607D01*
X185940568Y-62253807D01*
X185599126Y-62146151D01*
X185588960Y-62142451D01*
X185258202Y-62005445D01*
X185248398Y-62000873D01*
X184930839Y-61835561D01*
X184921471Y-61830152D01*
X184619542Y-61637801D01*
X184610680Y-61631597D01*
X184326640Y-61413644D01*
X184318354Y-61406690D01*
X184052266Y-61162864D01*
X184048358Y-61159123D01*
X183060066Y-60170831D01*
X183026581Y-60109508D01*
X183025274Y-60063752D01*
X183026328Y-60057102D01*
X183046409Y-59930313D01*
X183050500Y-59904486D01*
X183050500Y-59715513D01*
X183020940Y-59528881D01*
X182993846Y-59445497D01*
X182962547Y-59349168D01*
X182962545Y-59349165D01*
X182962545Y-59349163D01*
X182876759Y-59180800D01*
X182765690Y-59027927D01*
X182632073Y-58894310D01*
X182479199Y-58783240D01*
X182310836Y-58697454D01*
X182131118Y-58639059D01*
X181944486Y-58609500D01*
X181944481Y-58609500D01*
X181755519Y-58609500D01*
X181755514Y-58609500D01*
X181568881Y-58639059D01*
X181389163Y-58697454D01*
X181220800Y-58783240D01*
X181167623Y-58821876D01*
X181067927Y-58894310D01*
X181067925Y-58894312D01*
X181067924Y-58894312D01*
X180934312Y-59027924D01*
X180934312Y-59027925D01*
X180934310Y-59027927D01*
X180886610Y-59093579D01*
X180823240Y-59180800D01*
X180737454Y-59349163D01*
X180679059Y-59528881D01*
X180649500Y-59715513D01*
X180649500Y-59904486D01*
X180679059Y-60091118D01*
X180737454Y-60270836D01*
X180818145Y-60429199D01*
X180823240Y-60439199D01*
X180934310Y-60592073D01*
X181067927Y-60725690D01*
X181220801Y-60836760D01*
X181300347Y-60877290D01*
X181389163Y-60922545D01*
X181389165Y-60922545D01*
X181389168Y-60922547D01*
X181481464Y-60952536D01*
X181568881Y-60980940D01*
X181755514Y-61010500D01*
X181755519Y-61010500D01*
X181944486Y-61010500D01*
X182068245Y-60990898D01*
X182103753Y-60985274D01*
X182173045Y-60994228D01*
X182210831Y-61020066D01*
X183199237Y-62008472D01*
X183202955Y-62012355D01*
X183446703Y-62278358D01*
X183453644Y-62286629D01*
X183671602Y-62570676D01*
X183677806Y-62579538D01*
X183870158Y-62881468D01*
X183875567Y-62890836D01*
X184040879Y-63208395D01*
X184045451Y-63218199D01*
X184182457Y-63548959D01*
X184186157Y-63559124D01*
X184293814Y-63900565D01*
X184296614Y-63911014D01*
X184374104Y-64260547D01*
X184375982Y-64271201D01*
X184422711Y-64626140D01*
X184423654Y-64636916D01*
X184439382Y-64997134D01*
X184439500Y-65002543D01*
X184439500Y-66723110D01*
X184439404Y-66727979D01*
X184424910Y-67096797D01*
X184424146Y-67106504D01*
X184381045Y-67470636D01*
X184379522Y-67480252D01*
X184307985Y-67839885D01*
X184305712Y-67849352D01*
X184206183Y-68202250D01*
X184203174Y-68211510D01*
X184076255Y-68555532D01*
X184072530Y-68564527D01*
X183919013Y-68897528D01*
X183914592Y-68906203D01*
X183735434Y-69226112D01*
X183730347Y-69234414D01*
X183526629Y-69539298D01*
X183520906Y-69547175D01*
X183293898Y-69835132D01*
X183287575Y-69842535D01*
X183234655Y-69899784D01*
X183174694Y-69935651D01*
X183104861Y-69933407D01*
X183047326Y-69893764D01*
X183020358Y-69829309D01*
X183021126Y-69796215D01*
X183040900Y-69671370D01*
X183040900Y-69488629D01*
X183012315Y-69308158D01*
X183012315Y-69308155D01*
X182955848Y-69134369D01*
X182872891Y-68971556D01*
X182765485Y-68823724D01*
X182636276Y-68694515D01*
X182488444Y-68587109D01*
X182325631Y-68504152D01*
X182151845Y-68447685D01*
X182151843Y-68447684D01*
X182151841Y-68447684D01*
X182055802Y-68432473D01*
X181992667Y-68402544D01*
X181955736Y-68343232D01*
X181956734Y-68273370D01*
X181995344Y-68215137D01*
X182055802Y-68187527D01*
X182093101Y-68181619D01*
X182151845Y-68172315D01*
X182325631Y-68115848D01*
X182488444Y-68032891D01*
X182636276Y-67925485D01*
X182765485Y-67796276D01*
X182872891Y-67648444D01*
X182955848Y-67485631D01*
X183012315Y-67311845D01*
X183037253Y-67154394D01*
X183040900Y-67131370D01*
X183040900Y-66948629D01*
X183012315Y-66768158D01*
X183012315Y-66768155D01*
X182955848Y-66594369D01*
X182872891Y-66431556D01*
X182765485Y-66283724D01*
X182636276Y-66154515D01*
X182488444Y-66047109D01*
X182325631Y-65964152D01*
X182151845Y-65907685D01*
X182151843Y-65907684D01*
X182149869Y-65907372D01*
X182149179Y-65907045D01*
X182147105Y-65906547D01*
X182147209Y-65906111D01*
X182086735Y-65877442D01*
X182049804Y-65818131D01*
X182050802Y-65748268D01*
X182089412Y-65690036D01*
X182153376Y-65661922D01*
X182169268Y-65660899D01*
X182588271Y-65660899D01*
X182588272Y-65660899D01*
X182647883Y-65654491D01*
X182782731Y-65604196D01*
X182897946Y-65517946D01*
X182984196Y-65402731D01*
X183034491Y-65267883D01*
X183040900Y-65208273D01*
X183040899Y-63791728D01*
X183034980Y-63736667D01*
X183034491Y-63732116D01*
X182984197Y-63597271D01*
X182984193Y-63597264D01*
X182897947Y-63482055D01*
X182897944Y-63482052D01*
X182782735Y-63395806D01*
X182782728Y-63395802D01*
X182647882Y-63345508D01*
X182647883Y-63345508D01*
X182588283Y-63339101D01*
X182588281Y-63339100D01*
X182588273Y-63339100D01*
X182588264Y-63339100D01*
X181171729Y-63339100D01*
X181171723Y-63339101D01*
X181112116Y-63345508D01*
X180977271Y-63395802D01*
X180977264Y-63395806D01*
X180862055Y-63482052D01*
X180862052Y-63482055D01*
X180775806Y-63597264D01*
X180775802Y-63597271D01*
X180725508Y-63732117D01*
X180720094Y-63782483D01*
X180719101Y-63791723D01*
X180719100Y-63791735D01*
X180719100Y-64548169D01*
X180699415Y-64615208D01*
X180682781Y-64635850D01*
X178992108Y-66326523D01*
X178930785Y-66360008D01*
X178861093Y-66355024D01*
X178805160Y-66313152D01*
X178780743Y-66247688D01*
X178781954Y-66219444D01*
X178800500Y-66102352D01*
X178800500Y-65897648D01*
X178768477Y-65695466D01*
X178757245Y-65660899D01*
X178738821Y-65604193D01*
X178705220Y-65500781D01*
X178705218Y-65500778D01*
X178705218Y-65500776D01*
X178633692Y-65360400D01*
X178612287Y-65318390D01*
X178580955Y-65275265D01*
X178491971Y-65152786D01*
X178347213Y-65008028D01*
X178181613Y-64887715D01*
X178181612Y-64887714D01*
X178181610Y-64887713D01*
X177999219Y-64794780D01*
X177986964Y-64790798D01*
X177941625Y-64776066D01*
X177892263Y-64745816D01*
X177546448Y-64400000D01*
X177552661Y-64400000D01*
X177654394Y-64372741D01*
X177745606Y-64320080D01*
X177820080Y-64245606D01*
X177872741Y-64154394D01*
X177900000Y-64052661D01*
X177900000Y-64046447D01*
X178362572Y-64509020D01*
X178362573Y-64509019D01*
X178386187Y-64473680D01*
X178386190Y-64473676D01*
X178461569Y-64291693D01*
X178461572Y-64291681D01*
X178499999Y-64098495D01*
X178500000Y-64098492D01*
X178500000Y-63901508D01*
X178499999Y-63901504D01*
X178461572Y-63708318D01*
X178461569Y-63708306D01*
X178386192Y-63526328D01*
X178362572Y-63490979D01*
X177900000Y-63953551D01*
X177900000Y-63947339D01*
X177872741Y-63845606D01*
X177820080Y-63754394D01*
X177745606Y-63679920D01*
X177654394Y-63627259D01*
X177552661Y-63600000D01*
X177546447Y-63600000D01*
X178009020Y-63137426D01*
X177973675Y-63113809D01*
X177973673Y-63113808D01*
X177791693Y-63038430D01*
X177791681Y-63038427D01*
X177598495Y-63000000D01*
X177401504Y-63000000D01*
X177208318Y-63038427D01*
X177208310Y-63038429D01*
X177026325Y-63113809D01*
X177026318Y-63113813D01*
X176990979Y-63137426D01*
X176990978Y-63137426D01*
X177453554Y-63600000D01*
X177447339Y-63600000D01*
X177345606Y-63627259D01*
X177254394Y-63679920D01*
X177179920Y-63754394D01*
X177127259Y-63845606D01*
X177100000Y-63947339D01*
X177100000Y-63953552D01*
X176637426Y-63490978D01*
X176637426Y-63490979D01*
X176613813Y-63526318D01*
X176613809Y-63526325D01*
X176538429Y-63708310D01*
X176538427Y-63708318D01*
X176500000Y-63901504D01*
X176500000Y-64098495D01*
X176538427Y-64291681D01*
X176538430Y-64291693D01*
X176613808Y-64473673D01*
X176613809Y-64473675D01*
X176637425Y-64509019D01*
X177100000Y-64046445D01*
X177100000Y-64052661D01*
X177127259Y-64154394D01*
X177179920Y-64245606D01*
X177254394Y-64320080D01*
X177345606Y-64372741D01*
X177447339Y-64400000D01*
X177453553Y-64400000D01*
X177107735Y-64745817D01*
X177058374Y-64776066D01*
X177000781Y-64794780D01*
X177000775Y-64794782D01*
X176818386Y-64887715D01*
X176652786Y-65008028D01*
X176508028Y-65152786D01*
X176387715Y-65318386D01*
X176294781Y-65500776D01*
X176231522Y-65695465D01*
X176212094Y-65818131D01*
X176199500Y-65897648D01*
X176199500Y-66102352D01*
X176203878Y-66129995D01*
X176231522Y-66304534D01*
X176294781Y-66499223D01*
X176387715Y-66681613D01*
X176508028Y-66847213D01*
X176652786Y-66991971D01*
X176797070Y-67096797D01*
X176818390Y-67112287D01*
X176901030Y-67154394D01*
X177000776Y-67205218D01*
X177000778Y-67205218D01*
X177000781Y-67205220D01*
X177104111Y-67238794D01*
X177195465Y-67268477D01*
X177280555Y-67281954D01*
X177397648Y-67300500D01*
X177397649Y-67300500D01*
X177602351Y-67300500D01*
X177602352Y-67300500D01*
X177719444Y-67281954D01*
X177788736Y-67290908D01*
X177842188Y-67335904D01*
X177862828Y-67402656D01*
X177844103Y-67469970D01*
X177826522Y-67492108D01*
X175734014Y-69584617D01*
X175603906Y-69714724D01*
X175603884Y-69714748D01*
X175479488Y-69862996D01*
X175421316Y-69901698D01*
X175351455Y-69902806D01*
X175292086Y-69865969D01*
X175262056Y-69802881D01*
X175260499Y-69783300D01*
X175260499Y-67852128D01*
X175254091Y-67792517D01*
X175253393Y-67790646D01*
X175203797Y-67657671D01*
X175203793Y-67657664D01*
X175117547Y-67542455D01*
X175117544Y-67542452D01*
X175002335Y-67456206D01*
X175002328Y-67456202D01*
X174867482Y-67405908D01*
X174867483Y-67405908D01*
X174807883Y-67399501D01*
X174807881Y-67399500D01*
X174807873Y-67399500D01*
X174807864Y-67399500D01*
X172512129Y-67399500D01*
X172512123Y-67399501D01*
X172452516Y-67405908D01*
X172317671Y-67456202D01*
X172317664Y-67456206D01*
X172202455Y-67542452D01*
X172202452Y-67542455D01*
X172116206Y-67657664D01*
X172116202Y-67657671D01*
X172065908Y-67792517D01*
X172059798Y-67849352D01*
X172059501Y-67852123D01*
X172059500Y-67852135D01*
X172059500Y-70147870D01*
X172059501Y-70147876D01*
X172065908Y-70207483D01*
X172116202Y-70342328D01*
X172116206Y-70342335D01*
X172202452Y-70457544D01*
X172202455Y-70457547D01*
X172317664Y-70543793D01*
X172317671Y-70543797D01*
X172452517Y-70594091D01*
X172452516Y-70594091D01*
X172459444Y-70594835D01*
X172512127Y-70600500D01*
X174785193Y-70600499D01*
X174852232Y-70620184D01*
X174897987Y-70672987D01*
X174907931Y-70742146D01*
X174897575Y-70776904D01*
X174816627Y-70950496D01*
X174690746Y-71296355D01*
X174595492Y-71651852D01*
X174595489Y-71651865D01*
X174531578Y-72014319D01*
X174499500Y-72380970D01*
X174499500Y-72874582D01*
X174479815Y-72941621D01*
X174448385Y-72974900D01*
X174402787Y-73008028D01*
X174402782Y-73008032D01*
X174258028Y-73152786D01*
X174137715Y-73318386D01*
X174044781Y-73500776D01*
X173981522Y-73695465D01*
X173957443Y-73847498D01*
X173949500Y-73897648D01*
X173949500Y-74102352D01*
X173952559Y-74121666D01*
X173981522Y-74304534D01*
X174044781Y-74499223D01*
X174080146Y-74568629D01*
X174115136Y-74637301D01*
X174137715Y-74681613D01*
X174258028Y-74847213D01*
X174402786Y-74991971D01*
X174531698Y-75085629D01*
X174568390Y-75112287D01*
X174667288Y-75162678D01*
X174750776Y-75205218D01*
X174750778Y-75205218D01*
X174750781Y-75205220D01*
X174781349Y-75215152D01*
X174945465Y-75268477D01*
X175046557Y-75284488D01*
X175147648Y-75300500D01*
X175147649Y-75300500D01*
X175352351Y-75300500D01*
X175352352Y-75300500D01*
X175554534Y-75268477D01*
X175749219Y-75205220D01*
X175931610Y-75112287D01*
X176067331Y-75013681D01*
X176097213Y-74991971D01*
X176097215Y-74991968D01*
X176097219Y-74991966D01*
X176241966Y-74847219D01*
X176362287Y-74681610D01*
X176455220Y-74499219D01*
X176518477Y-74304534D01*
X176530651Y-74227669D01*
X176560580Y-74164536D01*
X176619891Y-74127604D01*
X176689754Y-74128602D01*
X176747987Y-74167211D01*
X176774741Y-74222877D01*
X176788427Y-74291681D01*
X176788430Y-74291693D01*
X176863808Y-74473673D01*
X176863809Y-74473675D01*
X176887425Y-74509019D01*
X177350000Y-74046445D01*
X177350000Y-74052661D01*
X177377259Y-74154394D01*
X177429920Y-74245606D01*
X177504394Y-74320080D01*
X177595606Y-74372741D01*
X177697339Y-74400000D01*
X177703553Y-74400000D01*
X177240979Y-74862572D01*
X177276328Y-74886192D01*
X177458306Y-74961569D01*
X177458318Y-74961572D01*
X177651504Y-74999999D01*
X177651508Y-75000000D01*
X177848492Y-75000000D01*
X177848495Y-74999999D01*
X178041681Y-74961572D01*
X178041693Y-74961569D01*
X178223676Y-74886190D01*
X178223680Y-74886187D01*
X178259019Y-74862573D01*
X178259020Y-74862572D01*
X177796448Y-74400000D01*
X177802661Y-74400000D01*
X177904394Y-74372741D01*
X177995606Y-74320080D01*
X178070080Y-74245606D01*
X178122741Y-74154394D01*
X178150000Y-74052661D01*
X178150000Y-74046447D01*
X178612572Y-74509020D01*
X178612573Y-74509019D01*
X178636187Y-74473680D01*
X178636190Y-74473676D01*
X178711569Y-74291693D01*
X178711572Y-74291681D01*
X178749999Y-74098495D01*
X178750000Y-74098492D01*
X178750000Y-73901508D01*
X178749999Y-73901504D01*
X178711572Y-73708318D01*
X178711569Y-73708306D01*
X178636192Y-73526328D01*
X178612572Y-73490979D01*
X178150000Y-73953551D01*
X178150000Y-73947339D01*
X178122741Y-73845606D01*
X178070080Y-73754394D01*
X177995606Y-73679920D01*
X177904394Y-73627259D01*
X177802661Y-73600000D01*
X177796447Y-73600000D01*
X178259020Y-73137426D01*
X178223675Y-73113809D01*
X178223673Y-73113808D01*
X178041693Y-73038430D01*
X178041681Y-73038427D01*
X177848495Y-73000000D01*
X177651504Y-73000000D01*
X177458318Y-73038427D01*
X177458310Y-73038429D01*
X177276325Y-73113809D01*
X177276318Y-73113813D01*
X177240979Y-73137426D01*
X177240978Y-73137426D01*
X177703554Y-73600000D01*
X177697339Y-73600000D01*
X177595606Y-73627259D01*
X177504394Y-73679920D01*
X177429920Y-73754394D01*
X177377259Y-73845606D01*
X177350000Y-73947339D01*
X177350000Y-73953552D01*
X176887426Y-73490978D01*
X176887426Y-73490979D01*
X176863813Y-73526318D01*
X176863809Y-73526325D01*
X176788429Y-73708310D01*
X176788427Y-73708318D01*
X176774741Y-73777122D01*
X176742356Y-73839033D01*
X176681640Y-73873607D01*
X176611871Y-73869868D01*
X176555199Y-73829001D01*
X176530651Y-73772329D01*
X176527810Y-73754394D01*
X176518477Y-73695466D01*
X176455220Y-73500781D01*
X176455218Y-73500778D01*
X176455218Y-73500776D01*
X176415707Y-73423232D01*
X176362287Y-73318390D01*
X176241966Y-73152781D01*
X176097219Y-73008034D01*
X176097217Y-73008032D01*
X176097212Y-73008028D01*
X176051615Y-72974900D01*
X176008949Y-72919571D01*
X176000500Y-72874582D01*
X176000500Y-72568480D01*
X176000695Y-72561528D01*
X176010834Y-72380974D01*
X176017174Y-72268081D01*
X176018728Y-72254286D01*
X176067376Y-71967963D01*
X176070470Y-71954411D01*
X176105862Y-71831565D01*
X176150869Y-71675340D01*
X176155461Y-71662220D01*
X176217868Y-71511555D01*
X176266597Y-71393910D01*
X176272619Y-71381404D01*
X176413109Y-71127208D01*
X176420504Y-71115440D01*
X176436771Y-71092514D01*
X176588569Y-70878573D01*
X176597211Y-70867736D01*
X176793078Y-70648560D01*
X176797823Y-70643542D01*
X180507419Y-66933947D01*
X180568742Y-66900462D01*
X180638434Y-66905446D01*
X180694367Y-66947318D01*
X180718784Y-67012782D01*
X180719100Y-67021628D01*
X180719100Y-67131370D01*
X180744369Y-67290908D01*
X180747685Y-67311845D01*
X180804152Y-67485631D01*
X180887109Y-67648444D01*
X180994515Y-67796276D01*
X181123724Y-67925485D01*
X181271556Y-68032891D01*
X181434369Y-68115848D01*
X181608155Y-68172315D01*
X181652212Y-68179293D01*
X181704197Y-68187527D01*
X181767332Y-68217456D01*
X181804263Y-68276768D01*
X181803265Y-68346631D01*
X181764655Y-68404863D01*
X181704197Y-68432473D01*
X181608158Y-68447684D01*
X181434366Y-68504153D01*
X181271555Y-68587109D01*
X181123721Y-68694517D01*
X180994517Y-68823721D01*
X180887109Y-68971555D01*
X180804153Y-69134366D01*
X180747684Y-69308158D01*
X180719100Y-69488629D01*
X180719100Y-69671370D01*
X180746210Y-69842535D01*
X180747685Y-69851845D01*
X180804152Y-70025631D01*
X180887109Y-70188444D01*
X180994515Y-70336276D01*
X181123724Y-70465485D01*
X181271556Y-70572891D01*
X181434369Y-70655848D01*
X181608155Y-70712315D01*
X181652212Y-70719293D01*
X181704197Y-70727527D01*
X181767332Y-70757456D01*
X181804263Y-70816768D01*
X181803265Y-70886631D01*
X181764655Y-70944863D01*
X181704197Y-70972473D01*
X181608158Y-70987684D01*
X181434366Y-71044153D01*
X181271555Y-71127109D01*
X181123721Y-71234517D01*
X180994517Y-71363721D01*
X180887109Y-71511555D01*
X180804153Y-71674366D01*
X180747684Y-71848158D01*
X180719100Y-72028629D01*
X180719100Y-72211370D01*
X180745963Y-72380974D01*
X180747685Y-72391845D01*
X180804152Y-72565631D01*
X180887109Y-72728444D01*
X180994515Y-72876276D01*
X181123724Y-73005485D01*
X181271556Y-73112891D01*
X181434369Y-73195848D01*
X181608155Y-73252315D01*
X181652212Y-73259293D01*
X181704197Y-73267527D01*
X181767332Y-73297456D01*
X181804263Y-73356768D01*
X181803265Y-73426631D01*
X181764655Y-73484863D01*
X181704197Y-73512473D01*
X181608158Y-73527684D01*
X181434366Y-73584153D01*
X181271555Y-73667109D01*
X181123721Y-73774517D01*
X180994517Y-73903721D01*
X180887109Y-74051555D01*
X180804153Y-74214366D01*
X180747684Y-74388158D01*
X180719100Y-74568629D01*
X180719100Y-74751370D01*
X180746407Y-74923779D01*
X180747685Y-74931845D01*
X180804152Y-75105631D01*
X180887109Y-75268444D01*
X180994515Y-75416276D01*
X181123724Y-75545485D01*
X181271556Y-75652891D01*
X181434369Y-75735848D01*
X181608155Y-75792315D01*
X181650716Y-75799056D01*
X181704197Y-75807527D01*
X181767332Y-75837456D01*
X181804263Y-75896768D01*
X181803265Y-75966631D01*
X181764655Y-76024863D01*
X181704197Y-76052473D01*
X181608158Y-76067684D01*
X181434366Y-76124153D01*
X181271555Y-76207109D01*
X181123721Y-76314517D01*
X180994517Y-76443721D01*
X180887109Y-76591555D01*
X180804153Y-76754366D01*
X180747684Y-76928158D01*
X180719100Y-77108629D01*
X180719100Y-77291370D01*
X180747684Y-77471841D01*
X180747685Y-77471845D01*
X180804152Y-77645631D01*
X180887109Y-77808444D01*
X180994515Y-77956276D01*
X180994517Y-77956278D01*
X181086844Y-78048605D01*
X181088216Y-78051119D01*
X181090669Y-78052604D01*
X181104860Y-78081599D01*
X181120329Y-78109928D01*
X181120124Y-78112786D01*
X181121384Y-78115360D01*
X181117647Y-78147417D01*
X181115345Y-78179620D01*
X181113526Y-78182780D01*
X181113296Y-78184760D01*
X181095016Y-78214951D01*
X181075963Y-78238167D01*
X181067791Y-78247183D01*
X175447546Y-83867429D01*
X175386223Y-83900914D01*
X175316531Y-83895930D01*
X175260598Y-83854058D01*
X175237392Y-83799146D01*
X175234622Y-83781660D01*
X175213553Y-83648632D01*
X175140568Y-83424008D01*
X175140566Y-83424005D01*
X175140566Y-83424003D01*
X175037382Y-83221494D01*
X175033343Y-83213567D01*
X174894517Y-83022490D01*
X174727510Y-82855483D01*
X174536433Y-82716657D01*
X174525507Y-82711090D01*
X174325996Y-82609433D01*
X174101368Y-82536446D01*
X173868097Y-82499500D01*
X173868092Y-82499500D01*
X173631908Y-82499500D01*
X173631903Y-82499500D01*
X173398631Y-82536446D01*
X173174003Y-82609433D01*
X172963566Y-82716657D01*
X172916986Y-82750500D01*
X172772490Y-82855483D01*
X172772488Y-82855485D01*
X172772487Y-82855485D01*
X172605485Y-83022487D01*
X172605485Y-83022488D01*
X172605483Y-83022490D01*
X172552958Y-83094784D01*
X172466657Y-83213566D01*
X172359433Y-83424003D01*
X172286446Y-83648631D01*
X172249500Y-83881902D01*
X172249500Y-84118097D01*
X172286446Y-84351368D01*
X172359433Y-84575996D01*
X172466657Y-84786433D01*
X172605483Y-84977510D01*
X172772490Y-85144517D01*
X172963567Y-85283343D01*
X173062991Y-85334002D01*
X173174003Y-85390566D01*
X173174005Y-85390566D01*
X173174008Y-85390568D01*
X173398632Y-85463553D01*
X173549147Y-85487392D01*
X173612281Y-85517321D01*
X173649213Y-85576632D01*
X173648215Y-85646495D01*
X173617430Y-85697546D01*
X171791151Y-87523826D01*
X171791149Y-87523828D01*
X171743038Y-87571937D01*
X171735891Y-87578544D01*
X171652369Y-87649879D01*
X171588608Y-87678450D01*
X171519522Y-87668013D01*
X171471519Y-87628474D01*
X171395488Y-87523827D01*
X171394517Y-87522490D01*
X171227510Y-87355483D01*
X171036433Y-87216657D01*
X171008817Y-87202586D01*
X170825996Y-87109433D01*
X170601368Y-87036446D01*
X170368097Y-86999500D01*
X170368092Y-86999500D01*
X170131908Y-86999500D01*
X170131903Y-86999500D01*
X169898631Y-87036446D01*
X169674003Y-87109433D01*
X169463566Y-87216657D01*
X169354550Y-87295862D01*
X169272490Y-87355483D01*
X169272488Y-87355485D01*
X169272487Y-87355485D01*
X169105485Y-87522487D01*
X169105485Y-87522488D01*
X169105483Y-87522490D01*
X169104512Y-87523827D01*
X168966657Y-87713566D01*
X168944092Y-87757853D01*
X168908855Y-87827011D01*
X168906417Y-87831795D01*
X168858442Y-87882591D01*
X168795932Y-87899500D01*
X165204068Y-87899500D01*
X165137029Y-87879815D01*
X165093583Y-87831795D01*
X165033343Y-87713567D01*
X164894517Y-87522490D01*
X164727510Y-87355483D01*
X164536433Y-87216657D01*
X164508817Y-87202586D01*
X164325996Y-87109433D01*
X164101368Y-87036446D01*
X163868097Y-86999500D01*
X163868092Y-86999500D01*
X163631908Y-86999500D01*
X163631903Y-86999500D01*
X163398631Y-87036446D01*
X163174003Y-87109433D01*
X162963566Y-87216657D01*
X162854550Y-87295862D01*
X162772490Y-87355483D01*
X162772488Y-87355485D01*
X162772487Y-87355485D01*
X162605485Y-87522487D01*
X162605485Y-87522488D01*
X162605483Y-87522490D01*
X162604512Y-87523827D01*
X162466657Y-87713566D01*
X162359433Y-87924003D01*
X162286446Y-88148631D01*
X162271973Y-88240015D01*
X162242044Y-88303150D01*
X162182732Y-88340081D01*
X162112870Y-88339083D01*
X162054637Y-88300473D01*
X162026523Y-88236509D01*
X162025500Y-88220617D01*
X162025500Y-84279382D01*
X162045185Y-84212343D01*
X162097989Y-84166588D01*
X162167147Y-84156644D01*
X162230703Y-84185669D01*
X162268477Y-84244447D01*
X162271973Y-84259984D01*
X162286446Y-84351368D01*
X162359433Y-84575996D01*
X162466657Y-84786433D01*
X162605483Y-84977510D01*
X162772490Y-85144517D01*
X162963567Y-85283343D01*
X163062991Y-85334002D01*
X163174003Y-85390566D01*
X163174005Y-85390566D01*
X163174008Y-85390568D01*
X163285497Y-85426793D01*
X163398631Y-85463553D01*
X163631903Y-85500500D01*
X163631908Y-85500500D01*
X163868097Y-85500500D01*
X164101368Y-85463553D01*
X164101371Y-85463552D01*
X164325992Y-85390568D01*
X164536433Y-85283343D01*
X164727510Y-85144517D01*
X164894517Y-84977510D01*
X165033343Y-84786433D01*
X165140568Y-84575992D01*
X165213553Y-84351368D01*
X165218828Y-84318062D01*
X165250500Y-84118097D01*
X165250500Y-83881902D01*
X168749500Y-83881902D01*
X168749500Y-84118097D01*
X168786446Y-84351368D01*
X168859433Y-84575996D01*
X168966657Y-84786433D01*
X169105483Y-84977510D01*
X169272490Y-85144517D01*
X169463567Y-85283343D01*
X169562991Y-85334002D01*
X169674003Y-85390566D01*
X169674005Y-85390566D01*
X169674008Y-85390568D01*
X169785497Y-85426793D01*
X169898631Y-85463553D01*
X170131903Y-85500500D01*
X170131908Y-85500500D01*
X170368097Y-85500500D01*
X170601368Y-85463553D01*
X170601371Y-85463552D01*
X170825992Y-85390568D01*
X171036433Y-85283343D01*
X171227510Y-85144517D01*
X171394517Y-84977510D01*
X171533343Y-84786433D01*
X171640568Y-84575992D01*
X171713553Y-84351368D01*
X171718828Y-84318062D01*
X171750500Y-84118097D01*
X171750500Y-83881902D01*
X171713553Y-83648631D01*
X171640566Y-83424003D01*
X171537382Y-83221494D01*
X171533343Y-83213567D01*
X171394517Y-83022490D01*
X171227510Y-82855483D01*
X171036433Y-82716657D01*
X171025507Y-82711090D01*
X170825996Y-82609433D01*
X170601368Y-82536446D01*
X170368097Y-82499500D01*
X170368092Y-82499500D01*
X170131908Y-82499500D01*
X170131903Y-82499500D01*
X169898631Y-82536446D01*
X169674003Y-82609433D01*
X169463566Y-82716657D01*
X169416986Y-82750500D01*
X169272490Y-82855483D01*
X169272488Y-82855485D01*
X169272487Y-82855485D01*
X169105485Y-83022487D01*
X169105485Y-83022488D01*
X169105483Y-83022490D01*
X169052958Y-83094784D01*
X168966657Y-83213566D01*
X168859433Y-83424003D01*
X168786446Y-83648631D01*
X168749500Y-83881902D01*
X165250500Y-83881902D01*
X165213553Y-83648631D01*
X165140566Y-83424003D01*
X165037382Y-83221494D01*
X165033343Y-83213567D01*
X164894517Y-83022490D01*
X164727510Y-82855483D01*
X164536433Y-82716657D01*
X164525507Y-82711090D01*
X164325996Y-82609433D01*
X164101368Y-82536446D01*
X163868097Y-82499500D01*
X163868092Y-82499500D01*
X163631908Y-82499500D01*
X163631903Y-82499500D01*
X163398631Y-82536446D01*
X163174003Y-82609433D01*
X162963566Y-82716657D01*
X162916986Y-82750500D01*
X162772490Y-82855483D01*
X162772488Y-82855485D01*
X162772487Y-82855485D01*
X162605485Y-83022487D01*
X162605485Y-83022488D01*
X162605483Y-83022490D01*
X162552958Y-83094784D01*
X162466657Y-83213566D01*
X162359433Y-83424003D01*
X162286446Y-83648631D01*
X162271973Y-83740015D01*
X162242044Y-83803150D01*
X162182732Y-83840081D01*
X162112870Y-83839083D01*
X162054637Y-83800473D01*
X162026523Y-83736509D01*
X162025500Y-83720617D01*
X162025500Y-70075091D01*
X162045185Y-70008052D01*
X162097989Y-69962297D01*
X162167147Y-69952353D01*
X162230703Y-69981378D01*
X162249819Y-70002207D01*
X162279203Y-70042652D01*
X162457345Y-70220794D01*
X162457350Y-70220798D01*
X162616293Y-70336276D01*
X162661155Y-70368870D01*
X162804184Y-70441747D01*
X162885616Y-70483239D01*
X162885618Y-70483239D01*
X162885621Y-70483241D01*
X163125215Y-70561090D01*
X163374038Y-70600500D01*
X163374039Y-70600500D01*
X163625961Y-70600500D01*
X163625962Y-70600500D01*
X163874785Y-70561090D01*
X164114379Y-70483241D01*
X164338845Y-70368870D01*
X164542656Y-70220793D01*
X164720793Y-70042656D01*
X164868870Y-69838845D01*
X164983241Y-69614379D01*
X165061090Y-69374785D01*
X165100500Y-69125962D01*
X165100500Y-68874038D01*
X165061090Y-68625215D01*
X164983241Y-68385621D01*
X164983239Y-68385618D01*
X164983239Y-68385616D01*
X164926046Y-68273370D01*
X164868870Y-68161155D01*
X164826893Y-68103379D01*
X164720798Y-67957350D01*
X164720794Y-67957345D01*
X164542654Y-67779205D01*
X164542649Y-67779201D01*
X164338848Y-67631132D01*
X164338847Y-67631131D01*
X164338845Y-67631130D01*
X164268747Y-67595413D01*
X164114383Y-67516760D01*
X163874785Y-67438910D01*
X163720421Y-67414461D01*
X163625962Y-67399500D01*
X163374038Y-67399500D01*
X163279579Y-67414461D01*
X163125214Y-67438910D01*
X162885616Y-67516760D01*
X162661151Y-67631132D01*
X162457350Y-67779201D01*
X162457345Y-67779205D01*
X162279205Y-67957345D01*
X162279201Y-67957350D01*
X162249818Y-67997793D01*
X162194488Y-68040459D01*
X162124875Y-68046438D01*
X162063080Y-68013832D01*
X162028723Y-67952994D01*
X162025500Y-67924908D01*
X162025500Y-61096530D01*
X167949500Y-61096530D01*
X167949500Y-61303469D01*
X167989868Y-61506412D01*
X167989870Y-61506420D01*
X168069059Y-61697598D01*
X168110100Y-61759021D01*
X168184024Y-61869657D01*
X168330342Y-62015975D01*
X168330345Y-62015977D01*
X168502402Y-62130941D01*
X168693580Y-62210130D01*
X168896530Y-62250499D01*
X168896534Y-62250500D01*
X168896535Y-62250500D01*
X169103466Y-62250500D01*
X169103467Y-62250499D01*
X169306420Y-62210130D01*
X169497598Y-62130941D01*
X169669655Y-62015977D01*
X169815977Y-61869655D01*
X169930941Y-61697598D01*
X170010130Y-61506420D01*
X170050500Y-61303465D01*
X170050500Y-61096535D01*
X170010130Y-60893580D01*
X169930941Y-60702402D01*
X169815977Y-60530345D01*
X169815975Y-60530342D01*
X169669657Y-60384024D01*
X169500257Y-60270836D01*
X169497598Y-60269059D01*
X169477736Y-60260832D01*
X169306420Y-60189870D01*
X169306412Y-60189868D01*
X169103469Y-60149500D01*
X169103465Y-60149500D01*
X168896535Y-60149500D01*
X168896530Y-60149500D01*
X168693587Y-60189868D01*
X168693579Y-60189870D01*
X168502403Y-60269058D01*
X168330342Y-60384024D01*
X168184024Y-60530342D01*
X168069058Y-60702403D01*
X167989870Y-60893579D01*
X167989868Y-60893587D01*
X167949500Y-61096530D01*
X162025500Y-61096530D01*
X162025500Y-56609448D01*
X167849500Y-56609448D01*
X167849500Y-56790551D01*
X167877829Y-56969410D01*
X167933787Y-57141636D01*
X167933788Y-57141639D01*
X168016006Y-57302997D01*
X168122441Y-57449494D01*
X168122445Y-57449499D01*
X168250500Y-57577554D01*
X168250505Y-57577558D01*
X168378287Y-57670396D01*
X168397006Y-57683996D01*
X168502484Y-57737740D01*
X168558360Y-57766211D01*
X168558363Y-57766212D01*
X168644476Y-57794191D01*
X168730591Y-57822171D01*
X168813429Y-57835291D01*
X168909449Y-57850500D01*
X168909454Y-57850500D01*
X169090551Y-57850500D01*
X169177259Y-57836765D01*
X169269409Y-57822171D01*
X169441639Y-57766211D01*
X169602994Y-57683996D01*
X169749501Y-57577553D01*
X169877553Y-57449501D01*
X169983996Y-57302994D01*
X170066211Y-57141639D01*
X170122171Y-56969409D01*
X170136765Y-56877259D01*
X170150500Y-56790551D01*
X170150500Y-56609448D01*
X170134019Y-56505397D01*
X170122171Y-56430591D01*
X170066211Y-56258361D01*
X170066211Y-56258360D01*
X170037740Y-56202484D01*
X169983996Y-56097006D01*
X169970396Y-56078287D01*
X169877558Y-55950505D01*
X169877554Y-55950500D01*
X169749499Y-55822445D01*
X169749494Y-55822441D01*
X169602997Y-55716006D01*
X169602996Y-55716005D01*
X169602994Y-55716004D01*
X169551300Y-55689664D01*
X169441639Y-55633788D01*
X169441636Y-55633787D01*
X169269410Y-55577829D01*
X169090551Y-55549500D01*
X169090546Y-55549500D01*
X168909454Y-55549500D01*
X168909449Y-55549500D01*
X168730589Y-55577829D01*
X168558363Y-55633787D01*
X168558360Y-55633788D01*
X168397002Y-55716006D01*
X168250505Y-55822441D01*
X168250500Y-55822445D01*
X168122445Y-55950500D01*
X168122441Y-55950505D01*
X168016006Y-56097002D01*
X167933788Y-56258360D01*
X167933787Y-56258363D01*
X167877829Y-56430589D01*
X167849500Y-56609448D01*
X162025500Y-56609448D01*
X162025500Y-51424500D01*
X162045185Y-51357461D01*
X162097989Y-51311706D01*
X162149500Y-51300500D01*
X177618996Y-51300500D01*
X177686035Y-51320185D01*
G37*
%TD.AperFunction*%
%TA.AperFunction,Conductor*%
G36*
X195776801Y-77475919D02*
G01*
X195787214Y-77476664D01*
X195807299Y-77491700D01*
X195829584Y-77503231D01*
X195834790Y-77512280D01*
X195843147Y-77518536D01*
X195851915Y-77542045D01*
X195864428Y-77563793D01*
X195865910Y-77579567D01*
X195867564Y-77584000D01*
X195867731Y-77598932D01*
X195860224Y-77751704D01*
X195859031Y-77763813D01*
X195814255Y-78065660D01*
X195811881Y-78077592D01*
X195809905Y-78085485D01*
X195737731Y-78373608D01*
X195734198Y-78385252D01*
X195631394Y-78672565D01*
X195626737Y-78683807D01*
X195496269Y-78959655D01*
X195490533Y-78970387D01*
X195333653Y-79232124D01*
X195326893Y-79242242D01*
X195145106Y-79487352D01*
X195137386Y-79496759D01*
X194930191Y-79725362D01*
X194925994Y-79729769D01*
X194440643Y-80215119D01*
X194379320Y-80248604D01*
X194337176Y-80248983D01*
X194337067Y-80250097D01*
X194331005Y-80249500D01*
X194331003Y-80249500D01*
X194128997Y-80249500D01*
X194128992Y-80249500D01*
X193930880Y-80288907D01*
X193930872Y-80288909D01*
X193744247Y-80366212D01*
X193744237Y-80366217D01*
X193576283Y-80478441D01*
X193576278Y-80478445D01*
X193541041Y-80513682D01*
X193479718Y-80547167D01*
X193453361Y-80550000D01*
X193210000Y-80550000D01*
X193210000Y-81134134D01*
X193207617Y-81158326D01*
X193204500Y-81173995D01*
X193204500Y-81214170D01*
X193190255Y-81199925D01*
X193104745Y-81150556D01*
X193009370Y-81125000D01*
X192910630Y-81125000D01*
X192815255Y-81150556D01*
X192729745Y-81199925D01*
X192710000Y-81219670D01*
X192710000Y-80502727D01*
X192729685Y-80435688D01*
X192746319Y-80415046D01*
X194196199Y-78965166D01*
X195656201Y-77505163D01*
X195678218Y-77493141D01*
X195697966Y-77477659D01*
X195708361Y-77476682D01*
X195717522Y-77471680D01*
X195742547Y-77473469D01*
X195767530Y-77471122D01*
X195776801Y-77475919D01*
G37*
%TD.AperFunction*%
%TA.AperFunction,Conductor*%
G36*
X192194334Y-75457414D02*
G01*
X192250267Y-75499286D01*
X192274684Y-75564750D01*
X192275000Y-75573596D01*
X192275000Y-75750000D01*
X192719670Y-75750000D01*
X192699925Y-75769745D01*
X192650556Y-75855255D01*
X192625000Y-75950630D01*
X192625000Y-76049370D01*
X192650556Y-76144745D01*
X192699925Y-76230255D01*
X192719670Y-76250000D01*
X192275000Y-76250000D01*
X192275000Y-76769702D01*
X192286602Y-76828033D01*
X192286603Y-76828034D01*
X192330808Y-76894191D01*
X192396965Y-76938396D01*
X192396966Y-76938397D01*
X192455297Y-76949999D01*
X192455301Y-76950000D01*
X192750000Y-76950000D01*
X192750000Y-76280330D01*
X192769745Y-76300075D01*
X192855255Y-76349444D01*
X192950630Y-76375000D01*
X193049370Y-76375000D01*
X193144745Y-76349444D01*
X193230255Y-76300075D01*
X193244500Y-76285830D01*
X193244500Y-76326002D01*
X193247617Y-76341671D01*
X193250000Y-76365865D01*
X193250000Y-76950000D01*
X193493362Y-76950000D01*
X193514826Y-76956302D01*
X193537134Y-76957983D01*
X193550980Y-76966918D01*
X193560401Y-76969685D01*
X193568047Y-76975014D01*
X193574934Y-76980210D01*
X193616282Y-77021558D01*
X193733871Y-77100128D01*
X193736702Y-77102264D01*
X193755498Y-77127571D01*
X193775713Y-77151759D01*
X193776170Y-77155404D01*
X193778362Y-77158355D01*
X193780492Y-77189812D01*
X193784420Y-77221084D01*
X193782834Y-77224397D01*
X193783083Y-77228065D01*
X193767866Y-77255683D01*
X193754266Y-77284112D01*
X193749698Y-77288931D01*
X190807671Y-80230958D01*
X190746348Y-80264443D01*
X190676656Y-80259459D01*
X190620723Y-80217587D01*
X190596306Y-80152123D01*
X190602058Y-80104965D01*
X190632315Y-80011845D01*
X190638360Y-79973680D01*
X190660900Y-79831370D01*
X190660900Y-79648629D01*
X190641843Y-79528315D01*
X190632315Y-79468155D01*
X190575848Y-79294369D01*
X190492891Y-79131556D01*
X190385485Y-78983724D01*
X190256276Y-78854515D01*
X190108444Y-78747109D01*
X189945631Y-78664152D01*
X189771845Y-78607685D01*
X189771843Y-78607684D01*
X189771841Y-78607684D01*
X189675802Y-78592473D01*
X189612667Y-78562544D01*
X189575736Y-78503232D01*
X189576734Y-78433370D01*
X189615344Y-78375137D01*
X189675802Y-78347527D01*
X189713101Y-78341619D01*
X189771845Y-78332315D01*
X189945631Y-78275848D01*
X190108444Y-78192891D01*
X190256276Y-78085485D01*
X190385485Y-77956276D01*
X190492891Y-77808444D01*
X190575848Y-77645631D01*
X190632315Y-77471845D01*
X190649633Y-77362504D01*
X190660900Y-77291370D01*
X190660900Y-77108630D01*
X190640662Y-76980859D01*
X190649616Y-76911565D01*
X190675451Y-76873782D01*
X192063319Y-75485915D01*
X192124642Y-75452430D01*
X192194334Y-75457414D01*
G37*
%TD.AperFunction*%
%TA.AperFunction,Conductor*%
G36*
X193669912Y-74053215D02*
G01*
X193699942Y-74116302D01*
X193701500Y-74135895D01*
X193701500Y-74855221D01*
X193701234Y-74856125D01*
X193701487Y-74857035D01*
X193691401Y-74889613D01*
X193681815Y-74922260D01*
X193681011Y-74923173D01*
X193680824Y-74923779D01*
X193677896Y-74926715D01*
X193657323Y-74950112D01*
X193652080Y-74954522D01*
X193616282Y-74978442D01*
X193577271Y-75017452D01*
X193573184Y-75020891D01*
X193545885Y-75032878D01*
X193519718Y-75047167D01*
X193511281Y-75048073D01*
X193509211Y-75048983D01*
X193506631Y-75048573D01*
X193493361Y-75050000D01*
X193250000Y-75050000D01*
X193250000Y-75634134D01*
X193247617Y-75658326D01*
X193244500Y-75673995D01*
X193244500Y-75714170D01*
X193230255Y-75699925D01*
X193144745Y-75650556D01*
X193049370Y-75625000D01*
X192950630Y-75625000D01*
X192855255Y-75650556D01*
X192769745Y-75699925D01*
X192750000Y-75719670D01*
X192750000Y-75050000D01*
X192713681Y-75013681D01*
X192715536Y-75011825D01*
X192685802Y-74977511D01*
X192675858Y-74908353D01*
X192704883Y-74844797D01*
X192710915Y-74838319D01*
X192980605Y-74568629D01*
X193272722Y-74276511D01*
X193272728Y-74276508D01*
X193301029Y-74248206D01*
X193301030Y-74248207D01*
X193427567Y-74121669D01*
X193482510Y-74056189D01*
X193540681Y-74017487D01*
X193610542Y-74016378D01*
X193669912Y-74053215D01*
G37*
%TD.AperFunction*%
%TA.AperFunction,Conductor*%
G36*
X195038558Y-61207439D02*
G01*
X195072060Y-61231295D01*
X195534409Y-61693644D01*
X195534413Y-61693650D01*
X195560789Y-61720025D01*
X195561518Y-61720754D01*
X195582529Y-61741764D01*
X195589139Y-61748915D01*
X195680378Y-61855741D01*
X195691814Y-61871482D01*
X195762663Y-61987093D01*
X195771498Y-62004431D01*
X195778195Y-62020599D01*
X195785664Y-62090069D01*
X195754389Y-62152548D01*
X195750000Y-62156671D01*
X195750000Y-62684314D01*
X195745606Y-62679920D01*
X195654394Y-62627259D01*
X195552661Y-62600000D01*
X195447339Y-62600000D01*
X195345606Y-62627259D01*
X195254394Y-62679920D01*
X195250000Y-62684314D01*
X195250000Y-62157586D01*
X195249999Y-62157585D01*
X195244776Y-62158624D01*
X195244769Y-62158626D01*
X195085530Y-62224585D01*
X195084941Y-62224900D01*
X195084597Y-62224971D01*
X195079903Y-62226916D01*
X195079533Y-62226025D01*
X195016536Y-62239134D01*
X194951295Y-62214126D01*
X194909931Y-62157817D01*
X194902500Y-62115535D01*
X194902500Y-61755868D01*
X194902513Y-61755820D01*
X194902513Y-61704492D01*
X194902514Y-61704492D01*
X194902513Y-61598969D01*
X194874964Y-61389730D01*
X194864605Y-61351071D01*
X194866266Y-61281222D01*
X194905428Y-61223358D01*
X194969656Y-61195853D01*
X195038558Y-61207439D01*
G37*
%TD.AperFunction*%
%TD*%
M02*
