%TF.GenerationSoftware,KiCad,Pcbnew,9.0.0*%
%TF.CreationDate,2025-03-19T20:29:17+00:00*%
%TF.ProjectId,gloves dryer,676c6f76-6573-4206-9472-7965722e6b69,rev?*%
%TF.SameCoordinates,Original*%
%TF.FileFunction,Legend,Top*%
%TF.FilePolarity,Positive*%
%FSLAX46Y46*%
G04 Gerber Fmt 4.6, Leading zero omitted, Abs format (unit mm)*
G04 Created by KiCad (PCBNEW 9.0.0) date 2025-03-19 20:29:17*
%MOMM*%
%LPD*%
G01*
G04 APERTURE LIST*
%ADD10C,0.150000*%
%ADD11C,0.120000*%
%ADD12C,0.152400*%
%ADD13C,0.127000*%
G04 APERTURE END LIST*
D10*
X195219048Y-88173866D02*
X195980953Y-88173866D01*
X195119048Y-85873866D02*
X195880953Y-85873866D01*
X195500000Y-86254819D02*
X195500000Y-85492914D01*
X183419048Y-88073866D02*
X184180953Y-88073866D01*
X183519048Y-85573866D02*
X184280953Y-85573866D01*
X183900000Y-85954819D02*
X183900000Y-85192914D01*
X178833333Y-69359580D02*
X178785714Y-69407200D01*
X178785714Y-69407200D02*
X178642857Y-69454819D01*
X178642857Y-69454819D02*
X178547619Y-69454819D01*
X178547619Y-69454819D02*
X178404762Y-69407200D01*
X178404762Y-69407200D02*
X178309524Y-69311961D01*
X178309524Y-69311961D02*
X178261905Y-69216723D01*
X178261905Y-69216723D02*
X178214286Y-69026247D01*
X178214286Y-69026247D02*
X178214286Y-68883390D01*
X178214286Y-68883390D02*
X178261905Y-68692914D01*
X178261905Y-68692914D02*
X178309524Y-68597676D01*
X178309524Y-68597676D02*
X178404762Y-68502438D01*
X178404762Y-68502438D02*
X178547619Y-68454819D01*
X178547619Y-68454819D02*
X178642857Y-68454819D01*
X178642857Y-68454819D02*
X178785714Y-68502438D01*
X178785714Y-68502438D02*
X178833333Y-68550057D01*
X179785714Y-69454819D02*
X179214286Y-69454819D01*
X179500000Y-69454819D02*
X179500000Y-68454819D01*
X179500000Y-68454819D02*
X179404762Y-68597676D01*
X179404762Y-68597676D02*
X179309524Y-68692914D01*
X179309524Y-68692914D02*
X179214286Y-68740533D01*
X178833333Y-77859580D02*
X178785714Y-77907200D01*
X178785714Y-77907200D02*
X178642857Y-77954819D01*
X178642857Y-77954819D02*
X178547619Y-77954819D01*
X178547619Y-77954819D02*
X178404762Y-77907200D01*
X178404762Y-77907200D02*
X178309524Y-77811961D01*
X178309524Y-77811961D02*
X178261905Y-77716723D01*
X178261905Y-77716723D02*
X178214286Y-77526247D01*
X178214286Y-77526247D02*
X178214286Y-77383390D01*
X178214286Y-77383390D02*
X178261905Y-77192914D01*
X178261905Y-77192914D02*
X178309524Y-77097676D01*
X178309524Y-77097676D02*
X178404762Y-77002438D01*
X178404762Y-77002438D02*
X178547619Y-76954819D01*
X178547619Y-76954819D02*
X178642857Y-76954819D01*
X178642857Y-76954819D02*
X178785714Y-77002438D01*
X178785714Y-77002438D02*
X178833333Y-77050057D01*
X179214286Y-77050057D02*
X179261905Y-77002438D01*
X179261905Y-77002438D02*
X179357143Y-76954819D01*
X179357143Y-76954819D02*
X179595238Y-76954819D01*
X179595238Y-76954819D02*
X179690476Y-77002438D01*
X179690476Y-77002438D02*
X179738095Y-77050057D01*
X179738095Y-77050057D02*
X179785714Y-77145295D01*
X179785714Y-77145295D02*
X179785714Y-77240533D01*
X179785714Y-77240533D02*
X179738095Y-77383390D01*
X179738095Y-77383390D02*
X179166667Y-77954819D01*
X179166667Y-77954819D02*
X179785714Y-77954819D01*
X195166666Y-68514819D02*
X195166666Y-69229104D01*
X195166666Y-69229104D02*
X195119047Y-69371961D01*
X195119047Y-69371961D02*
X195023809Y-69467200D01*
X195023809Y-69467200D02*
X194880952Y-69514819D01*
X194880952Y-69514819D02*
X194785714Y-69514819D01*
X196166666Y-69514819D02*
X195595238Y-69514819D01*
X195880952Y-69514819D02*
X195880952Y-68514819D01*
X195880952Y-68514819D02*
X195785714Y-68657676D01*
X195785714Y-68657676D02*
X195690476Y-68752914D01*
X195690476Y-68752914D02*
X195595238Y-68800533D01*
X194954819Y-56166666D02*
X194478628Y-56499999D01*
X194954819Y-56738094D02*
X193954819Y-56738094D01*
X193954819Y-56738094D02*
X193954819Y-56357142D01*
X193954819Y-56357142D02*
X194002438Y-56261904D01*
X194002438Y-56261904D02*
X194050057Y-56214285D01*
X194050057Y-56214285D02*
X194145295Y-56166666D01*
X194145295Y-56166666D02*
X194288152Y-56166666D01*
X194288152Y-56166666D02*
X194383390Y-56214285D01*
X194383390Y-56214285D02*
X194431009Y-56261904D01*
X194431009Y-56261904D02*
X194478628Y-56357142D01*
X194478628Y-56357142D02*
X194478628Y-56738094D01*
X194050057Y-55785713D02*
X194002438Y-55738094D01*
X194002438Y-55738094D02*
X193954819Y-55642856D01*
X193954819Y-55642856D02*
X193954819Y-55404761D01*
X193954819Y-55404761D02*
X194002438Y-55309523D01*
X194002438Y-55309523D02*
X194050057Y-55261904D01*
X194050057Y-55261904D02*
X194145295Y-55214285D01*
X194145295Y-55214285D02*
X194240533Y-55214285D01*
X194240533Y-55214285D02*
X194383390Y-55261904D01*
X194383390Y-55261904D02*
X194954819Y-55833332D01*
X194954819Y-55833332D02*
X194954819Y-55214285D01*
X182354819Y-56166666D02*
X181878628Y-56499999D01*
X182354819Y-56738094D02*
X181354819Y-56738094D01*
X181354819Y-56738094D02*
X181354819Y-56357142D01*
X181354819Y-56357142D02*
X181402438Y-56261904D01*
X181402438Y-56261904D02*
X181450057Y-56214285D01*
X181450057Y-56214285D02*
X181545295Y-56166666D01*
X181545295Y-56166666D02*
X181688152Y-56166666D01*
X181688152Y-56166666D02*
X181783390Y-56214285D01*
X181783390Y-56214285D02*
X181831009Y-56261904D01*
X181831009Y-56261904D02*
X181878628Y-56357142D01*
X181878628Y-56357142D02*
X181878628Y-56738094D01*
X181354819Y-55261904D02*
X181354819Y-55738094D01*
X181354819Y-55738094D02*
X181831009Y-55785713D01*
X181831009Y-55785713D02*
X181783390Y-55738094D01*
X181783390Y-55738094D02*
X181735771Y-55642856D01*
X181735771Y-55642856D02*
X181735771Y-55404761D01*
X181735771Y-55404761D02*
X181783390Y-55309523D01*
X181783390Y-55309523D02*
X181831009Y-55261904D01*
X181831009Y-55261904D02*
X181926247Y-55214285D01*
X181926247Y-55214285D02*
X182164342Y-55214285D01*
X182164342Y-55214285D02*
X182259580Y-55261904D01*
X182259580Y-55261904D02*
X182307200Y-55309523D01*
X182307200Y-55309523D02*
X182354819Y-55404761D01*
X182354819Y-55404761D02*
X182354819Y-55642856D01*
X182354819Y-55642856D02*
X182307200Y-55738094D01*
X182307200Y-55738094D02*
X182259580Y-55785713D01*
X188754819Y-56156666D02*
X188278628Y-56489999D01*
X188754819Y-56728094D02*
X187754819Y-56728094D01*
X187754819Y-56728094D02*
X187754819Y-56347142D01*
X187754819Y-56347142D02*
X187802438Y-56251904D01*
X187802438Y-56251904D02*
X187850057Y-56204285D01*
X187850057Y-56204285D02*
X187945295Y-56156666D01*
X187945295Y-56156666D02*
X188088152Y-56156666D01*
X188088152Y-56156666D02*
X188183390Y-56204285D01*
X188183390Y-56204285D02*
X188231009Y-56251904D01*
X188231009Y-56251904D02*
X188278628Y-56347142D01*
X188278628Y-56347142D02*
X188278628Y-56728094D01*
X187754819Y-55823332D02*
X187754819Y-55204285D01*
X187754819Y-55204285D02*
X188135771Y-55537618D01*
X188135771Y-55537618D02*
X188135771Y-55394761D01*
X188135771Y-55394761D02*
X188183390Y-55299523D01*
X188183390Y-55299523D02*
X188231009Y-55251904D01*
X188231009Y-55251904D02*
X188326247Y-55204285D01*
X188326247Y-55204285D02*
X188564342Y-55204285D01*
X188564342Y-55204285D02*
X188659580Y-55251904D01*
X188659580Y-55251904D02*
X188707200Y-55299523D01*
X188707200Y-55299523D02*
X188754819Y-55394761D01*
X188754819Y-55394761D02*
X188754819Y-55680475D01*
X188754819Y-55680475D02*
X188707200Y-55775713D01*
X188707200Y-55775713D02*
X188659580Y-55823332D01*
X194854819Y-87333333D02*
X195569104Y-87333333D01*
X195569104Y-87333333D02*
X195711961Y-87380952D01*
X195711961Y-87380952D02*
X195807200Y-87476190D01*
X195807200Y-87476190D02*
X195854819Y-87619047D01*
X195854819Y-87619047D02*
X195854819Y-87714285D01*
X194854819Y-86952380D02*
X194854819Y-86285714D01*
X194854819Y-86285714D02*
X195854819Y-86714285D01*
X183354819Y-87333333D02*
X184069104Y-87333333D01*
X184069104Y-87333333D02*
X184211961Y-87380952D01*
X184211961Y-87380952D02*
X184307200Y-87476190D01*
X184307200Y-87476190D02*
X184354819Y-87619047D01*
X184354819Y-87619047D02*
X184354819Y-87714285D01*
X183354819Y-86380952D02*
X183354819Y-86857142D01*
X183354819Y-86857142D02*
X183831009Y-86904761D01*
X183831009Y-86904761D02*
X183783390Y-86857142D01*
X183783390Y-86857142D02*
X183735771Y-86761904D01*
X183735771Y-86761904D02*
X183735771Y-86523809D01*
X183735771Y-86523809D02*
X183783390Y-86428571D01*
X183783390Y-86428571D02*
X183831009Y-86380952D01*
X183831009Y-86380952D02*
X183926247Y-86333333D01*
X183926247Y-86333333D02*
X184164342Y-86333333D01*
X184164342Y-86333333D02*
X184259580Y-86380952D01*
X184259580Y-86380952D02*
X184307200Y-86428571D01*
X184307200Y-86428571D02*
X184354819Y-86523809D01*
X184354819Y-86523809D02*
X184354819Y-86761904D01*
X184354819Y-86761904D02*
X184307200Y-86857142D01*
X184307200Y-86857142D02*
X184259580Y-86904761D01*
X191804761Y-79250057D02*
X191709523Y-79202438D01*
X191709523Y-79202438D02*
X191614285Y-79107200D01*
X191614285Y-79107200D02*
X191471428Y-78964342D01*
X191471428Y-78964342D02*
X191376190Y-78916723D01*
X191376190Y-78916723D02*
X191280952Y-78916723D01*
X191328571Y-79154819D02*
X191233333Y-79107200D01*
X191233333Y-79107200D02*
X191138095Y-79011961D01*
X191138095Y-79011961D02*
X191090476Y-78821485D01*
X191090476Y-78821485D02*
X191090476Y-78488152D01*
X191090476Y-78488152D02*
X191138095Y-78297676D01*
X191138095Y-78297676D02*
X191233333Y-78202438D01*
X191233333Y-78202438D02*
X191328571Y-78154819D01*
X191328571Y-78154819D02*
X191519047Y-78154819D01*
X191519047Y-78154819D02*
X191614285Y-78202438D01*
X191614285Y-78202438D02*
X191709523Y-78297676D01*
X191709523Y-78297676D02*
X191757142Y-78488152D01*
X191757142Y-78488152D02*
X191757142Y-78821485D01*
X191757142Y-78821485D02*
X191709523Y-79011961D01*
X191709523Y-79011961D02*
X191614285Y-79107200D01*
X191614285Y-79107200D02*
X191519047Y-79154819D01*
X191519047Y-79154819D02*
X191328571Y-79154819D01*
X192709523Y-79154819D02*
X192138095Y-79154819D01*
X192423809Y-79154819D02*
X192423809Y-78154819D01*
X192423809Y-78154819D02*
X192328571Y-78297676D01*
X192328571Y-78297676D02*
X192233333Y-78392914D01*
X192233333Y-78392914D02*
X192138095Y-78440533D01*
X184928095Y-71574819D02*
X184928095Y-72384342D01*
X184928095Y-72384342D02*
X184975714Y-72479580D01*
X184975714Y-72479580D02*
X185023333Y-72527200D01*
X185023333Y-72527200D02*
X185118571Y-72574819D01*
X185118571Y-72574819D02*
X185309047Y-72574819D01*
X185309047Y-72574819D02*
X185404285Y-72527200D01*
X185404285Y-72527200D02*
X185451904Y-72479580D01*
X185451904Y-72479580D02*
X185499523Y-72384342D01*
X185499523Y-72384342D02*
X185499523Y-71574819D01*
X186499523Y-72574819D02*
X185928095Y-72574819D01*
X186213809Y-72574819D02*
X186213809Y-71574819D01*
X186213809Y-71574819D02*
X186118571Y-71717676D01*
X186118571Y-71717676D02*
X186023333Y-71812914D01*
X186023333Y-71812914D02*
X185928095Y-71860533D01*
X181200000Y-62254819D02*
X181200000Y-62492914D01*
X180961905Y-62397676D02*
X181200000Y-62492914D01*
X181200000Y-62492914D02*
X181438095Y-62397676D01*
X181057143Y-62683390D02*
X181200000Y-62492914D01*
X181200000Y-62492914D02*
X181342857Y-62683390D01*
X190066666Y-62054819D02*
X190066666Y-62769104D01*
X190066666Y-62769104D02*
X190019047Y-62911961D01*
X190019047Y-62911961D02*
X189923809Y-63007200D01*
X189923809Y-63007200D02*
X189780952Y-63054819D01*
X189780952Y-63054819D02*
X189685714Y-63054819D01*
X190971428Y-62054819D02*
X190780952Y-62054819D01*
X190780952Y-62054819D02*
X190685714Y-62102438D01*
X190685714Y-62102438D02*
X190638095Y-62150057D01*
X190638095Y-62150057D02*
X190542857Y-62292914D01*
X190542857Y-62292914D02*
X190495238Y-62483390D01*
X190495238Y-62483390D02*
X190495238Y-62864342D01*
X190495238Y-62864342D02*
X190542857Y-62959580D01*
X190542857Y-62959580D02*
X190590476Y-63007200D01*
X190590476Y-63007200D02*
X190685714Y-63054819D01*
X190685714Y-63054819D02*
X190876190Y-63054819D01*
X190876190Y-63054819D02*
X190971428Y-63007200D01*
X190971428Y-63007200D02*
X191019047Y-62959580D01*
X191019047Y-62959580D02*
X191066666Y-62864342D01*
X191066666Y-62864342D02*
X191066666Y-62626247D01*
X191066666Y-62626247D02*
X191019047Y-62531009D01*
X191019047Y-62531009D02*
X190971428Y-62483390D01*
X190971428Y-62483390D02*
X190876190Y-62435771D01*
X190876190Y-62435771D02*
X190685714Y-62435771D01*
X190685714Y-62435771D02*
X190590476Y-62483390D01*
X190590476Y-62483390D02*
X190542857Y-62531009D01*
X190542857Y-62531009D02*
X190495238Y-62626247D01*
X179154819Y-56166666D02*
X178678628Y-56499999D01*
X179154819Y-56738094D02*
X178154819Y-56738094D01*
X178154819Y-56738094D02*
X178154819Y-56357142D01*
X178154819Y-56357142D02*
X178202438Y-56261904D01*
X178202438Y-56261904D02*
X178250057Y-56214285D01*
X178250057Y-56214285D02*
X178345295Y-56166666D01*
X178345295Y-56166666D02*
X178488152Y-56166666D01*
X178488152Y-56166666D02*
X178583390Y-56214285D01*
X178583390Y-56214285D02*
X178631009Y-56261904D01*
X178631009Y-56261904D02*
X178678628Y-56357142D01*
X178678628Y-56357142D02*
X178678628Y-56738094D01*
X178154819Y-55309523D02*
X178154819Y-55499999D01*
X178154819Y-55499999D02*
X178202438Y-55595237D01*
X178202438Y-55595237D02*
X178250057Y-55642856D01*
X178250057Y-55642856D02*
X178392914Y-55738094D01*
X178392914Y-55738094D02*
X178583390Y-55785713D01*
X178583390Y-55785713D02*
X178964342Y-55785713D01*
X178964342Y-55785713D02*
X179059580Y-55738094D01*
X179059580Y-55738094D02*
X179107200Y-55690475D01*
X179107200Y-55690475D02*
X179154819Y-55595237D01*
X179154819Y-55595237D02*
X179154819Y-55404761D01*
X179154819Y-55404761D02*
X179107200Y-55309523D01*
X179107200Y-55309523D02*
X179059580Y-55261904D01*
X179059580Y-55261904D02*
X178964342Y-55214285D01*
X178964342Y-55214285D02*
X178726247Y-55214285D01*
X178726247Y-55214285D02*
X178631009Y-55261904D01*
X178631009Y-55261904D02*
X178583390Y-55309523D01*
X178583390Y-55309523D02*
X178535771Y-55404761D01*
X178535771Y-55404761D02*
X178535771Y-55595237D01*
X178535771Y-55595237D02*
X178583390Y-55690475D01*
X178583390Y-55690475D02*
X178631009Y-55738094D01*
X178631009Y-55738094D02*
X178726247Y-55785713D01*
X185554819Y-56166666D02*
X185078628Y-56499999D01*
X185554819Y-56738094D02*
X184554819Y-56738094D01*
X184554819Y-56738094D02*
X184554819Y-56357142D01*
X184554819Y-56357142D02*
X184602438Y-56261904D01*
X184602438Y-56261904D02*
X184650057Y-56214285D01*
X184650057Y-56214285D02*
X184745295Y-56166666D01*
X184745295Y-56166666D02*
X184888152Y-56166666D01*
X184888152Y-56166666D02*
X184983390Y-56214285D01*
X184983390Y-56214285D02*
X185031009Y-56261904D01*
X185031009Y-56261904D02*
X185078628Y-56357142D01*
X185078628Y-56357142D02*
X185078628Y-56738094D01*
X184888152Y-55309523D02*
X185554819Y-55309523D01*
X184507200Y-55547618D02*
X185221485Y-55785713D01*
X185221485Y-55785713D02*
X185221485Y-55166666D01*
X168666666Y-58304819D02*
X168666666Y-59019104D01*
X168666666Y-59019104D02*
X168619047Y-59161961D01*
X168619047Y-59161961D02*
X168523809Y-59257200D01*
X168523809Y-59257200D02*
X168380952Y-59304819D01*
X168380952Y-59304819D02*
X168285714Y-59304819D01*
X169571428Y-58638152D02*
X169571428Y-59304819D01*
X169333333Y-58257200D02*
X169095238Y-58971485D01*
X169095238Y-58971485D02*
X169714285Y-58971485D01*
X179333333Y-81859580D02*
X179285714Y-81907200D01*
X179285714Y-81907200D02*
X179142857Y-81954819D01*
X179142857Y-81954819D02*
X179047619Y-81954819D01*
X179047619Y-81954819D02*
X178904762Y-81907200D01*
X178904762Y-81907200D02*
X178809524Y-81811961D01*
X178809524Y-81811961D02*
X178761905Y-81716723D01*
X178761905Y-81716723D02*
X178714286Y-81526247D01*
X178714286Y-81526247D02*
X178714286Y-81383390D01*
X178714286Y-81383390D02*
X178761905Y-81192914D01*
X178761905Y-81192914D02*
X178809524Y-81097676D01*
X178809524Y-81097676D02*
X178904762Y-81002438D01*
X178904762Y-81002438D02*
X179047619Y-80954819D01*
X179047619Y-80954819D02*
X179142857Y-80954819D01*
X179142857Y-80954819D02*
X179285714Y-81002438D01*
X179285714Y-81002438D02*
X179333333Y-81050057D01*
X179666667Y-80954819D02*
X180285714Y-80954819D01*
X180285714Y-80954819D02*
X179952381Y-81335771D01*
X179952381Y-81335771D02*
X180095238Y-81335771D01*
X180095238Y-81335771D02*
X180190476Y-81383390D01*
X180190476Y-81383390D02*
X180238095Y-81431009D01*
X180238095Y-81431009D02*
X180285714Y-81526247D01*
X180285714Y-81526247D02*
X180285714Y-81764342D01*
X180285714Y-81764342D02*
X180238095Y-81859580D01*
X180238095Y-81859580D02*
X180190476Y-81907200D01*
X180190476Y-81907200D02*
X180095238Y-81954819D01*
X180095238Y-81954819D02*
X179809524Y-81954819D01*
X179809524Y-81954819D02*
X179714286Y-81907200D01*
X179714286Y-81907200D02*
X179666667Y-81859580D01*
X171738095Y-71454819D02*
X171738095Y-70454819D01*
X172309523Y-71454819D02*
X171880952Y-70883390D01*
X172309523Y-70454819D02*
X171738095Y-71026247D01*
X175666667Y-82407200D02*
X175809524Y-82454819D01*
X175809524Y-82454819D02*
X176047619Y-82454819D01*
X176047619Y-82454819D02*
X176142857Y-82407200D01*
X176142857Y-82407200D02*
X176190476Y-82359580D01*
X176190476Y-82359580D02*
X176238095Y-82264342D01*
X176238095Y-82264342D02*
X176238095Y-82169104D01*
X176238095Y-82169104D02*
X176190476Y-82073866D01*
X176190476Y-82073866D02*
X176142857Y-82026247D01*
X176142857Y-82026247D02*
X176047619Y-81978628D01*
X176047619Y-81978628D02*
X175857143Y-81931009D01*
X175857143Y-81931009D02*
X175761905Y-81883390D01*
X175761905Y-81883390D02*
X175714286Y-81835771D01*
X175714286Y-81835771D02*
X175666667Y-81740533D01*
X175666667Y-81740533D02*
X175666667Y-81645295D01*
X175666667Y-81645295D02*
X175714286Y-81550057D01*
X175714286Y-81550057D02*
X175761905Y-81502438D01*
X175761905Y-81502438D02*
X175857143Y-81454819D01*
X175857143Y-81454819D02*
X176095238Y-81454819D01*
X176095238Y-81454819D02*
X176238095Y-81502438D01*
X176571429Y-81454819D02*
X176809524Y-82454819D01*
X176809524Y-82454819D02*
X177000000Y-81740533D01*
X177000000Y-81740533D02*
X177190476Y-82454819D01*
X177190476Y-82454819D02*
X177428572Y-81454819D01*
X178333333Y-82454819D02*
X177761905Y-82454819D01*
X178047619Y-82454819D02*
X178047619Y-81454819D01*
X178047619Y-81454819D02*
X177952381Y-81597676D01*
X177952381Y-81597676D02*
X177857143Y-81692914D01*
X177857143Y-81692914D02*
X177761905Y-81740533D01*
X191854819Y-56156666D02*
X191378628Y-56489999D01*
X191854819Y-56728094D02*
X190854819Y-56728094D01*
X190854819Y-56728094D02*
X190854819Y-56347142D01*
X190854819Y-56347142D02*
X190902438Y-56251904D01*
X190902438Y-56251904D02*
X190950057Y-56204285D01*
X190950057Y-56204285D02*
X191045295Y-56156666D01*
X191045295Y-56156666D02*
X191188152Y-56156666D01*
X191188152Y-56156666D02*
X191283390Y-56204285D01*
X191283390Y-56204285D02*
X191331009Y-56251904D01*
X191331009Y-56251904D02*
X191378628Y-56347142D01*
X191378628Y-56347142D02*
X191378628Y-56728094D01*
X191854819Y-55204285D02*
X191854819Y-55775713D01*
X191854819Y-55489999D02*
X190854819Y-55489999D01*
X190854819Y-55489999D02*
X190997676Y-55585237D01*
X190997676Y-55585237D02*
X191092914Y-55680475D01*
X191092914Y-55680475D02*
X191140533Y-55775713D01*
X191904761Y-73550057D02*
X191809523Y-73502438D01*
X191809523Y-73502438D02*
X191714285Y-73407200D01*
X191714285Y-73407200D02*
X191571428Y-73264342D01*
X191571428Y-73264342D02*
X191476190Y-73216723D01*
X191476190Y-73216723D02*
X191380952Y-73216723D01*
X191428571Y-73454819D02*
X191333333Y-73407200D01*
X191333333Y-73407200D02*
X191238095Y-73311961D01*
X191238095Y-73311961D02*
X191190476Y-73121485D01*
X191190476Y-73121485D02*
X191190476Y-72788152D01*
X191190476Y-72788152D02*
X191238095Y-72597676D01*
X191238095Y-72597676D02*
X191333333Y-72502438D01*
X191333333Y-72502438D02*
X191428571Y-72454819D01*
X191428571Y-72454819D02*
X191619047Y-72454819D01*
X191619047Y-72454819D02*
X191714285Y-72502438D01*
X191714285Y-72502438D02*
X191809523Y-72597676D01*
X191809523Y-72597676D02*
X191857142Y-72788152D01*
X191857142Y-72788152D02*
X191857142Y-73121485D01*
X191857142Y-73121485D02*
X191809523Y-73311961D01*
X191809523Y-73311961D02*
X191714285Y-73407200D01*
X191714285Y-73407200D02*
X191619047Y-73454819D01*
X191619047Y-73454819D02*
X191428571Y-73454819D01*
X192238095Y-72550057D02*
X192285714Y-72502438D01*
X192285714Y-72502438D02*
X192380952Y-72454819D01*
X192380952Y-72454819D02*
X192619047Y-72454819D01*
X192619047Y-72454819D02*
X192714285Y-72502438D01*
X192714285Y-72502438D02*
X192761904Y-72550057D01*
X192761904Y-72550057D02*
X192809523Y-72645295D01*
X192809523Y-72645295D02*
X192809523Y-72740533D01*
X192809523Y-72740533D02*
X192761904Y-72883390D01*
X192761904Y-72883390D02*
X192190476Y-73454819D01*
X192190476Y-73454819D02*
X192809523Y-73454819D01*
X165666667Y-82407200D02*
X165809524Y-82454819D01*
X165809524Y-82454819D02*
X166047619Y-82454819D01*
X166047619Y-82454819D02*
X166142857Y-82407200D01*
X166142857Y-82407200D02*
X166190476Y-82359580D01*
X166190476Y-82359580D02*
X166238095Y-82264342D01*
X166238095Y-82264342D02*
X166238095Y-82169104D01*
X166238095Y-82169104D02*
X166190476Y-82073866D01*
X166190476Y-82073866D02*
X166142857Y-82026247D01*
X166142857Y-82026247D02*
X166047619Y-81978628D01*
X166047619Y-81978628D02*
X165857143Y-81931009D01*
X165857143Y-81931009D02*
X165761905Y-81883390D01*
X165761905Y-81883390D02*
X165714286Y-81835771D01*
X165714286Y-81835771D02*
X165666667Y-81740533D01*
X165666667Y-81740533D02*
X165666667Y-81645295D01*
X165666667Y-81645295D02*
X165714286Y-81550057D01*
X165714286Y-81550057D02*
X165761905Y-81502438D01*
X165761905Y-81502438D02*
X165857143Y-81454819D01*
X165857143Y-81454819D02*
X166095238Y-81454819D01*
X166095238Y-81454819D02*
X166238095Y-81502438D01*
X166571429Y-81454819D02*
X166809524Y-82454819D01*
X166809524Y-82454819D02*
X167000000Y-81740533D01*
X167000000Y-81740533D02*
X167190476Y-82454819D01*
X167190476Y-82454819D02*
X167428572Y-81454819D01*
X167761905Y-81550057D02*
X167809524Y-81502438D01*
X167809524Y-81502438D02*
X167904762Y-81454819D01*
X167904762Y-81454819D02*
X168142857Y-81454819D01*
X168142857Y-81454819D02*
X168238095Y-81502438D01*
X168238095Y-81502438D02*
X168285714Y-81550057D01*
X168285714Y-81550057D02*
X168333333Y-81645295D01*
X168333333Y-81645295D02*
X168333333Y-81740533D01*
X168333333Y-81740533D02*
X168285714Y-81883390D01*
X168285714Y-81883390D02*
X167714286Y-82454819D01*
X167714286Y-82454819D02*
X168333333Y-82454819D01*
X171454819Y-76761904D02*
X172264342Y-76761904D01*
X172264342Y-76761904D02*
X172359580Y-76714285D01*
X172359580Y-76714285D02*
X172407200Y-76666666D01*
X172407200Y-76666666D02*
X172454819Y-76571428D01*
X172454819Y-76571428D02*
X172454819Y-76380952D01*
X172454819Y-76380952D02*
X172407200Y-76285714D01*
X172407200Y-76285714D02*
X172359580Y-76238095D01*
X172359580Y-76238095D02*
X172264342Y-76190476D01*
X172264342Y-76190476D02*
X171454819Y-76190476D01*
X171550057Y-75761904D02*
X171502438Y-75714285D01*
X171502438Y-75714285D02*
X171454819Y-75619047D01*
X171454819Y-75619047D02*
X171454819Y-75380952D01*
X171454819Y-75380952D02*
X171502438Y-75285714D01*
X171502438Y-75285714D02*
X171550057Y-75238095D01*
X171550057Y-75238095D02*
X171645295Y-75190476D01*
X171645295Y-75190476D02*
X171740533Y-75190476D01*
X171740533Y-75190476D02*
X171883390Y-75238095D01*
X171883390Y-75238095D02*
X172454819Y-75809523D01*
X172454819Y-75809523D02*
X172454819Y-75190476D01*
D11*
%TO.C,C1*%
X180120000Y-65000000D02*
G75*
G02*
X174880000Y-65000000I-2620000J0D01*
G01*
X174880000Y-65000000D02*
G75*
G02*
X180120000Y-65000000I2620000J0D01*
G01*
%TO.C,C2*%
X179770000Y-74000000D02*
G75*
G02*
X173230000Y-74000000I-3270000J0D01*
G01*
X173230000Y-74000000D02*
G75*
G02*
X179770000Y-74000000I3270000J0D01*
G01*
%TO.C,J1*%
X194440000Y-66000000D02*
X194440000Y-61940000D01*
X196560000Y-61940000D02*
X194440000Y-61940000D01*
X196560000Y-66000000D02*
X194440000Y-66000000D01*
X196560000Y-66000000D02*
X196560000Y-61940000D01*
X196560000Y-67000000D02*
X196560000Y-68060000D01*
X196560000Y-68060000D02*
X195500000Y-68060000D01*
%TO.C,R2*%
X193580000Y-54080000D02*
X193580000Y-57920000D01*
X193580000Y-57920000D02*
X195420000Y-57920000D01*
X194500000Y-53130000D02*
X194500000Y-54080000D01*
X194500000Y-58870000D02*
X194500000Y-57920000D01*
X195420000Y-54080000D02*
X193580000Y-54080000D01*
X195420000Y-57920000D02*
X195420000Y-54080000D01*
%TO.C,R5*%
X180930000Y-54080000D02*
X180930000Y-57920000D01*
X180930000Y-57920000D02*
X182770000Y-57920000D01*
X181850000Y-53130000D02*
X181850000Y-54080000D01*
X181850000Y-58870000D02*
X181850000Y-57920000D01*
X182770000Y-54080000D02*
X180930000Y-54080000D01*
X182770000Y-57920000D02*
X182770000Y-54080000D01*
%TO.C,R3*%
X187280000Y-54070000D02*
X187280000Y-57910000D01*
X187280000Y-57910000D02*
X189120000Y-57910000D01*
X188200000Y-53120000D02*
X188200000Y-54070000D01*
X188200000Y-58860000D02*
X188200000Y-57910000D01*
X189120000Y-54070000D02*
X187280000Y-54070000D01*
X189120000Y-57910000D02*
X189120000Y-54070000D01*
%TO.C,J7*%
X191940000Y-84940000D02*
X191940000Y-89060000D01*
X192000000Y-84940000D02*
X191940000Y-84940000D01*
X192000000Y-84940000D02*
X192000000Y-87000000D01*
X192000000Y-87000000D02*
X194060000Y-87000000D01*
X193000000Y-84940000D02*
X194060000Y-84940000D01*
X194060000Y-84940000D02*
X194060000Y-86000000D01*
X194060000Y-87000000D02*
X194060000Y-89060000D01*
X194060000Y-89060000D02*
X191940000Y-89060000D01*
%TO.C,J5*%
X185440000Y-84940000D02*
X185440000Y-89060000D01*
X185500000Y-84940000D02*
X185440000Y-84940000D01*
X185500000Y-84940000D02*
X185500000Y-87000000D01*
X185500000Y-87000000D02*
X187560000Y-87000000D01*
X186500000Y-84940000D02*
X187560000Y-84940000D01*
X187560000Y-84940000D02*
X187560000Y-86000000D01*
X187560000Y-87000000D02*
X187560000Y-89060000D01*
X187560000Y-89060000D02*
X185440000Y-89060000D01*
%TO.C,Q1*%
X192430000Y-83350000D02*
X196030000Y-83350000D01*
X192391522Y-83338478D02*
G75*
G02*
X194230000Y-78899999I1838478J1838478D01*
G01*
X194230000Y-78900000D02*
G75*
G02*
X196068478Y-83338478I0J-2600000D01*
G01*
D12*
%TO.C,U1*%
X182007000Y-62150500D02*
X182007000Y-63506860D01*
X182007000Y-65493140D02*
X182007000Y-66055014D01*
X182007000Y-68024986D02*
X182007000Y-68595014D01*
X182007000Y-70564986D02*
X182007000Y-71135014D01*
X182007000Y-73104986D02*
X182007000Y-73675014D01*
X182007000Y-75644986D02*
X182007000Y-76215014D01*
X182007000Y-78184986D02*
X182007000Y-78755014D01*
X182007000Y-80724986D02*
X182007000Y-82089500D01*
X182007000Y-82089500D02*
X189373000Y-82089500D01*
X189373000Y-62150500D02*
X182007000Y-62150500D01*
X189373000Y-63515014D02*
X189373000Y-62150500D01*
X189373000Y-66055014D02*
X189373000Y-65484986D01*
X189373000Y-68595014D02*
X189373000Y-68024986D01*
X189373000Y-71135014D02*
X189373000Y-70564986D01*
X189373000Y-73675014D02*
X189373000Y-73104986D01*
X189373000Y-76215014D02*
X189373000Y-75644986D01*
X189373000Y-78755014D02*
X189373000Y-78184986D01*
X189373000Y-82089500D02*
X189373000Y-80724986D01*
D11*
%TO.C,J6*%
X191440000Y-61940000D02*
X192500000Y-61940000D01*
X191440000Y-63000000D02*
X191440000Y-61940000D01*
X191440000Y-64000000D02*
X191440000Y-72060000D01*
X191440000Y-64000000D02*
X193560000Y-64000000D01*
X191440000Y-72060000D02*
X193560000Y-72060000D01*
X193560000Y-64000000D02*
X193560000Y-72060000D01*
%TO.C,R6*%
X177780000Y-54080000D02*
X177780000Y-57920000D01*
X177780000Y-57920000D02*
X179620000Y-57920000D01*
X178700000Y-53130000D02*
X178700000Y-54080000D01*
X178700000Y-58870000D02*
X178700000Y-57920000D01*
X179620000Y-54080000D02*
X177780000Y-54080000D01*
X179620000Y-57920000D02*
X179620000Y-54080000D01*
%TO.C,R4*%
X184080000Y-54080000D02*
X184080000Y-57920000D01*
X184080000Y-57920000D02*
X185920000Y-57920000D01*
X185000000Y-53130000D02*
X185000000Y-54080000D01*
X185000000Y-58870000D02*
X185000000Y-57920000D01*
X185920000Y-54080000D02*
X184080000Y-54080000D01*
X185920000Y-57920000D02*
X185920000Y-54080000D01*
D13*
%TO.C,J4*%
X164500000Y-51500000D02*
X173500000Y-51500000D01*
X164500000Y-53680000D02*
X164500000Y-51500000D01*
X164500000Y-56320000D02*
X164500000Y-59880000D01*
X164500000Y-66200000D02*
X164500000Y-62520000D01*
X173500000Y-51500000D02*
X173500000Y-53680000D01*
X173500000Y-56320000D02*
X173500000Y-59880000D01*
X173500000Y-66200000D02*
X164500000Y-66200000D01*
X173500000Y-66200000D02*
X173500000Y-62520000D01*
D11*
%TO.C,C3*%
X175621000Y-78580000D02*
X176879000Y-78580000D01*
X175621000Y-80420000D02*
X176879000Y-80420000D01*
%TO.C,D1*%
X164840000Y-69000000D02*
X165860000Y-69000000D01*
X165860000Y-67530000D02*
X165860000Y-70470000D01*
X165860000Y-70470000D02*
X171300000Y-70470000D01*
X170280000Y-70470000D02*
X170280000Y-67530000D01*
X170400000Y-70470000D02*
X170400000Y-67530000D01*
X170520000Y-70470000D02*
X170520000Y-67530000D01*
X171300000Y-67530000D02*
X165860000Y-67530000D01*
X171300000Y-70470000D02*
X171300000Y-67530000D01*
X172320000Y-69000000D02*
X171300000Y-69000000D01*
%TO.C,SW1*%
X173500000Y-85500000D02*
X173500000Y-87000000D01*
X174750000Y-89500000D02*
X179250000Y-89500000D01*
X179250000Y-83000000D02*
X174750000Y-83000000D01*
X180500000Y-87000000D02*
X180500000Y-85500000D01*
%TO.C,R1*%
X190480000Y-54070000D02*
X190480000Y-57910000D01*
X190480000Y-57910000D02*
X192320000Y-57910000D01*
X191400000Y-53120000D02*
X191400000Y-54070000D01*
X191400000Y-58860000D02*
X191400000Y-57910000D01*
X192320000Y-54070000D02*
X190480000Y-54070000D01*
X192320000Y-57910000D02*
X192320000Y-54070000D01*
%TO.C,Q2*%
X192470000Y-77850000D02*
X196070000Y-77850000D01*
X192431522Y-77838478D02*
G75*
G02*
X194270000Y-73399999I1838478J1838478D01*
G01*
X194270000Y-73400000D02*
G75*
G02*
X196108478Y-77838478I0J-2600000D01*
G01*
%TO.C,SW2*%
X163500000Y-85500000D02*
X163500000Y-87000000D01*
X164750000Y-89500000D02*
X169250000Y-89500000D01*
X169250000Y-83000000D02*
X164750000Y-83000000D01*
X170500000Y-87000000D02*
X170500000Y-85500000D01*
%TO.C,U2*%
X164090000Y-74150000D02*
X164090000Y-77910000D01*
X164090000Y-77910000D02*
X165350000Y-77910000D01*
X170910000Y-74150000D02*
X170910000Y-77910000D01*
X170910000Y-77910000D02*
X169650000Y-77910000D01*
X171140000Y-73110000D02*
X170810000Y-72870000D01*
X171140000Y-72630000D01*
X171140000Y-73110000D01*
G36*
X171140000Y-73110000D02*
G01*
X170810000Y-72870000D01*
X171140000Y-72630000D01*
X171140000Y-73110000D01*
G37*
%TD*%
M02*
